<svg viewBox="0 0 32 32" fill="none" xmlns="http://www.w3.org/2000/svg">
  <path fill-rule="evenodd" clip-rule="evenodd" d="M5 16C5 9.92487 9.92487 5 16 5c6.0751 0 11 4.92487 11 11 0 6.0751-4.9249 11-11 11-6.07513 0-11-4.9249-11-11zM16 4C9.37258 4 4 9.37258 4 16c0 6.6274 5.37258 12 12 12 6.6274 0 12-5.3726 12-12 0-6.62742-5.3726-12-12-12zm0 5.5c.2761 0 .5.22386.5.5v7c0 .2761-.2239.5-.5.5s-.5-.2239-.5-.5v-7c0-.27614.2239-.5.5-.5zM17.5 20c0 .8284-.6716 1.5-1.5 1.5s-1.5-.6716-1.5-1.5.6716-1.5 1.5-1.5 1.5.6716 1.5 1.5z" fill="currentColor"/>
</svg>
