<svg viewBox="0 0 12 12" fill="none" xmlns="http://www.w3.org/2000/svg">
  <path fill-rule="evenodd" clip-rule="evenodd" d="M6.35356.853545c.19526-.195267.19525-.511849-.00001-.707107-.19527-.1952572-.51185-.1952496-.70711.000017L.146438 5.64672c-.1952506.19526-.1952506.51183 0 .70709L5.64644 11.8541c.19525.1952.51184.1952.7071 0 .19527-.1953.19528-.5118.00002-.7071L1.20709 6.00026 6.35356.853545zm5.50004 0c.1952-.195267.1952-.511849-.0001-.707107-.1952-.1952572-.5118-.1952496-.7071.000017L5.64644 5.64672c-.19525.19526-.19525.51183 0 .70709l5.49996 5.50029c.1953.1952.5119.1952.7071 0 .1953-.1953.1953-.5118.0001-.7071L6.70709 6.00026 11.8536.853545z" fill="currentColor"/>
</svg>
