<svg viewBox="0 0 32 32" fill="none" xmlns="http://www.w3.org/2000/svg">
  <path fill-rule="evenodd" clip-rule="evenodd" d="M14 7.5c-.2761 0-.5.22386-.5.5s.2239.5.5.5h7c.8284 0 1.5.67157 1.5 1.5v9c0 .2761.2239.5.5.5s.5-.2239.5-.5v-9c0-1.38071-1.1193-2.5-2.5-2.5h-7zm-4 3c-.82843 0-1.5.6716-1.5 1.5v11c0 .8284.67157 1.5 1.5 1.5h9c.8284 0 1.5-.6716 1.5-1.5V12c0-.8284-.6716-1.5-1.5-1.5h-9zM9.5 12c0-.2761.22386-.5.5-.5h9c.2761 0 .5.2239.5.5v11c0 .2761-.2239.5-.5.5h-9c-.27614 0-.5-.2239-.5-.5V12zm2.5 5c-.2761 0-.5.2239-.5.5s.2239.5.5.5h2v2c0 .2761.2239.5.5.5s.5-.2239.5-.5v-2h2c.2761 0 .5-.2239.5-.5s-.2239-.5-.5-.5h-2v-2c0-.2761-.2239-.5-.5-.5s-.5.2239-.5.5v2h-2z" fill="currentColor"/>
</svg>
