<svg viewBox="0 0 15 17" xmlns="http://www.w3.org/2000/svg" fill-rule="evenodd" clip-rule="evenodd" stroke-linejoin="round" stroke-miterlimit="2">
  <path fill="currentColor" d="M5.5 0c-.276 0-.5.224-.5.5s.224.5.5.5h7c.828 0 1.5.672 1.5 1.5v9c0 .276.224.5.5.5s.5-.224.5-.5v-9C15 1.119 13.881 0 12.5 0h-7zm-4 3C.672 3 0 3.672 0 4.5v11c0 .828.672 1.5 1.5 1.5h9c.828 0 1.5-.672 1.5-1.5v-11c0-.828-.672-1.5-1.5-1.5h-9zM1 4.5c0-.276.224-.5.5-.5h9c.276 0 .5.224.5.5v11c0 .276-.224.5-.5.5h-9c-.276 0-.5-.224-.5-.5v-11zm2.5 5c-.276 0-.5.224-.5.5s.224.5.5.5h2v2c0 .276.224.5.5.5s.5-.224.5-.5v-2h2c.276 0 .5-.224.5-.5s-.224-.5-.5-.5h-2v-2c0-.276-.224-.5-.5-.5s-.5.224-.5.5v2h-2z"/>
</svg>
