<svg viewBox="0 0 32 32" fill="none" xmlns="http://www.w3.org/2000/svg">
  <path fill-rule="evenodd" clip-rule="evenodd" d="M7.84881 15.8458C9.68558 14.0574 12.0123 13 14.5345 13c3.7564 0 7.2441 2.3892 9.1622 6h-6.3695c-.2762 0-.5.2239-.5.5s.2238.5.5.5h7.1621c.0728.0016.1471-.0127.2178-.0449.1917-.0872.3017-.2803.2925-.4785V12.5c0-.2761-.2239-.5-.5-.5-.2762 0-.5.2239-.5.5v5.0419C21.8516 14.209 18.3597 12 14.5345 12c-2.8146 0-5.38394 1.1826-7.38331 3.1294-.19785.1926-.20207.5092-.00942.707.19264.1979.50919.2021.70704.0094z" fill="currentColor"/>
</svg>
