<svg viewBox="0 0 19 9" xmlns="http://www.w3.org/2000/svg" fill-rule="evenodd" clip-rule="evenodd" stroke-linejoin="round" stroke-miterlimit="2">
  <path fill="currentColor" d="M.849 3.846C2.686 2.057 5.012 1 7.535 1c3.756 0 7.244 2.389 9.162 6h-6.37c-.276 0-.5.224-.5.5s.224.5.5.5h7.162c.073.002.147-.013.218-.045.192-.087.302-.28.293-.478V.5c0-.276-.224-.5-.5-.5-.277 0-.5.224-.5.5v5.042C14.852 2.209 11.36 0 7.535 0 4.72 0 2.151 1.183.151 3.129c-.198.193-.202.51-.009.707.192.198.509.203.707.01z"/>
</svg>