<svg viewBox="0 0 18 9" xmlns="http://www.w3.org/2000/svg" fill-rule="evenodd" clip-rule="evenodd" stroke-linejoin="round" stroke-miterlimit="2">
  <path fill="currentColor" d="M.001 7.467V.5c0-.276.224-.5.5-.5s.5.224.5.5v5.041C3.149 2.209 6.641 0 10.466 0c2.814 0 5.383 1.183 7.383 3.129.198.193.202.51.009.707-.192.198-.509.203-.707.01C15.314 2.057 12.988 1 10.466 1 6.709 1 3.221 3.389 1.303 7h6.37c.277 0 .5.224.5.5s-.223.5-.5.5H.511c-.073.002-.147-.013-.218-.045-.195-.089-.305-.287-.292-.488z"/>
</svg>
