<svg viewBox="0 0 10 14" xmlns="http://www.w3.org/2000/svg" fill-rule="evenodd" clip-rule="evenodd" stroke-linejoin="round" stroke-miterlimit="2">
  <path fill="currentColor" d="M0 2C0 .895.895 0 2 0h3.316c.751 0 1.443.163 2.075.489.646.326 1.16.775 1.542 1.349.382.574.573 1.206.573 1.897 0 .691-.178 1.29-.534 1.799-.342.508-.797.892-1.363 1.153v.118c.711.247 1.284.658 1.719 1.231.448.574.672 1.245.672 2.014 0 .769-.204 1.454-.613 2.053-.395.6-.935 1.069-1.62 1.408-.672.326-1.41.489-2.214.489H2c-1.105 0-2-.895-2-2V2zm5.217 3.866c.633 0 1.14-.196 1.522-.587.395-.391.593-.84.593-1.349 0-.508-.191-.951-.573-1.329-.369-.391-.857-.587-1.463-.587H2.713c-.276 0-.5.224-.5.5v2.852c0 .276.224.5.5.5h2.504zm.336 6.101c.672 0 1.206-.209 1.601-.626.409-.417.613-.9.613-1.447 0-.561-.211-1.043-.633-1.447-.408-.417-.961-.626-1.66-.626H2.713c-.276 0-.5.224-.5.5v3.146c0 .276.224.5.5.5h2.84z" fill-rule="nonzero"/>
</svg>
