<svg viewBox="0 0 23 16" xmlns="http://www.w3.org/2000/svg" fill-rule="evenodd" clip-rule="evenodd" stroke-linejoin="round" stroke-miterlimit="2">
  <path fill="currentColor" d="M1 .5C1 .224.776 0 .5 0S0 .224 0 .5v15c0 .276.224.5.5.5s.5-.224.5-.5V.5zm10 0c0-.276-.224-.5-.5-.5s-.5.224-.5.5v15c0 .276.224.5.5.5s.5-.224.5-.5V.5zM5 4c-.828 0-1.5.672-1.5 1.5v5c0 .828.672 1.5 1.5 1.5h1c.828 0 1.5-.672 1.5-1.5v-5C7.5 4.672 6.828 4 6 4H5zm9.825 2.62c-.209-.179-.525-.155-.705.055-.179.209-.155.525.055.705l3.5 3c.187.16.463.16.65 0l3.5-3c.21-.18.234-.496.055-.705-.18-.21-.496-.234-.705-.055L18 9.342 14.825 6.62z"/>
</svg>
