<svg viewBox="0 0 13 18" xmlns="http://www.w3.org/2000/svg" fill-rule="evenodd" clip-rule="evenodd" stroke-linejoin="round" stroke-miterlimit="2">
  <path fill="currentColor" d="M.146 6.354c-.195-.196-.195-.512.001-.708l5.5-5.5c.195-.195.512-.195.707 0l5.5 5.5c.195.196.195.512 0 .708-.195.195-.512.195-.707 0L6.5 1.707v14.586l4.647-4.647c.195-.195.512-.195.707.001.195.195.195.511 0 .707l-5.5 5.5c-.195.195-.512.195-.707 0l-5.5-5.5c-.196-.196-.196-.512-.001-.707.196-.196.512-.196.708-.001L5.5 16.293V1.707L.854 6.354c-.196.195-.512.195-.708 0z"/>
</svg>