<svg viewBox="0 0 8 17" xmlns="http://www.w3.org/2000/svg" fill-rule="evenodd" clip-rule="evenodd" stroke-linejoin="round" stroke-miterlimit="2">
  <path fill="currentColor" d="M.121 3.82617c-.18-.209-.156-.525.054-.705l3.499-3.001c.187-.16.464-.16.651 0l3.499 3.001c.21.18.234.496.055.705-.18.21-.496.234-.705.054L4 1.15917l-3.174 2.721c-.21.18-.526.156-.705-.054zm3.879.677c.276 0 .5.224.5.5v6c0 .276-.224.5-.5.5s-.5-.224-.5-.5v-6c0-.276.224-.5.5-.5zm3.825 8.379c.209-.18.233-.496.054-.706-.18-.209-.496-.233-.706-.053L4 14.84417l-3.174-2.722c-.21-.179-.526-.155-.706.054-.179.21-.155.526.055.706l3.499 3.001c.187.16.464.16.651 0l3.5-3.001z"/>
</svg>