<svg viewBox="0 0 32 32" fill="none" xmlns="http://www.w3.org/2000/svg">
  <path fill-rule="evenodd" clip-rule="evenodd" d="M9.5 8C8.67157 8 8 8.67157 8 9.5v6c0 .8284.67157 1.5 1.5 1.5h4c.8284 0 1.5-.6716 1.5-1.5v-6c0-.82843-.6716-1.5-1.5-1.5h-4zM9 9.5c0-.27614.22386-.5.5-.5h4c.2761 0 .5.22386.5.5v6c0 .2761-.2239.5-.5.5h-4c-.27614 0-.5-.2239-.5-.5v-6zm.5 9.5c-.82843 0-1.5.6716-1.5 1.5v2c0 .8284.67157 1.5 1.5 1.5h4c.8284 0 1.5-.6716 1.5-1.5v-2c0-.8284-.6716-1.5-1.5-1.5h-4zM9 20.5c0-.2761.22386-.5.5-.5h4c.2761 0 .5.2239.5.5v2c0 .2761-.2239.5-.5.5h-4c-.27614 0-.5-.2239-.5-.5v-2zm8-11c0-.82843.6716-1.5 1.5-1.5h4c.8284 0 1.5.67157 1.5 1.5v3c0 .8284-.6716 1.5-1.5 1.5h-4c-.8284 0-1.5-.6716-1.5-1.5v-3zm1.5-.5c-.2761 0-.5.22386-.5.5v3c0 .2761.2239.5.5.5h4c.2761 0 .5-.2239.5-.5v-3c0-.27614-.2239-.5-.5-.5h-4zm0 7c-.8284 0-1.5.6716-1.5 1.5v5c0 .8284.6716 1.5 1.5 1.5h4c.8284 0 1.5-.6716 1.5-1.5v-5c0-.8284-.6716-1.5-1.5-1.5h-4zm-.5 1.5c0-.2761.2239-.5.5-.5h4c.2761 0 .5.2239.5.5v5c0 .2761-.2239.5-.5.5h-4c-.2761 0-.5-.2239-.5-.5v-5z" fill="currentColor"/>
</svg>
