<svg viewBox="0 0 16 16" xmlns="http://www.w3.org/2000/svg" fill-rule="evenodd" clip-rule="evenodd" stroke-linejoin="round" stroke-miterlimit="2">
  <path fill="currentColor" d="M1.5 0C.672 0 0 .672 0 1.5v6C0 8.328.672 9 1.5 9h4C6.328 9 7 8.328 7 7.5v-6C7 .672 6.328 0 5.5 0h-4zM1 1.5c0-.276.224-.5.5-.5h4c.276 0 .5.224.5.5v6c0 .276-.224.5-.5.5h-4c-.276 0-.5-.224-.5-.5v-6zm.5 9.5c-.828 0-1.5.672-1.5 1.5v2c0 .828.672 1.5 1.5 1.5h4c.828 0 1.5-.672 1.5-1.5v-2c0-.828-.672-1.5-1.5-1.5h-4zM1 12.5c0-.276.224-.5.5-.5h4c.276 0 .5.224.5.5v2c0 .276-.224.5-.5.5h-4c-.276 0-.5-.224-.5-.5v-2zm8-11C9 .672 9.672 0 10.5 0h4c.828 0 1.5.672 1.5 1.5v3c0 .828-.672 1.5-1.5 1.5h-4C9.672 6 9 5.328 9 4.5v-3zm1.5-.5c-.276 0-.5.224-.5.5v3c0 .276.224.5.5.5h4c.276 0 .5-.224.5-.5v-3c0-.276-.224-.5-.5-.5h-4zm0 7C9.672 8 9 8.672 9 9.5v5c0 .828.672 1.5 1.5 1.5h4c.828 0 1.5-.672 1.5-1.5v-5c0-.828-.672-1.5-1.5-1.5h-4zM10 9.5c0-.276.224-.5.5-.5h4c.276 0 .5.224.5.5v5c0 .276-.224.5-.5.5h-4c-.276 0-.5-.224-.5-.5v-5z"/>
</svg>
