<svg viewBox="0 0 15 16" xmlns="http://www.w3.org/2000/svg" fill-rule="evenodd" clip-rule="evenodd" stroke-linejoin="round" stroke-miterlimit="2">
  <path fill="currentColor" d="M1 .5C1 .224.776 0 .5 0S0 .224 0 .5v15c0 .276.224.5.5.5s.5-.224.5-.5V.5zM14.5 0c.276 0 .5.224.5.5v15c0 .276-.224.5-.5.5s-.5-.224-.5-.5V.5c0-.276.224-.5.5-.5zM6.795 4.493c.109-.296.388-.493.7-.493.312 0 .591.196.7.492l2.525 6.867c.114.31-.113.641-.44.641-.198 0-.375-.126-.441-.315l-.668-1.886H5.829l-.667 1.886c-.067.189-.244.315-.442.315-.327 0-.554-.33-.44-.641l2.515-6.866zm2.063 4.412L7.83 6.022l-.306-.84c-.004-.012-.016-.02-.029-.02-.013 0-.025.008-.029.021l-.295.839-1.028 2.883h2.715z"/>
</svg>