<svg viewBox="0 0 16 15" xmlns="http://www.w3.org/2000/svg" fill-rule="evenodd" clip-rule="evenodd" stroke-linejoin="round" stroke-miterlimit="2">
  <path fill="currentColor" d="M15.5 1c.276 0 .5-.224.5-.5s-.224-.5-.5-.5H.5C.224 0 0 .224 0 .5s.224.5.5.5h15zM7.295 3.993c.109-.296.388-.493.701-.493.312 0 .591.196.699.492l2.525 6.867c.114.31-.112.641-.439.641-.198 0-.375-.126-.442-.315l-.667-1.886H6.33l-.668 1.886c-.066.189-.243.315-.442.315-.327 0-.554-.33-.44-.641l2.515-6.866zm2.063 4.412L8.331 5.522l-.307-.84c-.004-.012-.016-.02-.029-.02-.013 0-.024.008-.029.021l-.295.839-1.028 2.883h2.715zM16 14.5c0 .276-.224.5-.5.5H.5c-.276 0-.5-.224-.5-.5s.224-.5.5-.5h15c.276 0 .5.224.5.5z"/>
</svg>