<svg viewBox="0 0 32 32" fill="none" xmlns="http://www.w3.org/2000/svg">
  <path fill-rule="evenodd" clip-rule="evenodd" d="M23.5 9.5c.2761 0 .5-.22386.5-.5s-.2239-.5-.5-.5h-15c-.27614 0-.5.22386-.5.5s.22386.5.5.5h15zm-8.2047 2.9933c.1087-.2966.388-.4933.7002-.4933.312 0 .591.1963.6999.4924l2.5249 6.8664c.1142.3106-.1125.6412-.4397.6412-.1981 0-.3749-.1261-.4417-.315l-.6673-1.8861h-3.342l-.6671 1.8858c-.0669.1891-.2439.3153-.4422.3153-.3272 0-.5541-.3305-.4403-.6412l2.5153-6.8655zm2.0626 4.4117l-1.0274-2.8827-.3062-.8399c-.0045-.0123-.016-.0204-.029-.0204-.013 0-.0247.0083-.029.0207l-.2956.8396-1.0274 2.8827h2.7146zM24 23c0 .2761-.2239.5-.5.5h-15c-.27614 0-.5-.2239-.5-.5s.22386-.5.5-.5h15c.2761 0 .5.2239.5.5z" fill="currentColor"/>
</svg>
