<svg viewBox="0 0 18 16" xmlns="http://www.w3.org/2000/svg" fill-rule="evenodd" clip-rule="evenodd" stroke-linejoin="round" stroke-miterlimit="2">
  <path fill="currentColor" d="M17 1H1v14h.721l2.842-4.617c.492-.801 1.591-.956 2.286-.323l.818.743c.229.209.59.161.757-.1l2.519-3.939c.637-.997 2.124-.897 2.623.175L17 14.315V1zm-.784 14H2.895l2.519-4.093c.164-.267.531-.319.763-.108l.817.744c.687.625 1.772.481 2.273-.302l2.518-3.938c.213-.332.708-.299.875.058L16.216 15zM1 16h16c.552 0 1-.448 1-1V1c0-.552-.448-1-1-1H1C.448 0 0 .448 0 1v14c0 .552.448 1 1 1zM3.5 5c0-.828.672-1.5 1.5-1.5s1.5.672 1.5 1.5S5.828 6.5 5 6.5 3.5 5.828 3.5 5zM5 2.5C3.619 2.5 2.5 3.619 2.5 5S3.619 7.5 5 7.5 7.5 6.381 7.5 5 6.381 2.5 5 2.5z"/>
</svg>