<svg viewBox="0 0 14 15" xmlns="http://www.w3.org/2000/svg" fill-rule="evenodd" clip-rule="evenodd" stroke-linejoin="round" stroke-miterlimit="2">
  <path fill="currentColor" d="M11.785.089c.227.157.283.469.126.696l-9 13c-.157.227-.469.283-.696.126-.227-.157-.283-.468-.126-.696l9-13c.157-.227.469-.283.696-.126zM3 5.5c1.105 0 2-.895 2-2 0-1.104-.895-2-2-2s-2 .896-2 2c0 1.105.895 2 2 2zm0 1c1.657 0 3-1.343 3-3s-1.343-3-3-3-3 1.343-3 3 1.343 3 3 3zm10 4c0 1.105-.895 2-2 2s-2-.895-2-2 .895-2 2-2 2 .895 2 2zm1 0c0 1.657-1.343 3-3 3s-3-1.343-3-3 1.343-3 3-3 3 1.343 3 3z"/>
</svg>