<svg viewBox="0 0 16 16" fill="none" xmlns="http://www.w3.org/2000/svg">
  <path fill-rule="evenodd" clip-rule="evenodd" d="M15 8c0 3.866-3.134 7-7 7-3.86599 0-7-3.134-7-7 0-3.86599 3.13401-7 7-7 3.866 0 7 3.13401 7 7zm1 0c0 4.4183-3.5817 8-8 8-4.41828 0-8-3.5817-8-8 0-4.41828 3.58172-8 8-8 4.4183 0 8 3.58172 8 8zm-5 0c0 1.65685-1.34315 3-3 3S5 9.65685 5 8s1.34315-3 3-3 3 1.34315 3 3zm1 0c0 2.2091-1.7909 4-4 4-2.20914 0-4-1.7909-4-4 0-2.20914 1.79086-4 4-4 2.2091 0 4 1.79086 4 4z" fill="currentColor"/>
</svg>
