<svg viewBox="0 0 24 16" fill="none" xmlns="http://www.w3.org/2000/svg">
  <path fill-rule="evenodd" clip-rule="evenodd" d="M4.35357.85354c.19525-.19527.19524-.511852-.00003-.707107-.19527-.1952545-.51185-.1952425-.70711.000027L.146433 3.64672C.0526686 3.7405-.000005 3.86768 0 4.00028c.000005.13261.0526882.25979.14646.35355l3.5 3.49974c.19527.19525.51185.19524.70711-.00003.19525-.19527.19524-.51185-.00003-.70711L1.70715 4.50025l11.79265-.00001c.2762 0 .5-.22385.5-.5 0-.27614-.2238-.5-.5-.5l-11.79274.00001L4.35357.85354zM19.6463 8.85354c-.1953-.19527-.1953-.51185 0-.70711.1952-.19525.5118-.19524.7071.00003l3.5 3.50024c.0937.0938.1464.221.1464.3536 0 .1326-.0527.2598-.1464.3535l-3.5 3.4998c-.1953.1952-.5119.1952-.7071-.0001-.1953-.1952-.1953-.5118 0-.7071l2.6464-2.6462H10.5c-.2761 0-.5-.2238-.5-.5 0-.2761.2239-.5.5-.5h11.7928l-2.6465-2.64666z" fill="currentColor"/>
</svg>
