<svg viewBox="0 0 18 18" fill="none" xmlns="http://www.w3.org/2000/svg">
  <path fill-rule="evenodd" clip-rule="evenodd" d="M17.5 1c0-.276142-.2239-.5-.5-.5s-.5.223858-.5.5v4.84899C15.1055 2.97825 12.12 1 8.66915 1 3.89122 1 0 4.79577 0 9.5 0 14.2042 3.89122 18 8.66915 18c1.16699 0 2.28145-.2263 3.29925-.6373 1.0932-.4415 2.0742-1.0957 2.8893-1.9102l-.7069-.7073c-.7208.7203-1.589 1.2994-2.5568 1.6902-.9005.3636-1.888.5646-2.92485.5646C4.42368 17 1 13.6323 1 9.5 1 5.36768 4.42368 2 8.66915 2c3.14915 0 5.84915 1.8549 7.03105 4.5H11c-.2761 0-.5.22386-.5.5s.2239.5.5.5h6c.2761 0 .5-.22386.5-.5V1z" fill="currentColor"/>
</svg>
