<svg viewBox="0 0 32 32" fill="none" xmlns="http://www.w3.org/2000/svg">
  <path fill-rule="evenodd" clip-rule="evenodd" d="M25.5 7c.8284 0 1.5.67157 1.5 1.5v1c0 .8284-.6716 1.5-1.5 1.5h-11c-.8284 0-1.5-.6716-1.5-1.5v-1c0-.82843.6716-1.5 1.5-1.5h11zM21.5 14c.8284 0 1.5.6716 1.5 1.5v1c0 .8284-.6716 1.5-1.5 1.5h-11c-.82843 0-1.5-.6716-1.5-1.5v-1c0-.8284.67157-1.5 1.5-1.5h11zM17.5 21c.8284 0 1.5.6716 1.5 1.5v1c0 .8284-.6716 1.5-1.5 1.5h-11c-.82843 0-1.5-.6716-1.5-1.5v-1c0-.8284.67157-1.5 1.5-1.5h11z" fill="currentColor"/>
</svg>
