<svg viewBox="0 0 22 18" fill="none" xmlns="http://www.w3.org/2000/svg">
  <path fill-rule="evenodd" clip-rule="evenodd" d="M1.5 0C.671573 0 0 .671573 0 1.5v1C0 3.32843.671573 4 1.5 4h11c.8284 0 1.5-.67157 1.5-1.5v-1c0-.828427-.6716-1.5-1.5-1.5h-11zM5.5 7C4.67157 7 4 7.67157 4 8.5v1c0 .8284.67157 1.5 1.5 1.5h11c.8284 0 1.5-.6716 1.5-1.5v-1c0-.82843-.6716-1.5-1.5-1.5h-11zM9.5 14c-.82843 0-1.5.6716-1.5 1.5v1c0 .8284.67157 1.5 1.5 1.5h11c.8284 0 1.5-.6716 1.5-1.5v-1c0-.8284-.6716-1.5-1.5-1.5h-11z" fill="currentColor"/>
</svg>
