<svg viewBox="0 0 14 12" xmlns="http://www.w3.org/2000/svg" fill-rule="evenodd" clip-rule="evenodd" stroke-linejoin="round" stroke-miterlimit="2">
  <path fill="currentColor" d="M4.503.826C5.197.279 6.125 0 7.106 0c.968 0 1.871.237 2.563.769.704.54 1.142 1.35 1.228 2.389.023.276-.181.517-.457.54-.275.023-.516-.182-.539-.457-.065-.786-.382-1.327-.841-1.679C8.589 1.2 7.921 1 7.106 1c-.801 0-1.499.229-1.985.611-.475.375-.766.908-.766 1.589 0 .6.265 1.006.613 1.3H3.684c-.2-.355-.329-.785-.329-1.3 0-1.003.444-1.82 1.148-2.374zM9.578 7.5h1.183c.15.332.239.72.239 1.173 0 1.016-.402 1.87-1.138 2.459-.724.579-1.726.868-2.886.868-1.174 0-2.117-.322-2.799-.91-.683-.588-1.058-1.401-1.173-2.292-.035-.274.158-.525.432-.56.274-.035.524.158.56.432.089.693.37 1.263.833 1.662.463.399 1.157.668 2.147.668 1.005 0 1.764-.251 2.261-.649.485-.387.763-.946.763-1.678 0-.523-.169-.894-.422-1.173zM.5 5.5c-.276 0-.5.224-.5.5s.224.5.5.5h13c.276 0 .5-.224.5-.5s-.224-.5-.5-.5H.5z"/>
</svg>
