<svg viewBox="0 0 19 12" xmlns="http://www.w3.org/2000/svg" fill-rule="evenodd" clip-rule="evenodd" stroke-linejoin="round" stroke-miterlimit="2">
  <path fill="currentColor" d="M1.5 1c-.276 0-.5.224-.5.5v.711c0 .276-.224.5-.5.5s-.5-.224-.5-.5V1.5C0 .672.672 0 1.5 0h7c.828 0 1.5.672 1.5 1.5v.711c0 .276-.224.5-.5.5s-.5-.224-.5-.5V1.5c0-.276-.224-.5-.5-.5h-3v10h1.3c.276 0 .5.224.5.5s-.224.5-.5.5H3.2c-.276 0-.5-.224-.5-.5s.224-.5.5-.5h1.3V1h-3zM11 5.5c0-.276.224-.5.5-.5h3V2c0-.276.224-.5.5-.5s.5.224.5.5v3h3c.276 0 .5.224.5.5s-.224.5-.5.5h-3v3c0 .276-.224.5-.5.5s-.5-.224-.5-.5V6h-3c-.276 0-.5-.224-.5-.5z"/>
</svg>