<svg viewBox="0 0 18 12" xmlns="http://www.w3.org/2000/svg" fill-rule="evenodd" clip-rule="evenodd" stroke-linejoin="round" stroke-miterlimit="2">
  <path fill="currentColor" d="M14.354.146c-.048-.047-.104-.084-.163-.108C14.132.014 14.068 0 14 0s-.132.014-.191.038-.115.061-.163.108l-3 3c-.195.196-.195.512 0 .708.196.195.512.195.708 0L13.5 1.707v8.586l-2.146-2.147c-.196-.195-.512-.195-.708 0-.195.196-.195.512 0 .708l3 3c.048.048.104.084.163.108.058.024.121.038.188.038h.006c.134-.001.255-.054.344-.14l.007-.007 3-2.999c.195-.196.195-.512 0-.708-.196-.195-.512-.195-.708 0L14.5 10.293V1.707l2.146 2.147c.196.195.512.195.708 0 .195-.196.195-.512 0-.708l-3-3zM.5 0C.224 0 0 .224 0 .5s.224.5.5.5H4v10.5c0 .276.224.5.5.5s.5-.224.5-.5V1h3.5c.276 0 .5-.224.5-.5S8.776 0 8.5 0h-8z"/>
</svg>