<svg width="32" height="32" viewBox="0 0 32 32" fill="none" xmlns="http://www.w3.org/2000/svg">
<path d="M10.8403 12.5H21.1597C21.9399 12.5 22.5898 13.098 22.6546 13.8754L23.3212 21.8754C23.3941 22.75 22.704 23.5 21.8264 23.5H10.1736C9.29604 23.5 8.6059 22.75 8.67878 21.8754L9.34545 13.8754C9.41023 13.098 10.0601 12.5 10.8403 12.5Z" stroke="#E4E5E6"/>
<path d="M12 14C12 14.2761 12.2239 14.5 12.5 14.5C12.7761 14.5 13 14.2761 13 14H12ZM19 14C19 14.2761 19.2239 14.5 19.5 14.5C19.7761 14.5 20 14.2761 20 14H19ZM13 11.6923C13 9.90371 14.368 8.5 16 8.5V7.5C13.766 7.5 12 9.4025 12 11.6923H13ZM16 8.5C17.632 8.5 19 9.90371 19 11.6923H20C20 9.4025 18.234 7.5 16 7.5V8.5ZM12 11.6923V14H13V11.6923H12ZM19 11.6923V14H20V11.6923H19Z" fill="#E4E5E6"/>
</svg>
