<svg width="32" height="32" viewBox="0 0 32 32" fill="none" xmlns="http://www.w3.org/2000/svg">
<path fill-rule="evenodd" clip-rule="evenodd" d="M7.84881 15.8458C9.68558 14.0574 12.0123 13 14.5345 13C18.2909 13 21.7786 15.3892 23.6967 19H17.3272C17.051 19 16.8272 19.2239 16.8272 19.5C16.8272 19.7761 17.051 20 17.3272 20H24.4893C24.5621 20.0016 24.6364 19.9873 24.7071 19.9551C24.8988 19.8679 25.0088 19.6748 24.9996 19.4766V12.5C24.9996 12.2239 24.7757 12 24.4996 12C24.2234 12 23.9996 12.2239 23.9996 12.5V17.5419C21.8516 14.209 18.3597 12 14.5345 12C11.7199 12 9.15056 13.1826 7.15119 15.1294C6.95334 15.322 6.94912 15.6386 7.14176 15.8364C7.33441 16.0343 7.65096 16.0385 7.84881 15.8458Z" fill="currentColor"/>
</svg>
