<svg width="32" height="32" viewBox="0 0 32 32" fill="none" xmlns="http://www.w3.org/2000/svg">
<path fill-rule="evenodd" clip-rule="evenodd" d="M7.00098 19.4667V12.5C7.00098 12.2239 7.22483 12 7.50098 12C7.77712 12 8.00098 12.2239 8.00098 12.5V17.541C10.149 14.2086 13.6406 12 17.4654 12C20.28 12 22.8492 13.1826 24.8486 15.1294C25.0464 15.322 25.0506 15.6386 24.858 15.8364C24.6654 16.0343 24.3488 16.0385 24.151 15.8458C22.3142 14.0574 19.9875 13 17.4654 13C13.7091 13 10.2213 15.3892 8.30332 19H14.6733C14.9494 19 15.1733 19.2239 15.1733 19.5C15.1733 19.7761 14.9494 20 14.6733 20H7.51073C7.43792 20.0016 7.36363 19.9873 7.29291 19.9551C7.09806 19.8664 6.98754 19.6683 7.00098 19.4667Z" fill="currentColor"/>
</svg>
