<svg width="34" height="34" viewBox="0 0 34 34" fill="none" xmlns="http://www.w3.org/2000/svg">
  <rect x="1" y="1" width="32" height="32" rx="16" stroke="#5E615C" stroke-linecap="round" stroke-linejoin="round" stroke-dasharray="4 6"/>
  <path fill-rule="evenodd" clip-rule="evenodd" d="M17.498 9.5C17.498 9.22386 17.2742 9 16.998 9C16.7219 9 16.498 9.22386 16.498 9.5V16.4979H9.5C9.22386 16.4979 9 16.7218 9 16.9979C9 17.2741 9.22386 17.4979 9.5 17.4979H16.498V24.4958C16.498 24.772 16.7219 24.9958 16.998 24.9958C17.2742 24.9958 17.498 24.772 17.498 24.4958V17.4979H24.4958C24.772 17.4979 24.9958 17.2741 24.9958 16.9979C24.9958 16.7218 24.772 16.4979 24.4958 16.4979H17.498V9.5Z" fill="white"/>
</svg>
