<svg width="32" height="32" viewBox="0 0 32 32" fill="none" xmlns="http://www.w3.org/2000/svg">
<path fill-rule="evenodd" clip-rule="evenodd" d="M19.1482 12.1464C19.3434 11.9512 19.66 11.9512 19.8553 12.1464C20.0505 12.3417 20.0505 12.6583 19.8553 12.8536L16.708 16.0008L19.8561 19.149C20.0514 19.3443 20.0514 19.6609 19.8561 19.8561C19.6609 20.0514 19.3443 20.0514 19.149 19.8561L16.0009 16.7079L12.8536 19.8553C12.6583 20.0505 12.3417 20.0505 12.1464 19.8553C11.9512 19.66 11.9512 19.3434 12.1464 19.1482L15.2938 16.0008L12.1473 12.8544C11.9521 12.6591 11.9521 12.3426 12.1473 12.1473C12.3426 11.952 12.6592 11.952 12.8544 12.1473L16.0009 15.2937L19.1482 12.1464Z" fill="currentColor"/>
</svg>
