<svg fill="none" height="18" viewBox="0 0 24 18" width="24" xmlns="http://www.w3.org/2000/svg"><path clip-rule="evenodd" d="m21.334.832031h-18.66668c-1.28334 0-2.321669 1.049999-2.321669 2.333329l-.011667 11.66664c0 1.2834 1.049996 2.3334 2.333336 2.3334h18.66668c1.2833 0 2.3333-1.05 2.3333-2.3334v-11.66664c0-1.28333-1.05-2.333329-2.3333-2.333329zm0 2.333329v11.66664h-18.66668v-11.66664zm-8.1667 1.16667h-2.3333v2.33333h2.3333zm-2.3333 3.5h2.3333v2.33337h-2.3333zm-1.16668-3.5h-2.33334v2.33333h2.33334zm-2.33334 3.5h2.33334v2.33337h-2.33334zm-1.16666 0h-2.33334v2.33337h2.33334zm-2.33334-3.5h2.33334v2.33333h-2.33334zm12.83332 6.99997h-9.33332v2.3334h9.33332zm-2.3333-3.49997h2.3333v2.33337h-2.3333zm2.3333-3.5h-2.3333v2.33333h2.3333zm1.1667 3.5h2.3333v2.33337h-2.3333zm2.3333-3.5h-2.3333v2.33333h2.3333z" fill="#fff" fill-rule="evenodd"/></svg>