<svg width="32" height="32" viewBox="0 0 32 32" fill="none" xmlns="http://www.w3.org/2000/svg">
<path fill-rule="evenodd" clip-rule="evenodd" d="M25.9962 15H14L14 25.4411H14.2645L16.3123 22.1141C16.805 21.3137 17.9039 21.1583 18.5991 21.7908L18.841 22.0109C19.0702 22.2194 19.4318 22.1715 19.5988 21.9105L21.1969 19.4114C21.8344 18.4146 23.3211 18.5138 23.8205 19.5865L25.9962 24.2604V15ZM25.9962 26.4411C26.0617 26.4411 26.1256 26.4348 26.1875 26.4228H26.2186C26.3756 26.4228 26.5226 26.3492 26.6166 26.2255C26.8479 26.0423 26.9962 25.759 26.9962 25.4411V15C26.9962 14.4477 26.5485 14 25.9962 14H14C13.4477 14 13 14.4477 13 15V25.4411C13 25.9934 13.4477 26.4411 14 26.4411H25.9962ZM22.9139 20.0085C22.7474 19.651 22.2518 19.6179 22.0394 19.9502L20.4412 22.4492C19.9405 23.2322 18.8555 23.3761 18.1681 22.7506L17.9262 22.5305C17.6944 22.3197 17.3281 22.3715 17.1639 22.6383L15.45 25.4228H25.4343L22.9139 20.0085ZM15.8326 17.8879C15.8326 17.3051 16.305 16.8327 16.8877 16.8327C17.4705 16.8327 17.9429 17.3051 17.9429 17.8879C17.9429 18.4706 17.4705 18.943 16.8877 18.943C16.305 18.943 15.8326 18.4706 15.8326 17.8879ZM16.8877 15.8327C15.7527 15.8327 14.8326 16.7529 14.8326 17.8879C14.8326 19.0229 15.7527 19.943 16.8877 19.943C18.0228 19.943 18.9429 19.0229 18.9429 17.8879C18.9429 16.7529 18.0228 15.8327 16.8877 15.8327Z" fill="currentColor"/>
<path fill-rule="evenodd" clip-rule="evenodd" d="M7 9H17V10.7273H18V9C18 8.44771 17.5523 8 17 8H7C6.44772 8 6 8.44771 6 9V17C6 17.5523 6.44772 18 7 18H8.76924V17H7L7 9Z" fill="currentColor"/>
<path d="M22.5711 6L20 8.53854M20 8.53854L22.5711 11.0771M20 8.53854L23.2309 8.53853C24.7603 8.53853 26 9.77838 26 11.3078L26 12" stroke="currentColor" stroke-miterlimit="10" stroke-linecap="round" stroke-linejoin="round"/>
<path d="M8.42892 26L11 23.4615M11 23.4615L8.42892 20.9229M11 23.4615L7.7691 23.4615C6.23973 23.4615 4.99995 22.2216 5 20.6922L5.00002 20" stroke="currentColor" stroke-miterlimit="10" stroke-linecap="round" stroke-linejoin="round"/>
</svg>
