<svg viewBox="0 0 16 16" xmlns="http://www.w3.org/2000/svg">
  <path fill-rule="evenodd" clip-rule="evenodd" d="M1 6.63631C1 3.52346 3.52346 1 6.63631 1C9.74916 1 12.2726 3.52346 12.2726 6.63631C12.2726 8.17708 11.6544 9.57345 10.6525 10.5909C10.6413 10.6002 10.6305 10.6101 10.6201 10.6206C10.6096 10.631 10.5998 10.6418 10.5904 10.6529C9.57304 11.6546 8.17685 12.2726 6.63631 12.2726C3.52346 12.2726 1 9.74916 1 6.63631ZM10.9618 11.6694C9.80019 12.6687 8.28878 13.2726 6.63631 13.2726C2.97118 13.2726 0 10.3014 0 6.63631C0 2.97118 2.97118 0 6.63631 0C10.3014 0 13.2726 2.97118 13.2726 6.63631C13.2726 8.28903 12.6685 9.80065 11.669 10.9623L15.8524 15.1458C16.0476 15.341 16.0476 15.6576 15.8524 15.8529C15.6571 16.0481 15.3405 16.0481 15.1453 15.8529L10.9618 11.6694Z"/>
</svg>
