<svg viewBox="0 0 18 16" xmlns="http://www.w3.org/2000/svg" fill-rule="evenodd" clip-rule="evenodd" stroke-linejoin="round" stroke-miterlimit="2">
  <path fill="currentColor" d="M6.5 3.5C6.5 4.881 7.619 6 9 6s2.5-1.119 2.5-2.5S10.381 1 9 1 6.5 2.119 6.5 3.5zM9 0C7.067 0 5.5 1.567 5.5 3.5S7.067 7 9 7s3.5-1.567 3.5-3.5S10.933 0 9 0zm3.868 9.134c.521-.845 1.742-.845 2.265 0l2.664 4.313c.548.886-.075 2.053-1.132 2.053h-5.33c-1.056 0-1.68-1.167-1.132-2.053l2.665-4.313zm1.414.525c-.131-.212-.433-.212-.564 0l-2.665 4.313c-.146.238.029.528.282.528h5.33c.253 0 .428-.29.282-.528l-2.665-4.313zM3.436 9.042l3.408 1.968c.149.086.2.277.114.426L4.99 14.844c-.086.149-.276.2-.426.114L1.156 12.99c-.149-.086-.2-.276-.114-.426L3.01 9.156c.086-.149.277-.2.426-.114zm-1.292-.386c.362-.627 1.164-.842 1.792-.48l3.408 1.968c.627.362.842 1.164.48 1.792l-1.968 3.408c-.362.627-1.164.842-1.792.48L.656 13.856c-.627-.362-.842-1.164-.48-1.792l1.968-3.408z"/>
</svg>
