<svg width="28" height="28" viewBox="0 0 28 28" fill="none" xmlns="http://www.w3.org/2000/svg">
<path fill-rule="evenodd" clip-rule="evenodd" d="M21.35 12.04C20.67 8.59 17.64 6 14 6C11.11 6 8.6 7.64 7.35 10.04C4.34 10.36 2 12.91 2 16C2 19.31 4.69 22 8 22H21C23.76 22 26 19.76 26 17C26 14.36 23.95 12.22 21.35 12.04ZM21 20H8C5.79 20 4 18.21 4 16C4 13.95 5.53 12.24 7.56 12.03L8.63 11.92L9.13 10.97C10.08 9.14 11.94 8 14 8C16.62 8 18.88 9.86 19.39 12.43L19.69 13.93L21.22 14.04C22.78 14.14 24 15.45 24 17C24 18.65 22.65 20 21 20ZM12.55 15H10L14 11L18 15H15.45V18H12.55V15Z" fill="currentColor"/>
</svg>
