
<svg viewBox="0 0 15 15" xmlns="http://www.w3.org/2000/svg" fill-rule="evenodd" clip-rule="evenodd" stroke-linejoin="round" stroke-miterlimit="2">
  <path d="M9.172 3.079l-7.514 7.514c-.07.07-.118.159-.137.256l-.51 2.552c-.07.35.238.658.588.588l2.552-.51c.097-.02.186-.067.256-.137l7.514-7.515-2.749-2.749zm3.347-2.64c-.586-.585-1.536-.585-2.122 0L.951 9.886c-.21.209-.353.476-.411.766l-.51 2.553c-.21 1.049.715 1.975 1.765 1.765l2.552-.511c.291-.058.557-.201.767-.41l9.446-9.447c.586-.585.586-1.535 0-2.121L12.519.439z" fill="currentColor" />
</svg>