<svg viewBox="0 0 21 18" fill="none" xmlns="http://www.w3.org/2000/svg">
  <path d="M1 2c0-.55228.44772-1 1-1h3c.55228 0 1 .44772 1 1v5c0 .55228-.44772 1-1 1H2c-.55228 0-1-.44772-1-1V2zM1 11c0-.5523.44772-1 1-1h3c.55228 0 1 .4477 1 1v5c0 .5523-.44772 1-1 1H2c-.55228 0-1-.4477-1-1v-5zM8 2c0-.55228.44772-1 1-1h3c.5523 0 1 .44772 1 1v5c0 .55228-.4477 1-1 1H9c-.55228 0-1-.44772-1-1V2zM15 2c0-.55228.4477-1 1-1h3c.5523 0 1 .44772 1 1v5c0 .55228-.4477 1-1 1h-3c-.5523 0-1-.44772-1-1V2zM8 11c0-.5523.44772-1 1-1h3c.5523 0 1 .4477 1 1v5c0 .5523-.4477 1-1 1H9c-.55228 0-1-.4477-1-1v-5zM15 11c0-.5523.4477-1 1-1h3c.5523 0 1 .4477 1 1v5c0 .5523-.4477 1-1 1h-3c-.5523 0-1-.4477-1-1v-5z" stroke="currentColor" stroke-linecap="round" stroke-linejoin="round"/>
</svg>
