<svg viewBox="0 0 15 17" xmlns="http://www.w3.org/2000/svg" fill-rule="evenodd" clip-rule="evenodd" stroke-linecap="round" stroke-linejoin="round">
  <g fill="none" stroke="currentColor">
    <path d="M5.5 1.5c0-.552-.448-1-1-1h-3c-.552 0-1 .448-1 1v4c0 .552.448 1 1 1h3c.552 0 1-.448 1-1v-4zM5.5 11.5c0-.552-.448-1-1-1h-3c-.552 0-1 .448-1 1v4c0 .552.448 1 1 1h3c.552 0 1-.448 1-1v-4zM14.5 1.5c0-.552-.448-1-1-1h-3c-.552 0-1 .448-1 1v4c0 .552.448 1 1 1h3c.552 0 1-.448 1-1v-4zM14.5 11.5c0-.552-.448-1-1-1h-3c-.552 0-1 .448-1 1v4c0 .552.448 1 1 1h3c.552 0 1-.448 1-1v-4z"/>
  </g>
</svg>
