<svg viewBox="0 0 16 14" fill="none" xmlns="http://www.w3.org/2000/svg">
  <path fill-rule="evenodd" clip-rule="evenodd" d="M1.5 0C.671573 0 0 .671573 0 1.5v11c0 .8284.671573 1.5 1.5 1.5h4c.82843 0 1.5-.6716 1.5-1.5v-11C7 .671573 6.32843 0 5.5 0h-4zM1 1.5c0-.27614.22386-.5.5-.5h4c.27614 0 .5.22386.5.5v11c0 .2761-.22386.5-.5.5h-4c-.27614 0-.5-.2239-.5-.5v-11zM10.5 0C9.67157 0 9 .671573 9 1.5v11c0 .8284.67157 1.5 1.5 1.5h4c.8284 0 1.5-.6716 1.5-1.5v-11c0-.828427-.6716-1.5-1.5-1.5h-4zM10 1.5c0-.27614.2239-.5.5-.5h4c.2761 0 .5.22386.5.5v11c0 .2761-.2239.5-.5.5h-4c-.2761 0-.5-.2239-.5-.5v-11z" fill="currentColor"/>
</svg>
