
<svg viewBox="0 0 17 16" xmlns="http://www.w3.org/2000/svg" fill-rule="evenodd" clip-rule="evenodd" stroke-linejoin="round" stroke-miterlimit="2">
  <path fill="currentColor" d="M2.643 1c-.436 0-.854.173-1.162.481C1.173 1.789 1 2.207 1 2.643c0 .435.173.853.481 1.161.308.308.726.482 1.162.482h1.643V2.643c0-.436-.173-.854-.482-1.162C3.496 1.173 3.079 1 2.643 1zM.774.774C1.27.278 1.942 0 2.643 0c.701 0 1.373.278 1.869.774.495.496.774 1.168.774 1.869v1.643h5.429V2.643c0-.701.279-1.373.774-1.869C11.985.279 12.657 0 13.358 0c.701 0 1.373.279 1.869.774.495.496.774 1.168.774 1.869 0 .701-.279 1.373-.774 1.869-.496.496-1.168.774-1.869.774h-1.646v5.428h1.646c.701 0 1.373.279 1.869.774.495.496.774 1.168.774 1.869 0 .701-.279 1.373-.774 1.869-.496.495-1.168.774-1.869.774-.701 0-1.373-.279-1.869-.774-.495-.496-.774-1.168-.774-1.869v-1.643H5.286v1.643c0 .701-.279 1.373-.774 1.869-.496.495-1.168.774-1.869.774-.701 0-1.373-.279-1.869-.774C.279 14.73 0 14.058 0 13.357c0-.701.279-1.373.774-1.869.496-.495 1.168-.774 1.869-.774h1.641V5.286H2.643c-.701 0-1.373-.279-1.869-.774C.278 4.016 0 3.344 0 2.643 0 1.942.278 1.27.774.774zm4.51 4.512v5.428h5.428V5.286H5.284zm6.912-3.805c.308-.308.726-.481 1.162-.481.436 0 .854.173 1.162.481.308.309.481.726.481 1.162 0 .436-.173.854-.481 1.162-.308.308-.726.481-1.162.481h-1.643V2.643c0-.436.173-.853.481-1.162zM2.643 11.714c-.436 0-.853.173-1.162.481-.308.308-.481.726-.481 1.162 0 .436.173.853.481 1.162.309.308.726.481 1.162.481.436 0 .854-.173 1.162-.481.308-.309.481-.726.481-1.162v-1.643H2.643zm9.072 1.643v-1.643h1.643c.436 0 .854.173 1.162.481.308.308.481.726.481 1.162 0 .436-.173.853-.481 1.162-.308.308-.726.481-1.162.481-.436 0-.853-.173-1.162-.481-.308-.309-.481-.726-.481-1.162z"/>
</svg>