<svg viewBox="0 0 12 16" xmlns="http://www.w3.org/2000/svg" fill-rule="evenodd" clip-rule="evenodd" stroke-linejoin="round" stroke-miterlimit="2">
  <path fill="currentColor" d="M6 0C4.343 0 3 1.343 3 3v3H1.5C.672 6 0 6.672 0 7.5v7c0 .828.672 1.5 1.5 1.5h9c.828 0 1.5-.672 1.5-1.5v-7c0-.828-.672-1.5-1.5-1.5H9V3c0-1.657-1.343-3-3-3zm2 6V3c0-1.105-.895-2-2-2s-2 .895-2 2v3h4zm2.5 1h-9c-.276 0-.5.224-.5.5v7c0 .276.224.5.5.5h9c.276 0 .5-.224.5-.5v-7c0-.276-.224-.5-.5-.5zM6 12.5c.828 0 1.5-.672 1.5-1.5S6.828 9.5 6 9.5s-1.5.672-1.5 1.5.672 1.5 1.5 1.5z"/>
</svg>
