<svg viewBox="0 0 32 32" fill="none" xmlns="http://www.w3.org/2000/svg">
  <path fill-rule="evenodd" clip-rule="evenodd" d="M15 9c-3.3137 0-6 2.6863-6 6s2.6863 6 6 6 6-2.6863 6-6-2.6863-6-6-6zm-7 6c0-3.866 3.134-7 7-7s7 3.134 7 7c0 1.753-.6444 3.3556-1.7093 4.5836l.0629.0628 3.5 3.5001c.1953.1953.1953.5119 0 .7071-.1952.1953-.5118.1953-.7071 0l-3.5001-3.5-.0628-.0629C18.3556 21.3556 16.753 22 15 22c-3.866 0-7-3.134-7-7zm3.5-.5c-.2761 0-.5.2239-.5.5s.2239.5.5.5h7c.2761 0 .5-.2239.5-.5s-.2239-.5-.5-.5h-7z" fill="currentColor"/>
</svg>
