<svg viewBox="0 0 17 17" xmlns="http://www.w3.org/2000/svg" fill-rule="evenodd" clip-rule="evenodd" stroke-linejoin="round" stroke-miterlimit="2">
  <path fill="currentColor" d="M7 1C3.686 1 1 3.686 1 7s2.686 6 6 6 6-2.686 6-6-2.686-6-6-6zM0 7c0-3.866 3.134-7 7-7s7 3.134 7 7c0 1.753-.644 3.356-1.709 4.584l.063.062 3.5 3.501c.195.195.195.511 0 .707-.196.195-.512.195-.707 0l-3.501-3.5-.062-.063C10.356 13.356 8.753 14 7 14c-3.866 0-7-3.134-7-7zm3.5-.5c-.276 0-.5.224-.5.5s.224.5.5.5h7c.276 0 .5-.224.5-.5s-.224-.5-.5-.5h-7z"/>
</svg>