<svg viewBox="0 0 17 17" xmlns="http://www.w3.org/2000/svg" fill-rule="evenodd" clip-rule="evenodd" stroke-linejoin="round" stroke-miterlimit="2">
  <path fill="currentColor" d="M1 7c0-3.314 2.686-6 6-6s6 2.686 6 6-2.686 6-6 6-6-2.686-6-6zm6-7C3.134 0 0 3.134 0 7s3.134 7 7 7c1.753 0 3.356-.644 4.584-1.709l.062.063 3.501 3.5c.195.195.511.195.707 0 .195-.196.195-.512 0-.707l-3.5-3.501-.063-.062C13.356 10.356 14 8.753 14 7c0-3.866-3.134-7-7-7zm0 3c.276 0 .5.224.5.5v3h3c.276 0 .5.224.5.5s-.224.5-.5.5h-3v3c0 .276-.224.5-.5.5s-.5-.224-.5-.5v-3h-3c-.276 0-.5-.224-.5-.5s.224-.5.5-.5h3v-3c0-.276.224-.5.5-.5z"/>
</svg>