<svg viewBox="0 0 18 12" xmlns="http://www.w3.org/2000/svg" fill-rule="evenodd" clip-rule="evenodd" stroke-linejoin="round" stroke-miterlimit="2">
  <path fill="currentColor" d="M1.023 6.229C2.948 2.711 5.996 1 9 1c3.004 0 6.053 1.711 7.977 5.229.035.065.028.163-.007.214C14.878 9.503 11.923 11 9 11S3.122 9.503 1.03 6.443l-.413.283.413-.283c-.035-.051-.042-.149-.007-.214zm16.831-.48C15.775 1.948 12.41 0 9 0 5.59 0 2.225 1.948.146 5.749l.439.24-.439-.24c-.213.388-.193.891.059 1.259C2.466 10.314 5.717 12 9 12c3.283 0 6.534-1.686 8.795-4.992.252-.368.272-.871.059-1.259zM7 6c0-1.105.895-2 2-2s2 .895 2 2-.895 2-2 2-2-.895-2-2zm2-3C7.343 3 6 4.343 6 6s1.343 3 3 3 3-1.343 3-3-1.343-3-3-3z"/>
</svg>