<svg viewBox="0 0 32 32" fill="none" xmlns="http://www.w3.org/2000/svg">
  <path fill-rule="evenodd" clip-rule="evenodd" d="M8.02335 16.2285C9.9475 12.7111 12.9962 11 16 11c3.0037 0 6.0525 1.7111 7.9766 5.2285.0358.0653.0282.1637-.0068.2149C21.8775 19.5031 18.9227 21 16 21s-5.8775-1.4969-7.96978-4.5566l-.41273.2822.41273-.2822c-.03502-.0512-.04263-.1496-.00687-.2149zm16.83055-.48C22.7748 11.9479 19.4099 10 16 10c-3.4099 0-6.7748 1.9479-8.85396 5.7485l.43865.24-.43865-.24c-.2127.3889-.193.8913.05872 1.2594C9.46553 20.314 12.7167 22 16 22c3.2833 0 6.5344-1.686 8.7952-4.9921.2517-.3681.2714-.8705.0587-1.2594zM14 16c0-1.1046.8954-2 2-2s2 .8954 2 2-.8954 2-2 2-2-.8954-2-2zm2-3c-1.6569 0-3 1.3431-3 3s1.3431 3 3 3c1.6568 0 3-1.3431 3-3s-1.3432-3-3-3z" fill="currentColor"/>
</svg>
