<svg viewBox="0 0 16 18" fill="none" xmlns="http://www.w3.org/2000/svg">
  <path d="M4.75926 13.8c-.35796 0-.64815-.3582-.64815-.8V9.8c0-.44183.29019-.8.64815-.8h6.48144c.358 0 .6482.35817.6482.8V13" stroke="currentColor" stroke-miterlimit="10" stroke-linecap="round" stroke-linejoin="round"/>
  <path d="M13.6 17H2.4c-.3713 0-.7274-.1686-.98995-.4686C1.1475 16.2313 1 15.8243 1 15.4V2.6c0-.42435.1475-.83131.41005-1.13137C1.6726 1.16857 2.0287 1 2.4 1h8.6462c.2884 0 .5627.12448.7526.3415l2.9538 3.37573c.1595.18229.2474.41628.2474.65851V15.4c0 .4243-.1475.8313-.4101 1.1314-.2625.3-.6186.4686-.9899.4686zM10.3333 4.2002v1.6" stroke="currentColor" stroke-miterlimit="10" stroke-linecap="round" stroke-linejoin="round"/>
</svg>
