<svg viewBox="0 0 16 16" xmlns="http://www.w3.org/2000/svg" fill-rule="evenodd" clip-rule="evenodd" stroke-linejoin="round" stroke-miterlimit="2">
  <path fill="currentColor" d="M1 6.636C1 3.524 3.524 1 6.636 1c3.113 0 5.637 2.524 5.637 5.636 0 1.541-.619 2.938-1.62 3.955-.012.009-.022.019-.033.03-.01.01-.02.021-.03.032-1.017 1.002-2.413 1.62-3.954 1.62C3.524 12.273 1 9.749 1 6.636zm9.962 5.033c-1.162 1-2.673 1.604-4.326 1.604C2.971 13.273 0 10.301 0 6.636 0 2.971 2.971 0 6.636 0s6.637 2.971 6.637 6.636c0 1.653-.604 3.165-1.604 4.326l4.183 4.184c.196.195.196.512 0 .707-.195.195-.511.195-.707 0l-4.183-4.184z"/>
</svg>
