<svg viewBox="0 0 16 16" xmlns="http://www.w3.org/2000/svg" fill-rule="evenodd" clip-rule="evenodd" stroke-linejoin="round" stroke-miterlimit="2">
  <path fill="currentColor" d="M6.972 0c-.828 0-1.5.672-1.5 1.5v.453c0 .212-.148.438-.413.552-.421.181-.817.407-1.183.672-.229.167-.493.182-.675.079l-.447-.254c-.713-.404-1.618-.162-2.033.545l-.514.873c-.424.722-.175 1.652.553 2.065l.404.229c.185.105.308.346.274.634-.025.213-.038.431-.038.652 0 .221.013.438.038.652.034.288-.089.529-.274.634l-.404.229c-.728.413-.977 1.343-.553 2.065l.514.874c.415.706 1.32.948 2.033.544l.447-.254c.182-.103.446-.088.676.079.365.265.761.491 1.182.672.266.114.414.34.414.552v.453c0 .828.672 1.5 1.5 1.5h1.054c.829 0 1.5-.672 1.5-1.5v-.452c0-.213.149-.439.414-.553.421-.181.817-.407 1.183-.672.229-.166.493-.181.674-.078l.449.254c.713.405 1.618.162 2.033-.544l.514-.874c.424-.722.175-1.652-.554-2.065l-.407-.231c-.184-.104-.306-.343-.273-.629.025-.214.039-.433.039-.656 0-.221-.014-.439-.039-.652-.033-.288.09-.529.275-.634l.403-.229c.729-.413.978-1.343.554-2.065l-.514-.873c-.415-.707-1.32-.949-2.033-.545l-.447.253c-.181.103-.446.089-.676-.078-.365-.266-.761-.491-1.182-.672-.265-.114-.414-.34-.414-.552V1.5c0-.828-.671-1.5-1.5-1.5H6.972zm-.5 1.5c0-.276.224-.5.5-.5h1.054c.277 0 .5.224.5.5v.453c0 .686.46 1.231 1.02 1.471.352.151.683.34.988.562.484.351 1.172.472 1.758.139l.446-.253c.238-.135.54-.054.678.181l.513.874c.142.241.059.55-.184.688l-.404.229c-.599.34-.845 1.013-.774 1.62.021.177.032.355.032.536 0 .182-.011.362-.032.54-.071.607.176 1.276.773 1.615l.407.231c.243.138.326.448.185.688l-.514.874c-.138.235-.44.316-.678.181l-.449-.254c-.585-.332-1.271-.213-1.755.139-.306.222-.637.411-.99.562-.56.241-1.019.786-1.019 1.472v.452c0 .276-.223.5-.5.5H6.973c-.276 0-.5-.224-.5-.5v-.453c0-.686-.459-1.231-1.02-1.471-.352-.151-.683-.34-.988-.562-.483-.351-1.171-.472-1.757-.139l-.448.253c-.237.135-.539.054-.677-.181l-.514-.874c-.141-.24-.058-.55.185-.688l.403-.229c.6-.34.846-1.013.775-1.62C2.411 8.359 2.4 8.181 2.4 8c0-.181.011-.359.032-.536.071-.607-.175-1.28-.775-1.62l-.403-.229c-.243-.138-.326-.447-.185-.688l.514-.874c.138-.235.44-.316.677-.181l.448.253c.585.333 1.272.213 1.756-.139.306-.222.637-.411.99-.562.56-.241 1.018-.786 1.018-1.471V1.5zM6 8c0-.828.672-1.5 1.5-1.5S9 7.172 9 8s-.672 1.5-1.5 1.5S6 8.828 6 8zm1.5-2.5C6.119 5.5 5 6.619 5 8s1.119 2.5 2.5 2.5S10 9.381 10 8 8.881 5.5 7.5 5.5z"/>
</svg>