<svg viewBox="0 0 16 16" xmlns="http://www.w3.org/2000/svg" fill-rule="evenodd" clip-rule="evenodd" stroke-linejoin="round" stroke-miterlimit="2">
  <path fill="currentColor" d="M6 1.5c0-.276.224-.5.5-.5h3c.276 0 .5.224.5.5V3H6V1.5zM5 3H.5c-.276 0-.5.224-.5.5s.224.5.5.5h15c.276 0 .5-.224.5-.5s-.224-.5-.5-.5H11V1.5C11 .672 10.328 0 9.5 0h-3C5.672 0 5 .672 5 1.5V3zM2.5 6c.276 0 .5.224.5.5v7c0 .829.671 1.5 1.5 1.5h7c.829 0 1.5-.671 1.5-1.5v-7c0-.276.224-.5.5-.5s.5.224.5.5v7c0 1.381-1.119 2.5-2.5 2.5h-7C3.119 16 2 14.881 2 13.5v-7c0-.276.224-.5.5-.5zm3.5.5c.276 0 .5.224.5.5v5c0 .276-.224.5-.5.5s-.5-.224-.5-.5V7c0-.276.224-.5.5-.5zm4.5.5c0-.276-.224-.5-.5-.5s-.5.224-.5.5v5c0 .276.224.5.5.5s.5-.224.5-.5V7z"/>
</svg>
