<svg viewBox="0 0 12 17" xmlns="http://www.w3.org/2000/svg" fill-rule="evenodd" clip-rule="evenodd" stroke-linejoin="round" stroke-miterlimit="2">
  <path fill="currentColor" d="M7.816.41518c-1.46-.855-3.323-.345-4.161 1.128l-.255.447c-.136.241-.052.546.188.682.24.137.545.053.681-.187l.255-.447c.566-.995 1.813-1.33 2.786-.76.977.572 1.317 1.845.751 2.844l-1.098 1.878H1.5c-.828 0-1.5.672-1.5 1.5v7c0 .828.672 1.5 1.5 1.5h9c.828 0 1.5-.672 1.5-1.5v-7c0-.828-.672-1.5-1.5-1.5H8.121l.805-1.376.002-.006c.836-1.469.343-3.351-1.112-4.203zM1.5 7.00018c-.276 0-.5.224-.5.5v7c0 .276.224.5.5.5h9c.276 0 .5-.224.5-.5v-7c0-.276-.224-.5-.5-.5h-9zm4.5 5.5c.828 0 1.5-.672 1.5-1.5s-.672-1.5-1.5-1.5-1.5.672-1.5 1.5.672 1.5 1.5 1.5z"/>
</svg>
