<svg width="32" height="32" viewBox="0 0 32 32" fill="none" xmlns="http://www.w3.org/2000/svg">
<path fill-rule="evenodd" clip-rule="evenodd" d="M10.1464 13.3535C9.95118 13.1583 9.95119 12.8417 10.1465 12.6464L15.6467 7.14644C15.842 6.95119 16.1585 6.95119 16.3538 7.14644L21.8541 12.6464C22.0493 12.8417 22.0493 13.1583 21.8541 13.3535C21.6588 13.5488 21.3423 13.5488 21.147 13.3536L16.5 8.7068L16.5 23.2932L21.147 18.6464C21.3423 18.4512 21.6588 18.4512 21.8541 18.6465C22.0493 18.8417 22.0493 19.1583 21.8541 19.3536L16.3538 24.8536C16.1585 25.0488 15.842 25.0488 15.6467 24.8536L10.1465 19.3536C9.95119 19.1583 9.95118 18.8417 10.1464 18.6465C10.3417 18.4512 10.6583 18.4512 10.8535 18.6464L15.5 23.2927L15.5 8.70733L10.8535 13.3536C10.6583 13.5488 10.3417 13.5488 10.1464 13.3535Z" fill="currentColor"/>
</svg>
