<svg width="32" height="32" viewBox="0 0 32 32" fill="none" xmlns="http://www.w3.org/2000/svg">
<path fill-rule="evenodd" clip-rule="evenodd" d="M17.281 9.1442C17.0845 8.95019 16.7679 8.95221 16.5739 9.14871C16.3799 9.34522 16.3819 9.66179 16.5784 9.8558L21.2825 14.5002H15.5C11.9101 14.5002 8.99989 17.4105 9 21.0004L9.00005 22.5003C9.00006 22.7764 9.22392 23.0003 9.50006 23.0002C9.7762 23.0002 10.0001 22.7764 10 22.5002L10 21.0004C9.99991 17.9628 12.4624 15.5002 15.5 15.5002H21.2826L16.5784 20.1447C16.3819 20.3387 16.3799 20.6553 16.5739 20.8518C16.7679 21.0483 17.0845 21.0503 17.281 20.8563L22.8519 15.3561C22.9471 15.2621 23.0006 15.134 23.0006 15.0003C23.0006 14.8665 22.9471 14.7384 22.8519 14.6445L17.281 9.1442Z" fill="currentColor"/>
</svg>
