<svg width="32" height="32" viewBox="0 0 32 32" fill="none" xmlns="http://www.w3.org/2000/svg">
<path fill-rule="evenodd" clip-rule="evenodd" d="M15.4222 10.8558C15.6187 10.6618 15.6207 10.3452 15.4267 10.1487C15.2327 9.95221 14.9161 9.95019 14.7196 10.1442L9.14871 15.6445C9.05356 15.7384 9 15.8665 9 16.0003C9 16.134 9.05356 16.2621 9.14871 16.3561L14.7196 21.8563C14.9161 22.0503 15.2327 22.0483 15.4267 21.8518C15.6207 21.6553 15.6187 21.3387 15.4222 21.1447L10.7181 16.5002L22.4998 16.5002C22.776 16.5002 22.9998 16.2764 22.9998 16.0002C22.9998 15.7241 22.776 15.5002 22.4998 15.5002L10.7181 15.5002L15.4222 10.8558Z" fill="currentColor"/>
</svg>
