<svg width="32" height="32" viewBox="0 0 32 32" fill="none" xmlns="http://www.w3.org/2000/svg">
<path fill-rule="evenodd" clip-rule="evenodd" d="M16.3547 6.14645C16.1595 5.95118 15.8429 5.95118 15.6476 6.14645C15.4524 6.34171 15.4524 6.65829 15.6476 6.85355L24.2953 15.5012L6.50037 15.5012C6.22422 15.5012 6.00037 15.725 6.00037 16.0012C6.00037 16.2773 6.22422 16.5012 6.50037 16.5012L24.2953 16.5012L15.6476 25.1488C15.4524 25.3441 15.4524 25.6607 15.6476 25.8559C15.8429 26.0512 16.1595 26.0512 16.3547 25.8559L25.8447 16.3659C25.942 16.2747 26.0027 16.145 26.0027 16.0012C26.0027 15.8572 25.9419 15.7274 25.8445 15.6362L16.3547 6.14645Z" fill="currentColor"/>
</svg>
