<svg width="32" height="32" viewBox="0 0 32 32" fill="none" xmlns="http://www.w3.org/2000/svg">
<path fill-rule="evenodd" clip-rule="evenodd" d="M9.5 8C8.67157 8 8 8.67157 8 9.5V22.5C8 23.3284 8.67157 24 9.5 24H22.5C23.3284 24 24 23.3284 24 22.5V9.5C24 8.67157 23.3284 8 22.5 8H9.5ZM9 9.5C9 9.22386 9.22386 9 9.5 9H22.5C22.7761 9 23 9.22386 23 9.5V22.5C23 22.7761 22.7761 23 22.5 23H9.5C9.22386 23 9 22.7761 9 22.5V9.5ZM12.1205 15.8234C11.9407 15.6138 11.9649 15.2981 12.1745 15.1184L15.674 12.1174C15.8613 11.9568 16.1377 11.9568 16.325 12.1174L19.8244 15.1184C20.0341 15.2981 20.0583 15.6138 19.8785 15.8234C19.6987 16.033 19.3831 16.0572 19.1735 15.8775L16.499 13.584L16.499 19.5C16.499 19.7761 16.2752 20 15.999 20C15.7229 20 15.499 19.7761 15.499 19.5L15.499 13.5848L12.8255 15.8775C12.6159 16.0572 12.3002 16.033 12.1205 15.8234Z" fill="currentColor"/>
</svg>
