<svg width="32" height="32" viewBox="0 0 32 32" fill="none" xmlns="http://www.w3.org/2000/svg">
<path fill-rule="evenodd" clip-rule="evenodd" d="M8.35357 8.85354C8.54882 8.65827 8.54881 8.34169 8.35354 8.14643C8.15827 7.95118 7.84169 7.95119 7.64643 8.14646L4.14643 11.6467C4.05267 11.7405 3.99999 11.8677 4 12.0003C4.00001 12.1329 4.05269 12.2601 4.14646 12.3538L7.64646 15.8536C7.84173 16.0488 8.15831 16.0488 8.35357 15.8535C8.54882 15.6583 8.54881 15.3417 8.35354 15.1464L5.70715 12.5002L17.4998 12.5002C17.776 12.5002 17.9998 12.2764 17.9998 12.0002C17.9998 11.7241 17.776 11.5002 17.4998 11.5002L5.70706 11.5002L8.35357 8.85354Z" fill="currentColor"/>
<path fill-rule="evenodd" clip-rule="evenodd" d="M23.6463 16.8535C23.451 16.6583 23.451 16.3417 23.6463 16.1464C23.8415 15.9512 24.1581 15.9512 24.3534 16.1465L27.8534 19.6467C27.9471 19.7405 27.9998 19.8677 27.9998 20.0003C27.9998 20.1329 27.9471 20.2601 27.8534 20.3538L24.3534 23.8536C24.1581 24.0488 23.8415 24.0488 23.6463 23.8535C23.451 23.6583 23.451 23.3417 23.6463 23.1464L26.2927 20.5002L14.5 20.5002C14.2239 20.5002 14 20.2764 14 20.0002C14 19.7241 14.2239 19.5002 14.5 19.5002L26.2928 19.5002L23.6463 16.8535Z" fill="currentColor"/>
</svg>
