<svg xmlns="http://www.w3.org/2000/svg" width="32" height="32" viewBox="0 0 32 32">
<path style=" stroke:none;fill-rule:evenodd;fill:rgb(56.862745%,59.607843%,60%);fill-opacity:1;" d="M 32 28.570312 C 32 28.855469 31.964844 29.128906 31.902344 29.390625 C 31.832031 29.675781 31.726562 29.945312 31.589844 30.199219 C 31.441406 30.472656 31.257812 30.722656 31.042969 30.945312 L 30.914062 30.914062 L 30.945312 31.042969 C 30.722656 31.257812 30.472656 31.441406 30.199219 31.589844 C 29.945312 31.726562 29.675781 31.832031 29.390625 31.902344 C 29.128906 31.964844 28.855469 32 28.570312 32 L 25.566406 32 L 25.566406 30.285156 L 28.570312 30.285156 C 28.714844 30.285156 28.851562 30.269531 28.984375 30.238281 L 29.988281 29.988281 L 30.238281 28.984375 C 30.269531 28.851562 30.285156 28.714844 30.285156 28.570312 L 30.285156 25.566406 L 32 25.566406 Z M 32 17.1875 L 30.285156 17.1875 L 30.285156 23.195312 L 32 23.195312 Z M 32 8.804688 L 30.285156 8.804688 L 30.285156 14.8125 L 32 14.8125 Z M 17.1875 0 L 17.1875 1.714844 L 23.195312 1.714844 L 23.195312 0 Z M 12 1.714844 L 14.8125 1.714844 L 14.8125 0 L 3.429688 0 C 3.144531 0 2.871094 0.0351562 2.609375 0.0976562 C 2.324219 0.167969 2.054688 0.273438 1.800781 0.410156 C 1.527344 0.558594 1.277344 0.742188 1.054688 0.957031 C 1.019531 0.988281 0.988281 1.019531 0.957031 1.054688 C 0.742188 1.277344 0.558594 1.527344 0.410156 1.800781 C 0.273438 2.054688 0.167969 2.324219 0.0976562 2.609375 C 0.0351562 2.871094 0 3.144531 0 3.429688 L 0 28.570312 C 0 28.855469 0.0351562 29.128906 0.0976562 29.390625 C 0.167969 29.675781 0.273438 29.945312 0.410156 30.199219 C 0.558594 30.472656 0.742188 30.722656 0.957031 30.945312 C 0.988281 30.980469 1.019531 31.011719 1.054688 31.042969 C 1.277344 31.257812 1.527344 31.441406 1.800781 31.589844 C 2.054688 31.726562 2.324219 31.832031 2.609375 31.902344 C 2.871094 31.964844 3.144531 32 3.429688 32 L 14.8125 32 L 14.8125 30.285156 L 12 30.285156 Z M 23.195312 32 L 23.195312 30.285156 L 17.1875 30.285156 L 17.1875 32 Z M 25.566406 0 L 28.570312 0 C 28.855469 0 29.128906 0.0351562 29.390625 0.0976562 C 29.675781 0.167969 29.945312 0.273438 30.199219 0.410156 C 30.472656 0.558594 30.722656 0.742188 30.945312 0.957031 L 30.914062 1.085938 L 31.042969 1.054688 C 31.257812 1.277344 31.441406 1.527344 31.589844 1.800781 C 31.726562 2.054688 31.832031 2.324219 31.902344 2.609375 C 31.964844 2.871094 32 3.144531 32 3.429688 L 32 6.433594 L 30.285156 6.433594 L 30.285156 3.429688 C 30.285156 3.285156 30.269531 3.148438 30.238281 3.015625 L 29.988281 2.011719 L 28.984375 1.761719 C 28.851562 1.730469 28.714844 1.714844 28.570312 1.714844 L 25.566406 1.714844 Z M 25.566406 0 "/>
</svg>
