<svg width="32" height="32" viewBox="0 0 32 32" fill="none" xmlns="http://www.w3.org/2000/svg">
  <path fill-rule="evenodd" clip-rule="evenodd" d="M21 19.9286C21 20.017 20.9893 20.1029 20.9691 20.1851C20.9473 20.2739 20.9144 20.3584 20.8719 20.437C20.8256 20.5227 20.7681 20.6013 20.7012 20.6709L20.661 20.661L20.6709 20.7012C20.6013 20.7681 20.5227 20.8256 20.437 20.8719C20.3584 20.9144 20.2739 20.9473 20.1851 20.9691C20.1029 20.9893 20.017 21 19.9286 21L18.9899 21L18.9899 20.4643L19.9286 20.4643C19.9736 20.4643 20.0166 20.4589 20.0573 20.4489L20.3716 20.3716L20.4489 20.0573C20.4589 20.0166 20.4643 19.9736 20.4643 19.9286L20.4643 18.9899L21 18.9899L21 19.9286ZM21 16.3709L20.4643 16.3709L20.4643 18.2482L21 18.2482L21 16.3709ZM21 13.7518L20.4643 13.7518L20.4643 15.6291L21 15.6291L21 13.7518ZM16.3709 11L16.3709 11.5357L18.2482 11.5357L18.2482 11L16.3709 11ZM14.75 11.5357L15.6291 11.5357L15.6291 11L14.75 11L13.7518 11L13.0101 11L12.7857 11L12.25 11L12.0714 11C11.983 11 11.8971 11.0107 11.8149 11.0309C11.7261 11.0527 11.6416 11.0856 11.563 11.1281C11.4773 11.1744 11.3987 11.2319 11.3291 11.2988C11.3188 11.3087 11.3087 11.3188 11.2988 11.3291C11.2319 11.3987 11.1744 11.4773 11.1281 11.563C11.0856 11.6416 11.0527 11.7261 11.0309 11.8149C11.0107 11.8971 11 11.983 11 12.0714L11 13.0101L11 13.7518L11 15.6291L11 16.3709L11 18.2482L11 18.9899L11 19.9286C11 20.017 11.0107 20.1029 11.0309 20.1851C11.0527 20.2739 11.0856 20.3584 11.1281 20.437C11.1744 20.5227 11.2319 20.6013 11.2988 20.6709C11.3087 20.6812 11.3188 20.6913 11.3291 20.7012C11.3987 20.7681 11.4773 20.8256 11.563 20.8719C11.6416 20.9144 11.7261 20.9473 11.8149 20.9691C11.8971 20.9893 11.983 21 12.0714 21L12.25 21L12.7857 21L13.0101 21L13.7518 21L14.75 21L15.6291 21L15.6291 20.4643L14.75 20.4643L14.75 11.5357ZM18.2482 21L18.2482 20.4643L16.3709 20.4643L16.3709 21L18.2482 21ZM18.9899 11L19.9286 11C20.017 11 20.1029 11.0107 20.1851 11.0309C20.2739 11.0527 20.3584 11.0856 20.437 11.1281C20.5227 11.1744 20.6013 11.2319 20.6709 11.2988L20.661 11.339L20.7012 11.3291C20.7681 11.3987 20.8256 11.4773 20.8719 11.563C20.9144 11.6416 20.9473 11.7261 20.9691 11.8149C20.9893 11.8971 21 11.983 21 12.0714L21 13.0101L20.4643 13.0101L20.4643 12.0714C20.4643 12.0264 20.4589 11.9834 20.4489 11.9427L20.3716 11.6284L20.0573 11.5511C20.0166 11.5411 19.9736 11.5357 19.9286 11.5357L18.9899 11.5357L18.9899 11Z" fill="currentColor"/>
</svg>
