<svg viewBox="0 0 58 58" fill="none" xmlns="http://www.w3.org/2000/svg">
  <path d="M29 54.1457c13.8883 0 25.147-11.2587 25.147-25.1471C54.147 15.1103 42.8883 3.85156 29 3.85156c-13.8884 0-25.14709 11.25874-25.14709 25.14704C3.85291 42.887 15.1116 54.1457 29 54.1457z" stroke="#ADB1B3" stroke-width="3" stroke-linecap="round" stroke-linejoin="round"/>
  <path fill-rule="evenodd" clip-rule="evenodd" d="M43.1984 18.6399c.5958.5755.6123 1.5251.0367 2.121L25.3055 39.3234c-.2827.2926-.6721.4579-1.0789.4579-.4069 0-.7963-.1653-1.0789-.4579L15.7649 31.68c-.5756-.5959-.5591-1.5455.0367-2.121.5959-.5756 1.5455-.5591 2.121.0368l6.304 6.5264 16.8508-17.4456c.5755-.5958 1.5251-.6123 2.121-.0367z" fill="#ADB1B3"/>
</svg>