<svg width="32" height="32" viewBox="0 0 32 32" fill="none" xmlns="http://www.w3.org/2000/svg">
  <path d="M20.245 12.7058L16 8.31689L11.755 12.7058C10.585 13.9176 10 15.5334 10 17.087C10 18.6406 10.585 20.2796 11.755 21.4914C12.925 22.7032 14.4625 23.3169 16 23.3169C17.5375 23.3169 19.075 22.7032 20.245 21.4914C21.415 20.2796 22 18.6406 22 17.087C22 15.5334 21.415 13.9176 20.245 12.7058ZM11.0787 17.3666C11.0862 15.813 11.6394 14.3671 12.4944 13.4893L16 9.83066L19.6404 13.6151C20.4954 14.4851 20.9813 15.813 20.9888 17.3666H11.0787Z" fill="currentColor"/>
</svg>
