<svg width="32" height="32" viewBox="0 0 32 32" fill="none" xmlns="http://www.w3.org/2000/svg">
<path d="M23.9216 19.6266C23.9313 19.6308 23.9361 19.6343 23.9379 19.6357C24.1094 19.8683 24.4718 20.3763 24.7892 20.9214C24.9482 21.1946 25.0905 21.4678 25.1916 21.714C25.2971 21.9709 25.3389 22.1538 25.3389 22.2606C25.3389 22.9689 24.7024 23.6113 23.8389 23.6113C22.9753 23.6113 22.3389 22.9689 22.3389 22.2606C22.3389 22.1538 22.3806 21.9709 22.4861 21.714C22.5873 21.4678 22.7295 21.1946 22.8886 20.9214C23.206 20.3763 23.5683 19.8683 23.7399 19.6357C23.7416 19.6343 23.7464 19.6308 23.7562 19.6266C23.7752 19.6183 23.8041 19.6113 23.8389 19.6113C23.8736 19.6113 23.9026 19.6183 23.9216 19.6266Z" fill="currentColor" stroke="currentColor"/>
<path d="M15.3533 7.86824L23.1315 15.6464L15.7069 23.071C15.1211 23.6568 14.1714 23.6568 13.5856 23.071L7.92871 17.4142C7.34293 16.8284 7.34292 15.8786 7.92871 15.2929L15.3533 7.86824Z" stroke="currentColor"/>
<path d="M13.2322 13.6616C13.1524 13.4461 12.8476 13.4461 12.7678 13.6616L12.1034 15.4572C12.0784 15.5249 12.0249 15.5784 11.9572 15.6034L10.1616 16.2678C9.94612 16.3476 9.94612 16.6524 10.1616 16.7322L11.9572 17.3966C12.0249 17.4216 12.0784 17.4751 12.1034 17.5428L12.7678 19.3384C12.8476 19.5539 13.1524 19.5539 13.2322 19.3384L13.8966 17.5428C13.9216 17.4751 13.9751 17.4216 14.0428 17.3966L15.8384 16.7322C16.0539 16.6524 16.0539 16.3476 15.8384 16.2678L14.0428 15.6034C13.9751 15.5784 13.9216 15.5249 13.8966 15.4572L13.2322 13.6616Z" fill="currentColor"/>
<path d="M15.6161 11.0808C15.5762 10.9731 15.4238 10.9731 15.3839 11.0808L15.0517 11.9786C15.0392 12.0125 15.0125 12.0392 14.9786 12.0517L14.0808 12.3839C13.9731 12.4238 13.9731 12.5762 14.0808 12.6161L14.9786 12.9483C15.0125 12.9608 15.0392 12.9875 15.0517 13.0214L15.3839 13.9192C15.4238 14.0269 15.5762 14.0269 15.6161 13.9192L15.9483 13.0214C15.9608 12.9875 15.9875 12.9608 16.0214 12.9483L16.9192 12.6161C17.0269 12.5762 17.0269 12.4238 16.9192 12.3839L16.0214 12.0517C15.9875 12.0392 15.9608 12.0125 15.9483 11.9786L15.6161 11.0808Z" fill="currentColor"/>
</svg>
