<svg width="32" height="32" viewBox="0 0 32 32" fill="none" xmlns="http://www.w3.org/2000/svg">
<path fill-rule="evenodd" clip-rule="evenodd" d="M25.1464 25.8536C25.3417 26.0488 25.6583 26.0488 25.8536 25.8536C26.0488 25.6583 26.0488 25.3417 25.8536 25.1464L16.7071 16L25.8536 6.85355C26.0488 6.65829 26.0488 6.34171 25.8536 6.14645C25.6583 5.95119 25.3417 5.95119 25.1464 6.14645L16 15.2929L6.85355 6.14645C6.65829 5.95118 6.34171 5.95118 6.14645 6.14645C5.95119 6.34171 5.95119 6.65829 6.14645 6.85355L15.2929 16L6.14645 25.1464C5.95118 25.3417 5.95118 25.6583 6.14645 25.8536C6.34171 26.0488 6.65829 26.0488 6.85355 25.8536L16 16.7071L25.1464 25.8536Z" fill="currentColor"/>
</svg>
