<svg width="32" height="32" viewBox="0 0 32 32" fill="none" xmlns="http://www.w3.org/2000/svg">
<path fill-rule="evenodd" clip-rule="evenodd" d="M6 8.5C6 8.22386 5.77614 8 5.5 8C5.22386 8 5 8.22386 5 8.5V23.5C5 23.7761 5.22386 24 5.5 24C5.77614 24 6 23.7761 6 23.5V8.5ZM16 8.5C16 8.22386 15.7761 8 15.5 8C15.2239 8 15 8.22386 15 8.5V23.5C15 23.7761 15.2239 24 15.5 24C15.7761 24 16 23.7761 16 23.5V8.5ZM10 12C9.17157 12 8.5 12.6716 8.5 13.5V18.5C8.5 19.3284 9.17157 20 10 20H11C11.8284 20 12.5 19.3284 12.5 18.5V13.5C12.5 12.6716 11.8284 12 11 12H10ZM19.8254 14.6204C19.6157 14.4407 19.3001 14.4649 19.1204 14.6746C18.9407 14.8843 18.9649 15.1999 19.1746 15.3796L22.6746 18.3796C22.8618 18.5401 23.1382 18.5401 23.3254 18.3796L26.8254 15.3796C27.0351 15.1999 27.0593 14.8843 26.8796 14.6746C26.6999 14.4649 26.3843 14.4407 26.1746 14.6204L23 17.3415L19.8254 14.6204Z" fill="currentColor"/>
</svg>
