<svg width="32" height="32" viewBox="0 0 32 32" fill="none" xmlns="http://www.w3.org/2000/svg">
<path fill-rule="evenodd" clip-rule="evenodd" d="M14.9677 8.03206C15.4763 7.169 16.7634 7.169 17.272 8.03206L25.7783 22.4676C26.3062 23.3634 25.5952 24.3853 24.6262 24.3853H7.61351C6.64446 24.3853 5.93351 23.3634 6.46137 22.4676L14.9677 8.03206ZM16.1198 8.38477C15.9919 8.38477 15.8858 8.44378 15.8292 8.53974L7.32291 22.9753C7.27075 23.0638 7.27637 23.1554 7.32607 23.2356C7.37709 23.3179 7.47551 23.3853 7.61351 23.3853H24.6262C24.7642 23.3853 24.8626 23.3179 24.9136 23.2356C24.9633 23.1554 24.9689 23.0638 24.9168 22.9753L16.4104 8.53974C16.3539 8.44378 16.2478 8.38477 16.1198 8.38477ZM16.003 12.718C16.2791 12.718 16.503 12.9419 16.503 13.218V17.2182C16.503 17.4943 16.2791 17.7182 16.003 17.7182C15.7268 17.7182 15.503 17.4943 15.503 17.2182V13.218C15.503 12.9419 15.7268 12.718 16.003 12.718ZM16.003 21.2203C16.6755 21.2203 17.2206 20.6751 17.2206 20.0027C17.2206 19.3302 16.6755 18.7851 16.003 18.7851C15.3306 18.7851 14.7855 19.3302 14.7855 20.0027C14.7855 20.6751 15.3306 21.2203 16.003 21.2203Z" fill="currentColor"/>
</svg>
