<svg width="32" height="32" viewBox="0 0 32 32" fill="none" xmlns="http://www.w3.org/2000/svg">
<path fill-rule="evenodd" clip-rule="evenodd" d="M8.02341 16.2285C9.94756 12.7111 12.9963 11 16 11C19.0038 11 22.0525 12.7111 23.9767 16.2285C24.0124 16.2938 24.0048 16.3922 23.9698 16.4434C21.8776 19.5031 18.9227 21 16 21C13.0774 21 10.1225 19.5031 8.03028 16.4434L7.61755 16.7256L8.03028 16.4434C7.99526 16.3922 7.98765 16.2938 8.02341 16.2285ZM24.854 15.7485C22.7748 11.9479 19.4099 10 16 10C12.5902 10 9.22526 11.9479 7.1461 15.7485L7.58475 15.9885L7.1461 15.7485C6.9334 16.1374 6.9531 16.6398 7.20482 17.0079C9.46559 20.314 12.7167 22 16 22C19.2833 22 22.5345 20.314 24.7953 17.0079C25.047 16.6398 25.0667 16.1374 24.854 15.7485ZM14 16C14 14.8954 14.8955 14 16 14C17.1046 14 18 14.8954 18 16C18 17.1046 17.1046 18 16 18C14.8955 18 14 17.1046 14 16ZM16 13C14.3432 13 13 14.3431 13 16C13 17.6569 14.3432 19 16 19C17.6569 19 19 17.6569 19 16C19 14.3431 17.6569 13 16 13Z" fill="currentColor"/>
</svg>
