<svg width="32" height="32" viewBox="0 0 32 32" fill="none" xmlns="http://www.w3.org/2000/svg">
<path d="M12.7593 20.8C12.4013 20.8 12.1111 20.4418 12.1111 20V16.8C12.1111 16.3582 12.4013 16 12.7593 16H19.2407C19.5987 16 19.8889 16.3582 19.8889 16.8V20" stroke="currentColor" stroke-miterlimit="10" stroke-linecap="round" stroke-linejoin="round"/>
<path d="M21.6 24H10.4C10.0287 24 9.6726 23.8314 9.41005 23.5314C9.1475 23.2313 9 22.8243 9 22.4V9.6C9 9.17565 9.1475 8.76869 9.41005 8.46863C9.6726 8.16857 10.0287 8 10.4 8H19.0462C19.3346 8 19.6089 8.12448 19.7988 8.3415L22.7526 11.7172C22.9121 11.8995 23 12.1335 23 12.3757V22.4C23 22.8243 22.8525 23.2313 22.5899 23.5314C22.3274 23.8314 21.9713 24 21.6 24Z" stroke="currentColor" stroke-miterlimit="10" stroke-linecap="round" stroke-linejoin="round"/>
<path d="M18.3333 11.2002V12.8002" stroke="currentColor" stroke-miterlimit="10" stroke-linecap="round" stroke-linejoin="round"/>
</svg>
