<svg width="32" height="32" viewBox="0 0 32 32" fill="none" xmlns="http://www.w3.org/2000/svg">
<path d="M16.4375 24C14.3681 24 12.6111 23.2674 11.1667 21.8021C9.72222 20.3368 9 18.5625 9 16.4792H10.25C10.25 18.2153 10.8472 19.6944 12.0417 20.9167C13.2361 22.1389 14.7014 22.75 16.4375 22.75C18.2014 22.75 19.6944 22.1319 20.9167 20.8958C22.1389 19.6597 22.75 18.1597 22.75 16.3958C22.75 14.6736 22.1319 13.2187 20.8958 12.0312C19.6597 10.8437 18.1736 10.25 16.4375 10.25C15.4931 10.25 14.6076 10.4653 13.7813 10.8958C12.9549 11.3264 12.2361 11.8958 11.625 12.6042H13.8125V13.8542H9.45833V9.52083H10.7083V11.7292C11.4306 10.8819 12.2882 10.2153 13.2812 9.72917C14.2743 9.24306 15.3264 9 16.4375 9C17.4792 9 18.4583 9.19444 19.375 9.58333C20.2917 9.97222 21.0937 10.5035 21.7812 11.1771C22.4687 11.8507 23.0104 12.6389 23.4062 13.5417C23.8021 14.4444 24 15.4167 24 16.4583C24 17.5 23.8021 18.4792 23.4062 19.3958C23.0104 20.3125 22.4687 21.1111 21.7812 21.7917C21.0937 22.4722 20.2917 23.0104 19.375 23.4062C18.4583 23.8021 17.4792 24 16.4375 24ZM19.1042 19.8958L15.8958 16.7292V12.2708H17.1458V16.2083L20 19L19.1042 19.8958Z" fill="black"/>
</svg>
