<svg width="32" height="32" viewBox="0 0 32 32" fill="none" xmlns="http://www.w3.org/2000/svg">
<path fill-rule="evenodd" clip-rule="evenodd" d="M8 11.5C7.72386 11.5 7.5 11.7239 7.5 12V12.7111C7.5 12.9873 7.27614 13.2111 7 13.2111C6.72386 13.2111 6.5 12.9873 6.5 12.7111V12C6.5 11.1716 7.17157 10.5 8 10.5H11.5H15C15.8284 10.5 16.5 11.1716 16.5 12V12.7111C16.5 12.9873 16.2761 13.2111 16 13.2111C15.7239 13.2111 15.5 12.9873 15.5 12.7111V12C15.5 11.7239 15.2761 11.5 15 11.5H12V21.5H13.3C13.5761 21.5 13.8 21.7239 13.8 22C13.8 22.2761 13.5761 22.5 13.3 22.5H11.5H9.7C9.42386 22.5 9.2 22.2761 9.2 22C9.2 21.7239 9.42386 21.5 9.7 21.5H11V11.5H8ZM17.5 16C17.5 15.7239 17.7239 15.5 18 15.5H21V12.5C21 12.2239 21.2239 12 21.5 12C21.7761 12 22 12.2239 22 12.5V15.5H25C25.2761 15.5 25.5 15.7239 25.5 16C25.5 16.2761 25.2761 16.5 25 16.5H22V19.5C22 19.7761 21.7761 20 21.5 20C21.2239 20 21 19.7761 21 19.5V16.5H18C17.7239 16.5 17.5 16.2761 17.5 16Z" fill="currentColor"/>
</svg>
