<svg width="32" height="32" viewBox="0 0 32 32" fill="none" xmlns="http://www.w3.org/2000/svg">
<path fill-rule="evenodd" clip-rule="evenodd" d="M9.5 8.5C9.5 8.22386 9.27614 8 9 8C8.72386 8 8.5 8.22386 8.5 8.5V23.5C8.5 23.7761 8.72386 24 9 24C9.27614 24 9.5 23.7761 9.5 23.5V8.5ZM23 8C23.2761 8 23.5 8.22386 23.5 8.5V23.5C23.5 23.7761 23.2761 24 23 24C22.7239 24 22.5 23.7761 22.5 23.5V8.5C22.5 8.22386 22.7239 8 23 8ZM15.2951 12.4933C15.4037 12.1968 15.683 12 15.9953 12C16.3072 12 16.5863 12.1964 16.6952 12.4924L19.2201 19.3588C19.3343 19.6694 19.1075 20 18.7803 20C18.5822 20 18.4054 19.874 18.3386 19.685L17.6713 17.7989H14.3294L13.6622 19.6848C13.5953 19.8738 13.4184 20 13.2201 20C12.8928 20 12.6659 19.6695 12.7798 19.3588L15.2951 12.4933ZM17.3577 16.905L16.3302 14.0223L16.024 13.1824C16.0195 13.1702 16.008 13.162 15.9951 13.162C15.982 13.162 15.9704 13.1703 15.966 13.1828L15.6705 14.0223L14.643 16.905H17.3577Z" fill="currentColor"/>
</svg>
