<svg width="32" height="32" viewBox="0 0 32 32" fill="none" xmlns="http://www.w3.org/2000/svg">
<path d="M19.526 12.9552L19.526 12.9552L19.5232 12.957C19.4501 13.0046 19.3847 13.0775 19.3249 13.1669C19.3248 13.1671 19.3247 13.1672 19.3246 13.1674L16 18.0461L12.6748 13.1665L12.6748 13.1665L12.6734 13.1645C12.6098 13.0753 12.5407 13.0031 12.4644 12.9561C12.396 12.9119 12.3216 12.8844 12.2428 12.8844C12.1359 12.8844 12.0454 12.9305 11.9774 13.0122L11.9774 13.0122L11.9768 13.0129C11.9127 13.0911 11.8844 13.1867 11.8844 13.2908V18.623C11.8844 18.7361 11.8984 18.8391 11.9293 18.9296L11.9292 18.9296L11.9298 18.9313C11.9522 18.9936 11.9941 19.043 12.0525 19.0747C12.1081 19.1048 12.1722 19.1156 12.2372 19.1156C12.2978 19.1156 12.3578 19.1038 12.4106 19.0725C12.4643 19.0407 12.5024 18.9936 12.5257 18.9375C12.5663 18.8444 12.5845 18.7385 12.5845 18.623V14.2093L15.634 18.6017C15.7254 18.7392 15.8461 18.8355 16 18.8355C16.1477 18.8355 16.2679 18.7374 16.364 18.6045L16.364 18.6045L16.3653 18.6027L19.4155 14.2093V18.623C19.4155 18.7376 19.4316 18.8423 19.4675 18.9343L19.4673 18.9344L19.4702 18.9407C19.4958 18.9961 19.5353 19.0422 19.5893 19.0733C19.6423 19.1037 19.702 19.1156 19.7628 19.1156C19.8278 19.1156 19.8919 19.1048 19.9475 19.0747C20.0059 19.043 20.0478 18.9936 20.0702 18.9313L20.0707 18.9296C20.1016 18.8391 20.1156 18.7361 20.1156 18.623V13.2908C20.1156 13.1858 20.0848 13.0901 20.0174 13.0125C19.9525 12.9299 19.8632 12.8844 19.7572 12.8844C19.6761 12.8844 19.5985 12.911 19.526 12.9552Z" fill="currentColor" stroke="currentColor" stroke-width="0.231122"/>
<path fill-rule="evenodd" clip-rule="evenodd" d="M8 9.5C8 8.67157 8.67157 8 9.5 8H22.5C23.3284 8 24 8.67157 24 9.5V22.5C24 23.3284 23.3284 24 22.5 24H9.5C8.67157 24 8 23.3284 8 22.5V9.5ZM9.5 9C9.22386 9 9 9.22386 9 9.5V22.5C9 22.7761 9.22386 23 9.5 23H22.5C22.7761 23 23 22.7761 23 22.5V9.5C23 9.22386 22.7761 9 22.5 9H9.5Z" fill="currentColor"/>
</svg>
