<svg width="79" height="79" viewBox="0 0 79 79" fill="none" xmlns="http://www.w3.org/2000/svg">
  <path fill-rule="evenodd" clip-rule="evenodd" d="M16.6768 24.8379c0-.6785.55-1.2285 1.2285-1.2285h12.2851v31.9414h-5.1597c-.6785 0-1.2286.55-1.2286 1.2285 0 .6785.5501 1.2285 1.2286 1.2285h12.7765c.6785 0 1.2285-.55 1.2285-1.2285 0-.6785-.55-1.2285-1.2285-1.2285h-5.1597V23.6094h12.2851c.6785 0 1.2285.55 1.2285 1.2285v2.8938c0 .6785.5501 1.2285 1.2285 1.2285.6785 0 1.2286-.55 1.2286-1.2285v-2.8938c0-2.0355-1.6501-3.6856-3.6856-3.6856H17.9053c-2.0355 0-3.6856 1.6501-3.6856 3.6856v2.8938c0 .6785.5501 1.2285 1.2285 1.2285.6785 0 1.2286-.55 1.2286-1.2285v-2.8938zm30.7128 17.1995c0-.6787.5502-1.2288 1.2286-1.2288h4.914v14.7422H49.3553c-.6785 0-1.2285.55-1.2285 1.2285 0 .6785.55 1.2285 1.2285 1.2285H54.7607v-1.2285l.0001 1.2285H60.1662c.6785 0 1.2285-.55 1.2285-1.2285 0-.6785-.55-1.2285-1.2285-1.2285H55.9893V40.8086h4.914c.6784 0 1.2285.5501 1.2285 1.2288V43.2656c0 .6785.5501 1.2285 1.2286 1.2285.6784 0 1.2285-.55 1.2285-1.2285V42.0374c0-2.0354-1.65-3.6858-3.6856-3.6858H48.6182c-2.0357 0-3.6856 1.6504-3.6856 3.6858V43.2656c0 .6785.55 1.2285 1.2285 1.2285.6785 0 1.2285-.55 1.2285-1.2285V42.0374z" fill="#131516"/>
</svg>
