<svg width="32" height="32" viewBox="0 0 32 32" fill="none" xmlns="http://www.w3.org/2000/svg">
<path fill-rule="evenodd" clip-rule="evenodd" d="M23.4997 9.5C23.7759 9.5 23.9997 9.27614 23.9997 9C23.9997 8.72386 23.7759 8.5 23.4997 8.5H8.49974C8.2236 8.5 7.99974 8.72386 7.99974 9C7.99974 9.27614 8.2236 9.5 8.49974 9.5L23.4997 9.5ZM15.2951 12.4933C15.4037 12.1967 15.683 12 15.9953 12C16.3072 12 16.5863 12.1963 16.6952 12.4924L19.2201 19.3588C19.3343 19.6694 19.1075 20 18.7803 20C18.5822 20 18.4054 19.8739 18.3386 19.685L17.6713 17.7989H14.3294L13.6622 19.6847C13.5953 19.8738 13.4184 20 13.2201 20C12.8928 20 12.6659 19.6695 12.7798 19.3588L15.2951 12.4933ZM17.3577 16.905L16.3302 14.0223L16.024 13.1824C16.0195 13.1701 16.008 13.162 15.9951 13.162C15.982 13.162 15.9704 13.1703 15.966 13.1827L15.6705 14.0223L14.643 16.905H17.3577ZM23.9997 23C23.9997 23.2761 23.7759 23.5 23.4997 23.5L8.49974 23.5C8.2236 23.5 7.99974 23.2761 7.99974 23C7.99974 22.7239 8.2236 22.5 8.49974 22.5L23.4997 22.5C23.7759 22.5 23.9997 22.7239 23.9997 23Z" fill="currentColor"/>
</svg>
