<svg viewBox="0 0 32 32" xmlns="http://www.w3.org/2000/svg">
<path fill-rule="evenodd" clip-rule="evenodd" d="M13 11C13 9.34315 14.3431 8 16 8C17.6569 8 19 9.34315 19 11V14H20.5C21.3284 14 22 14.6716 22 15.5V22.5C22 23.3284 21.3284 24 20.5 24H11.5C10.6716 24 10 23.3284 10 22.5V15.5C10 14.6716 10.6716 14 11.5 14H13V11ZM18 11V14H14V11C14 9.89543 14.8954 9 16 9C17.1046 9 18 9.89543 18 11 M16 20.5C16.8284 20.5 17.5 19.8284 17.5 19C17.5 18.1716 16.8284 17.5 16 17.5C15.1716 17.5 14.5 18.1716 14.5 19C14.5 19.8284 15.1716 20.5 16 20.5Z" fill="currentColor"/>
</svg>
