<svg xmlns="http://www.w3.org/2000/svg" viewBox="0 0 32 32">
  <mask id="a" fill="#fff">
    <path fill-rule="evenodd" d="M6 8.6c.2-.3.5-.3.7-.1L26.1 23c.2.2.3.5.1.7-.1.2-.5.3-.7.1L6.1 9.3a.5.5 0 0 1 0-.7Z" clip-rule="evenodd"/>
    <path d="m11.7 12.2-.5.5H6.6c-.4 0-.8.3-.8.8v5.1c0 .5.4.8.8.8h4.6l4.4 4.5c.5.5 1.3.1 1.3-.6v-7.2l-1-.7v7.4l-4-4.1a.8.8 0 0 0-.7-.3H6.8v-4.7h4.4c.3 0 .5-.1.6-.3l.7-.6-.8-.6Zm4.3 1.9V9.3L13.1 12l-.8-.6 3.2-3.2a.8.8 0 0 1 1.3.6v6l-1-.7Zm4.6 4.7-.7.5c-.2 0-.3.2-.3.5s.3.6.7.4c.4-.2.8-.4 1-.7l-.7-.7Zm1.4-.1-.7-.6a3.7 3.7 0 0 0-1.4-5.4.6.6 0 0 1-.3-.5c0-.4.3-.6.7-.5a4.7 4.7 0 0 1 1.8 7Zm1.4 2.3c-.5.6-1.2 1-1.9 1.4-.1.1-.3.3-.3.5 0 .4.4.6.8.4.8-.4 1.6-1 2.2-1.7l-.8-.6Z"/>
    <path d="m24.8 20.8-.8-.6a7.3 7.3 0 0 0-2.5-10.5.5.5 0 0 1-.3-.5c0-.4.4-.6.8-.4a8.3 8.3 0 0 1 2.8 12Z"/>
  </mask>
  <path fill="currentColor" fill-rule="evenodd" d="M6 8.6c.2-.3.5-.3.7-.1L26.1 23c.2.2.3.5.1.7-.1.2-.5.3-.7.1L6.1 9.3a.5.5 0 0 1 0-.7Z" clip-rule="evenodd"/>
  <path fill="currentColor" d="m11.7 12.2-.5.5H6.6c-.4 0-.8.3-.8.8v5.1c0 .5.4.8.8.8h4.6l4.4 4.5c.5.5 1.3.1 1.3-.6v-7.2l-1-.7v7.4l-4-4.1a.8.8 0 0 0-.7-.3H6.8v-4.7h4.4c.3 0 .5-.1.6-.3l.7-.6-.8-.6Zm4.3 1.9V9.3L13.1 12l-.8-.6 3.2-3.2a.8.8 0 0 1 1.3.6v6l-1-.7Zm4.6 4.7-.7.5c-.2 0-.3.2-.3.5s.3.6.7.4c.4-.2.8-.4 1-.7l-.7-.7Zm1.4-.1-.7-.6a3.7 3.7 0 0 0-1.4-5.4.6.6 0 0 1-.3-.5c0-.4.3-.6.7-.5a4.7 4.7 0 0 1 1.8 7Zm1.4 2.3c-.5.6-1.2 1-1.9 1.4-.1.1-.3.3-.3.5 0 .4.4.6.8.4.8-.4 1.6-1 2.2-1.7l-.8-.6Z"/>
  <path fill="currentColor" d="m24.8 20.8-.8-.6a7.3 7.3 0 0 0-2.5-10.5.5.5 0 0 1-.3-.5c0-.4.4-.6.8-.4a8.3 8.3 0 0 1 2.8 12Z"/>
  <path fill="currentColor" d="m6.7 8.5-.6.8.6-.8ZM26.1 23l-.6.8.6-.8Zm-.6.8.6-.8-.6.8ZM6.1 9.3l-.6.8.6-.8Zm5.6 2.9.6-.8-.7-.6-.6.6.7.8Zm-.5.5v1h.4l.3-.3-.7-.7Zm0 6.7.7-.7-.3-.3h-.4v1Zm4.4 4.5-.7.7.7-.7Zm1.3-7.8h1v-.5l-.4-.3-.6.8Zm-1-.7.6-.8-1.6-1.2v2h1Zm0 7.4-.7.7 1.7 1.7v-2.4h-1Zm-4-4.1-.8.7.7-.7Zm-5.1-.3h-1v1h1v-1Zm0-4.7v-1h-1v1h1Zm5.7-1 .7.8.8-.8-1-.7-.5.8Zm3.4-3.4h1V6.9l-1.7 1.7.7.7Zm0 4.8h-1v.5l.4.3.6-.8Zm-2.7-2-.6.7.7.6.6-.6-.7-.8Zm-.8-.7-.7-.7-.8.9.9.6.6-.8Zm3.2-3.2-.7-.7.7.7Zm1.3 6.7-.6.8 1.6 1.2v-2h-1Zm3.7 4 .6-.9-.6-.4-.7.5.7.7Zm-.7.4.5.8-.5-.8Zm.4 1 .4.8-.4-.9Zm1-.8.8.7.9-.8-1-.7-.6.8Zm0-1.4-.8-.6-.6.8.8.6.6-.8Zm.8.6-.6.8.8.6.6-.8-.8-.6Zm-2.2-6-.4.9.4-1Zm.4-1 .4-.9-.4 1Zm1.2 10.7-.5-.8.5.8Zm1.9-1.4.6-.8-.7-.6-.6.7.7.7ZM22 23.3l.4 1-.4-1Zm2.2-1.7.8.6.7-.8-.9-.6-.6.8Zm-.2-1.4-.8-.6-.5.8.7.6.6-.8Zm.8.6-.6.8.9.6.5-.9-.8-.5ZM21.5 9.7l.5-1-.5 1Zm.5-1-.5 1 .5-1Zm-14.7-1c-.6-.5-1.6-.4-2 .3l1.5 1.2c-.1.2-.4.2-.7 0l1.2-1.5Zm19.4 14.5L7.3 7.7 6.1 9.3l19.4 14.5 1.2-1.6Zm.3 2c.5-.6.4-1.5-.3-2l-1.2 1.6a.5.5 0 0 1 0-.7l1.5 1.2Zm-2 .4c.6.5 1.5.3 2-.3L25.4 23c.2-.2.5-.3.7-.1L25 24.6ZM5.4 10.1 25 24.6l1.2-1.6L6.7 8.5 5.5 10ZM5.2 8c-.4.6-.3 1.6.3 2l1.2-1.5c.3.1.3.5.1.7L5.2 8Zm5.8 3.4-.5.5 1.4 1.5.5-.5-1.4-1.5Zm.2.3H6.6v2h4.6v-2Zm-4.6 0c-1 0-1.8.8-1.8 1.8h2s0 .2-.2.2v-2Zm-1.8 1.8v5.1h2v-5.1h-2Zm0 5.1c0 1 .8 1.8 1.8 1.8v-2l.2.2h-2Zm1.8 1.8h4.6v-2H6.6v2Zm3.9-.2 4.4 4.4 1.4-1.4-4.4-4.5-1.4 1.5Zm4.4 4.4c1.1 1.1 3 .3 3-1.3h-2a.2.2 0 0 1 .2-.2h.2l-1.4 1.5Zm3-1.3v-7.2h-2v7.2h2Zm-.4-8-1-.7-1.2 1.6 1 .7 1.2-1.6Zm-2.6 0v7.5h2v-7.4h-2Zm1.8 6.8L12.5 18l-1.4 1.4 4.1 4.1 1.5-1.4ZM12.5 18c-.3-.4-.8-.6-1.3-.6v2l1.3-1.4Zm-1.3-.6H6.8v2h4.4v-2Zm-3.4 1v-4.7h-2v4.7h2Zm-1-3.7h4.4v-2H6.8v2Zm4.4 0c.5 0 1-.2 1.3-.6l-1.4-1.4h.1v2Zm1.3-.6.7-.6-1.4-1.4-.7.6 1.4 1.4Zm.6-2.1-.8-.6L11 13l.8.6L13 12Zm1.8-2.7V14h2V9.3h-2Zm-1 3.5 2.8-2.8-1.5-1.4-2.7 2.7 1.4 1.5Zm-2.1-.6.8.6 1.2-1.6-.8-.6-1.2 1.6Zm3-4.7-3.1 3.2 1.4 1.4L16.3 9l-1.4-1.4ZM18 8.8c0-1.6-1.9-2.4-3-1.3L16.3 9a.2.2 0 0 1-.2 0H16v-.1h2Zm0 6v-6h-2v6h2Zm-2.6.1 1 .8 1.2-1.6-1-.8-1.2 1.6Zm4.6 3.2-.4.3.9 1.7.8-.5-1.3-1.5Zm-.4.3c-.5.2-.9.7-.9 1.4h2c0 .2-.1.3-.2.3l-1-1.7Zm-.9 1.4c0 1 1 1.8 2 1.3l-.8-1.8h.6l.2.5h-2Zm2 1.3c.6-.2 1-.5 1.5-.9l-1.4-1.5-.9.6.9 1.8Zm1.4-2.4-.8-.7-1.2 1.6.8.7 1.2-1.6Zm-1.3.2.8.6 1.2-1.6-.8-.6-1.2 1.6Zm.3-3c0 .6-.2 1.2-.5 1.6l1.6 1.2c.5-.8.9-1.7.9-2.7h-2Zm-1.5-2.3c.9.4 1.5 1.3 1.5 2.4h2c0-1.9-1-3.4-2.6-4.2l-1 1.8Zm-.9-1.4c0 .6.4 1.1.9 1.4l.9-1.8.2.4h-2Zm2-1.4c-1-.5-2 .4-2 1.4h2c0 .1 0 .3-.2.4h-.6l.9-1.8ZM24 16c0-2.3-1.4-4.3-3.3-5.2l-.9 1.8c1.3.6 2.2 1.9 2.2 3.4h2Zm-1.1 3.3c.7-1 1-2 1-3.3h-2c0 .8-.2 1.5-.6 2.1l1.6 1.2Zm-.9 4c.8-.4 1.5-1 2.1-1.7l-1.4-1.3c-.5.5-1 1-1.7 1.3l1 1.7Zm.2-.4c0 .2 0 .3-.2.4l-1-1.7c-.4.2-.8.7-.8 1.3h2Zm-.7-.4h.5c.2 0 .2.2.2.4h-2c0 1 1.2 1.9 2.2 1.3l-1-1.7Zm2-1.6a10 10 0 0 1-2 1.6l1 1.7c.9-.5 1.7-1.2 2.5-2L23.5 21Zm1.3-.1-.8-.6-1.2 1.6.8.6 1.2-1.6Zm-1.4.2.8.6 1.2-1.6-.8-.6-1.2 1.6Zm1.4-.3c1-1.3 1.5-3 1.5-4.6h-2a6 6 0 0 1-1.1 3.5l1.6 1.1Zm1.5-4.6c0-3.2-1.7-5.9-4.3-7.3l-1 1.7c2 1.1 3.3 3.2 3.3 5.6h2ZM22 8.8l.2.4h-2c0 .6.4 1 .8 1.3l1-1.7Zm.2.4c0 .2 0 .3-.2.4h-.5l1-1.7c-1.1-.6-2.3.2-2.3 1.3h2Zm-.7.4a7.3 7.3 0 0 1 3.8 6.5h2c0-3.6-2-6.7-4.9-8.2l-1 1.7Zm3.8 6.5c0 1.5-.5 3-1.3 4.1l1.6 1.1c1-1.5 1.7-3.3 1.7-5.2h-2Z" mask="url(#a)"/>
</svg>
