<svg width="32" height="32" viewBox="0 0 32 32" fill="none" xmlns="http://www.w3.org/2000/svg">
<path fill-rule="evenodd" clip-rule="evenodd" d="M16 9C12.134 9 9 12.134 9 16C9 19.866 12.134 23 16 23C19.866 23 23 19.866 23 16C23 12.134 19.866 9 16 9ZM8 16C8 11.5817 11.5817 8 16 8C20.4183 8 24 11.5817 24 16C24 20.4183 20.4183 24 16 24C11.5817 24 8 20.4183 8 16Z" fill="currentColor"/>
<path d="M15.4383 17.2683C15.4383 16.8618 15.5165 16.5244 15.6728 16.2561C15.8292 15.9878 16.1091 15.6667 16.5123 15.2927C16.8416 15 17.0761 14.752 17.216 14.5488C17.3642 14.3374 17.4383 14.0854 17.4383 13.7927C17.4383 13.4024 17.3107 13.0894 17.0556 12.8537C16.8004 12.6098 16.4465 12.4878 15.9938 12.4878C15.5823 12.4878 15.2531 12.6057 15.0062 12.8415C14.7675 13.0691 14.5864 13.3537 14.463 13.6951L13.5 13.2927C13.6728 12.8211 13.965 12.4065 14.3765 12.0488C14.7963 11.6829 15.3354 11.5 15.9938 11.5C16.4877 11.5 16.9239 11.6016 17.3025 11.8049C17.6811 12 17.9733 12.2724 18.179 12.622C18.393 12.9715 18.5 13.3618 18.5 13.7927C18.5 14.2398 18.3848 14.622 18.1543 14.939C17.9321 15.248 17.644 15.561 17.2901 15.878C17.0185 16.122 16.821 16.3537 16.6975 16.5732C16.5741 16.7927 16.5123 17.0488 16.5123 17.3415V17.8537H15.4383V17.2683ZM15.9815 20.5C15.7593 20.5 15.57 20.4268 15.4136 20.2805C15.2654 20.126 15.1914 19.939 15.1914 19.7195C15.1914 19.5081 15.2654 19.3293 15.4136 19.1829C15.57 19.0285 15.7593 18.9512 15.9815 18.9512C16.1955 18.9512 16.3765 19.0285 16.5247 19.1829C16.6811 19.3293 16.7593 19.5081 16.7593 19.7195C16.7593 19.939 16.6811 20.126 16.5247 20.2805C16.3765 20.4268 16.1955 20.5 15.9815 20.5Z" fill="currentColor"/>
</svg>
