<svg width="32" height="32" viewBox="0 0 32 32" fill="none" xmlns="http://www.w3.org/2000/svg">
<path fill-rule="evenodd" clip-rule="evenodd" d="M13 20V25.4411C13 25.9934 13.4477 26.4411 14 26.4411H25.9962C26.0617 26.4411 26.1256 26.4348 26.1875 26.4228H26.2186C26.3756 26.4228 26.5226 26.3492 26.6166 26.2255C26.8479 26.0423 26.9962 25.759 26.9962 25.4411V15C26.9962 14.4477 26.5485 14 25.9962 14H20V15H25.9962V24.2604L23.8205 19.5865C23.3211 18.5138 21.8344 18.4146 21.1969 19.4114L19.5988 21.9105C19.4318 22.1715 19.0702 22.2194 18.841 22.0109L18.5991 21.7908C17.9039 21.1583 16.805 21.3137 16.3123 22.1141L14.2645 25.4411H14L14 20H13ZM22.9139 20.0085C22.7474 19.651 22.2518 19.6179 22.0394 19.9502L20.4412 22.4492C19.9405 23.2322 18.8555 23.3761 18.1681 22.7506L17.9262 22.5305C17.6944 22.3197 17.3281 22.3715 17.1639 22.6383L15.45 25.4228H25.4343L22.9139 20.0085Z" fill="#E4E5E6"/>
<path fill-rule="evenodd" clip-rule="evenodd" d="M17 9H9V17H17V9ZM9 8C8.44772 8 8 8.44772 8 9V17C8 17.5523 8.44772 18 9 18H17C17.5523 18 18 17.5523 18 17V9C18 8.44772 17.5523 8 17 8H9Z" fill="#E4E5E6"/>
<path d="M15 11L13 13M13 13L15 15M13 13L11 11M13 13L11 15" stroke="#E4E5E6" stroke-miterlimit="10" stroke-linecap="round" stroke-linejoin="round"/>
</svg>