<svg width="32" height="32" viewBox="0 0 32 32" fill="none" xmlns="http://www.w3.org/2000/svg">
  <circle cx="11.5355" cy="11.5352" r="2.5" transform="rotate(-45 11.5355 11.5352)" stroke="currentColor"/>
  <circle r="2.5" transform="matrix(0.707107 0.707107 0.707107 -0.707107 11.5355 20.5342)" stroke="currentColor"/>
  <path d="M18.6464 18.4239L18.2929 18.0703L19 17.3632L19.3536 17.7168L18.6464 18.4239ZM23.3536 21.7168C23.5488 21.912 23.5488 22.2286 23.3536 22.4239C23.1583 22.6191 22.8417 22.6191 22.6464 22.4239L23.3536 21.7168ZM19.3536 17.7168L23.3536 21.7168L22.6464 22.4239L18.6464 18.4239L19.3536 17.7168Z" fill="currentColor"/>
  <path d="M14 13.0703L15 14.0703" stroke="currentColor" stroke-linecap="square"/>
  <path d="M14.3521 19.354L13.9972 19.7061L13.2929 18.9962L13.6479 18.6441L14.3521 19.354ZM22.6479 9.71536C22.8439 9.52087 23.1605 9.52213 23.355 9.71817C23.5494 9.91421 23.5482 10.2308 23.3521 10.4253L22.6479 9.71536ZM13.6479 18.6441L22.6479 9.71536L23.3521 10.4253L14.3521 19.354L13.6479 18.6441Z" fill="currentColor"/>
  <path d="M14.3521 19.354L13.9972 19.7061L13.2929 18.9962L13.6479 18.6441L14.3521 19.354ZM22.6479 9.71536C22.8439 9.52087 23.1605 9.52213 23.355 9.71817C23.5494 9.91421 23.5482 10.2308 23.3521 10.4253L22.6479 9.71536ZM13.6479 18.6441L22.6479 9.71536L23.3521 10.4253L14.3521 19.354L13.6479 18.6441Z" fill="currentColor"/>
</svg>
