<svg width="32" height="32" viewBox="0 0 32 32" fill="none" xmlns="http://www.w3.org/2000/svg">
<path fill-rule="evenodd" clip-rule="evenodd" d="M13.5 11.5C13.5 12.8807 14.6193 14 16 14C17.3807 14 18.5 12.8807 18.5 11.5C18.5 10.1193 17.3807 9 16 9C14.6193 9 13.5 10.1193 13.5 11.5ZM16 8C14.067 8 12.5 9.567 12.5 11.5C12.5 13.433 14.067 15 16 15C17.933 15 19.5 13.433 19.5 11.5C19.5 9.567 17.933 8 16 8ZM19.8675 17.1336C20.3895 16.2888 21.6105 16.2888 22.1325 17.1336L24.7973 21.4466C25.3449 22.3329 24.7215 23.5 23.6648 23.5H18.3352C17.2785 23.5 16.6552 22.3329 17.2027 21.4466L19.8675 17.1336ZM21.2818 17.6593C21.1506 17.4469 20.8494 17.4469 20.7183 17.6593L18.0534 21.9723C17.9068 22.2096 18.082 22.5 18.3352 22.5H23.6648C23.918 22.5 24.0932 22.2096 23.9466 21.9723L21.2818 17.6593ZM10.4357 17.042L13.8439 19.0097C13.993 19.0958 14.0441 19.2865 13.958 19.4357L11.9903 22.8439C11.9042 22.993 11.7135 23.0441 11.5643 22.958L8.15613 20.9903C8.00699 20.9042 7.95589 20.7135 8.042 20.5643L10.0097 17.1561C10.0958 17.007 10.2865 16.9559 10.4357 17.042ZM9.1437 16.6561C9.50595 16.0287 10.3082 15.8137 10.9357 16.176L14.3439 18.1437C14.9713 18.5059 15.1863 19.3082 14.824 19.9357L12.8563 23.3439C12.4941 23.9713 11.6918 24.1863 11.0643 23.824L7.65613 21.8563C7.0287 21.4941 6.81372 20.6918 7.17597 20.0643L9.1437 16.6561Z" fill="currentColor"/>
</svg>
