<svg width="16" height="16" viewBox="0 0 16 16" fill="none" xmlns="http://www.w3.org/2000/svg">
  <path fill-rule="evenodd" clip-rule="evenodd" d="M8 16C12.4183 16 16 12.4183 16 8C16 3.58172 12.4183 0 8 0C3.58172 0 0 3.58172 0 8C0 12.4183 3.58172 16 8 16ZM7.50112 4C7.22497 4 7.00112 4.22386 7.00112 4.5V4.80071H9.00232V4.5C9.00232 4.22386 8.77846 4 8.50232 4H7.50112ZM6.50112 5.80072L6.49824 5.80071H3.5C3.22386 5.80071 3 5.57685 3 5.30071C3 5.02457 3.22386 4.80071 3.5 4.80071H6.00112V4.5C6.00112 3.67157 6.67269 3 7.50112 3H8.50232C9.33074 3 10.0023 3.67157 10.0023 4.5V4.80071H12.5036C12.7797 4.80071 13.0036 5.02457 13.0036 5.30071C13.0036 5.57685 12.7797 5.80071 12.5036 5.80071H9.50519L9.50232 5.80072L9.49944 5.80071H6.50399L6.50112 5.80072ZM5.20049 7.10145C5.20049 6.82531 4.97664 6.60145 4.70049 6.60145C4.42435 6.60145 4.20049 6.82531 4.20049 7.10145V11.3031C4.20049 12.2425 4.96157 13.0036 5.90098 13.0036H10.1027C11.0421 13.0036 11.8031 12.2425 11.8031 11.3031V7.10145C11.8031 6.82531 11.5793 6.60145 11.3031 6.60145C11.027 6.60145 10.8031 6.82531 10.8031 7.10145V11.3031C10.8031 11.6903 10.4898 12.0036 10.1027 12.0036H5.90098C5.51385 12.0036 5.20049 11.6903 5.20049 11.3031V7.10145ZM7.3013 7.40155C7.3013 7.1254 7.07744 6.90155 6.8013 6.90155C6.52516 6.90155 6.3013 7.1254 6.3013 7.40155V10.4027C6.3013 10.6789 6.52516 10.9027 6.8013 10.9027C7.07744 10.9027 7.3013 10.6789 7.3013 10.4027V7.40155ZM9.20229 6.90155C9.47843 6.90155 9.70229 7.1254 9.70229 7.40155V10.4027C9.70229 10.6789 9.47843 10.9027 9.20229 10.9027C8.92615 10.9027 8.70229 10.6789 8.70229 10.4027V7.40155C8.70229 7.1254 8.92615 6.90155 9.20229 6.90155Z" fill="currentColor"/>
</svg>
