<svg width="32" height="32" viewBox="0 0 32 32" fill="none" xmlns="http://www.w3.org/2000/svg">
<path fill-rule="evenodd" clip-rule="evenodd" d="M14 9.5C14 9.22386 14.2239 9 14.5 9H17.5C17.7761 9 18 9.22386 18 9.5V11H14V9.5ZM13 11H8.5C8.22386 11 8 11.2239 8 11.5C8 11.7761 8.22386 12 8.5 12H13.5H18.5H23.5C23.7761 12 24 11.7761 24 11.5C24 11.2239 23.7761 11 23.5 11H19V9.5C19 8.67157 18.3284 8 17.5 8H14.5C13.6716 8 13 8.67157 13 9.5V11ZM10.5 14C10.7761 14 11 14.2239 11 14.5V21.5C11 22.3289 11.6711 23 12.5 23H19.5C20.3289 23 21 22.3289 21 21.5V14.5C21 14.2239 21.2239 14 21.5 14C21.7761 14 22 14.2239 22 14.5V21.5C22 22.8811 20.8811 24 19.5 24H12.5C11.1189 24 10 22.8811 10 21.5V14.5C10 14.2239 10.2239 14 10.5 14ZM14 14.5C14.2761 14.5 14.5 14.7239 14.5 15V20C14.5 20.2761 14.2761 20.5 14 20.5C13.7239 20.5 13.5 20.2761 13.5 20V15C13.5 14.7239 13.7239 14.5 14 14.5ZM18.5 15C18.5 14.7239 18.2761 14.5 18 14.5C17.7239 14.5 17.5 14.7239 17.5 15V20C17.5 20.2761 17.7239 20.5 18 20.5C18.2761 20.5 18.5 20.2761 18.5 20V15Z" fill="currentColor"/>
</svg>
