<svg width="32" height="32" viewBox="0 0 32 32" fill="none" xmlns="http://www.w3.org/2000/svg">
<path fill-rule="evenodd" clip-rule="evenodd" d="M18.1201 17.7866L18.9534 18.62L19.9401 19.6066L22.4601 22.1266L21.5201 23.0666L18.6534 20.2C17.8201 20.5 16.9334 20.6666 16.0001 20.6666C12.6668 20.6666 9.82008 18.5933 8.66675 15.6666C9.15341 14.4266 9.94675 13.3466 10.9467 12.5L9.26008 10.8133L10.2067 9.87329L12.0601 11.7266L13.0468 12.7133L13.8801 13.5466L14.7267 14.3933L17.2734 16.94L18.1201 17.7866ZM16.0001 12C18.5267 12 20.7801 13.42 21.8801 15.6666C21.4534 16.5466 20.8401 17.2933 20.1067 17.8866L21.0534 18.8333C22.0601 17.9933 22.8534 16.9066 23.3401 15.6733C22.1801 12.74 19.3334 10.6666 16.0001 10.6666C15.0668 10.6666 14.1801 10.8333 13.3467 11.1333L14.4201 12.2C14.9334 12.08 15.4601 12 16.0001 12ZM15.0534 12.8333L16.0934 13.8733C17.0134 13.92 17.7401 14.6533 17.7867 15.5666L18.8267 16.6066C18.9334 16.3133 19.0001 16 19.0001 15.6666C19.0001 14.0133 17.6534 12.6666 16.0001 12.6666C15.6668 12.6666 15.3534 12.7333 15.0534 12.8333ZM15.9068 17.46C14.9868 17.4133 14.2601 16.68 14.2134 15.7666L15.9068 17.46ZM10.1201 15.6666C11.2201 17.9133 13.4734 19.3333 16.0001 19.3333C16.5401 19.3333 17.0668 19.2533 17.5801 19.1333L16.9467 18.5C16.6467 18.6 16.3334 18.6666 16.0001 18.6666C14.3468 18.6666 13.0001 17.32 13.0001 15.6666C13.0001 15.3333 13.0667 15.02 13.1667 14.72L11.8934 13.4466C11.1601 14.04 10.5468 14.7866 10.1201 15.6666Z" fill="black"/>
</svg>
