<svg width="32" height="32" viewBox="0 0 32 32" fill="none" xmlns="http://www.w3.org/2000/svg">
<path fill-rule="evenodd" clip-rule="evenodd" d="M16.0001 10.6666C12.6668 10.6666 9.82008 12.74 8.66675 15.6666C9.82008 18.5933 12.6668 20.6666 16.0001 20.6666C19.3334 20.6666 22.1801 18.5933 23.3334 15.6666C22.1801 12.74 19.3334 10.6666 16.0001 10.6666ZM13.0001 15.6666C13.0001 14.0133 14.3468 12.6666 16.0001 12.6666C17.6534 12.6666 19.0001 14.0133 19.0001 15.6666C19.0001 17.32 17.6534 18.6666 16.0001 18.6666C14.3468 18.6666 13.0001 17.32 13.0001 15.6666ZM14.2001 15.6666C14.2001 16.66 15.0068 17.4666 16.0001 17.4666C16.9934 17.4666 17.8001 16.66 17.8001 15.6666C17.8001 14.6733 16.9934 13.8666 16.0001 13.8666C15.0068 13.8666 14.2001 14.6733 14.2001 15.6666ZM10.1201 15.6666C11.2201 17.9133 13.4734 19.3333 16.0001 19.3333C18.5267 19.3333 20.7801 17.9133 21.8801 15.6666C20.7801 13.42 18.5267 12 16.0001 12C13.4734 12 11.2201 13.42 10.1201 15.6666Z" fill="black"/>
</svg>
