<svg width="32" height="32" viewBox="0 0 32 32" fill="none" xmlns="http://www.w3.org/2000/svg">
<path fill-rule="evenodd" clip-rule="evenodd" d="M14.9677 8.03164C15.4763 7.16858 16.7634 7.16858 17.272 8.03164L25.7783 22.4672C26.3062 23.363 25.5952 24.3849 24.6262 24.3849H7.61351C6.64446 24.3849 5.93351 23.363 6.46137 22.4672L14.9677 8.03164ZM16.1198 8.38434C15.9919 8.38434 15.8858 8.44336 15.8292 8.53931L7.32291 22.9749C7.27075 23.0634 7.27637 23.1549 7.32607 23.2351C7.37709 23.3175 7.47551 23.3849 7.61351 23.3849H24.6262C24.7642 23.3849 24.8626 23.3175 24.9136 23.2351C24.9633 23.1549 24.9689 23.0634 24.9168 22.9749L16.4104 8.53931C16.3539 8.44336 16.2478 8.38434 16.1198 8.38434ZM16.003 12.7176C16.2791 12.7176 16.503 12.9415 16.503 13.2176V17.2177C16.503 17.4939 16.2791 17.7177 16.003 17.7177C15.7268 17.7177 15.503 17.4939 15.503 17.2177V13.2176C15.503 12.9415 15.7268 12.7176 16.003 12.7176ZM16.003 21.2198C16.6755 21.2198 17.2206 20.6747 17.2206 20.0023C17.2206 19.3298 16.6755 18.7847 16.003 18.7847C15.3306 18.7847 14.7855 19.3298 14.7855 20.0023C14.7855 20.6747 15.3306 21.2198 16.003 21.2198Z" fill="currentColor"/>
</svg>
