<svg width="36" height="25" viewBox="0 0 36 25" fill="none" xmlns="http://www.w3.org/2000/svg">
<path d="M32.3686 0.662138C32.182 0.458578 31.8657 0.444827 31.6621 0.631423L28.3449 3.67218C28.1414 3.85878 28.1276 4.17506 28.3142 4.37862C28.5008 4.58218 28.8171 4.59593 29.0207 4.40934L31.9693 1.70644L34.6722 4.65506C34.8588 4.85862 35.1751 4.87237 35.3786 4.68577C35.5822 4.49917 35.5959 4.18289 35.4093 3.97933L32.3686 0.662138ZM31.5864 10.5127L31.0869 10.491L31.5864 10.5127ZM0 24.5H2.1875V23.5H0V24.5ZM6.5625 24.5H10.9375V23.5H6.5625V24.5ZM15.3125 24.5H17.5V23.5H15.3125V24.5ZM17.5 24.5C18.1275 24.5 18.7462 24.4603 19.3537 24.3832L19.2278 23.3912C18.6619 23.463 18.0852 23.5 17.5 23.5V24.5ZM22.9416 23.4514C24.1006 22.9855 25.1867 22.3752 26.1771 21.6424L25.5823 20.8385C24.6595 21.5213 23.6478 22.0897 22.5687 22.5235L22.9416 23.4514ZM28.8541 19.0793C29.6292 18.1216 30.2861 17.0631 30.8019 15.9254L29.8911 15.5125C29.4109 16.5718 28.7991 17.5578 28.0768 18.4501L28.8541 19.0793ZM31.8887 12.3814C31.9921 11.7778 32.0587 11.1613 32.0859 10.5345L31.0869 10.491C31.0615 11.0757 30.9994 11.6503 30.9031 12.2125L31.8887 12.3814ZM32.0859 10.5345L32.1893 8.15628L31.1903 8.11284L31.0869 10.491L32.0859 10.5345ZM32.3961 3.3999L32.4995 1.02172L31.5005 0.978281L31.3971 3.35647L32.3961 3.3999Z" fill="currentColor"/>
</svg>
