<svg width="16" height="16" viewBox="0 0 16 16" fill="none" xmlns="http://www.w3.org/2000/svg">
<path fill-rule="evenodd" clip-rule="evenodd" d="M2.64281 1C2.20711 1 1.78925 1.17308 1.48117 1.48117C1.17308 1.78925 1 2.20711 1 2.64281C1 3.0785 1.17308 3.49636 1.48117 3.80444C1.78925 4.11253 2.20711 4.28561 2.64281 4.28561H4.28561V2.64281C4.28561 2.20711 4.11253 1.78925 3.80444 1.48117C3.49636 1.17308 3.0785 1 2.64281 1ZM0.77406 0.77406C1.26968 0.278438 1.94189 0 2.64281 0C3.34372 0 4.01593 0.278438 4.51155 0.77406C5.00717 1.26968 5.28561 1.94189 5.28561 2.64281V4.28564H10.7153V2.64309C10.7153 1.94217 10.9937 1.26996 11.4893 0.774341C11.985 0.278719 12.6572 0.000280499 13.3581 0.000280499C14.059 0.000280499 14.7312 0.278719 15.2268 0.774341C15.7224 1.26996 16.0009 1.94217 16.0009 2.64309C16.0009 3.344 15.7224 4.01621 15.2268 4.51183C14.7312 5.00745 14.059 5.28589 13.3581 5.28589H11.7123V10.7141H13.3581C14.059 10.7141 14.7312 10.9925 15.2268 11.4881C15.7224 11.9837 16.0009 12.6559 16.0009 13.3569C16.0009 14.0578 15.7224 14.73 15.2268 15.2256C14.7312 15.7212 14.059 15.9997 13.3581 15.9997C12.6572 15.9997 11.985 15.7212 11.4893 15.2256C10.9937 14.73 10.7153 14.0578 10.7153 13.3569V11.7141H5.28589V13.3569C5.28589 14.0578 5.00745 14.73 4.51183 15.2256C4.01621 15.7212 3.344 15.9997 2.64309 15.9997C1.94217 15.9997 1.26996 15.7212 0.774341 15.2256C0.278719 14.73 0.000280499 14.0578 0.000280499 13.3569C0.000280499 12.6559 0.278719 11.9837 0.774341 11.4881C1.26996 10.9925 1.94217 10.7141 2.64309 10.7141H4.28393V5.28561H2.64281C1.94189 5.28561 1.26968 5.00717 0.77406 4.51155C0.278438 4.01593 0 3.34372 0 2.64281C0 1.94189 0.278438 1.26968 0.77406 0.77406ZM5.28393 5.28564V10.7141H10.7123V5.28564H5.28393ZM12.1964 1.48145C12.5045 1.17336 12.9224 1.00028 13.3581 1.00028C13.7938 1.00028 14.2116 1.17336 14.5197 1.48145C14.8278 1.78953 15.0009 2.20739 15.0009 2.64309C15.0009 3.07878 14.8278 3.49664 14.5197 3.80472C14.2116 4.11281 13.7938 4.28589 13.3581 4.28589H11.7153V2.64309C11.7153 2.20739 11.8884 1.78953 12.1964 1.48145ZM2.64309 11.7141C2.20739 11.7141 1.78953 11.8871 1.48145 12.1952C1.17336 12.5033 1.00028 12.9212 1.00028 13.3569C1.00028 13.7926 1.17336 14.2104 1.48145 14.5185C1.78953 14.8266 2.20739 14.9997 2.64309 14.9997C3.07878 14.9997 3.49664 14.8266 3.80472 14.5185C4.11281 14.2104 4.28589 13.7926 4.28589 13.3569V11.7141H2.64309ZM11.7153 13.3569V11.7141H13.3581C13.7938 11.7141 14.2116 11.8871 14.5197 12.1952C14.8278 12.5033 15.0009 12.9212 15.0009 13.3569C15.0009 13.7926 14.8278 14.2104 14.5197 14.5185C14.2116 14.8266 13.7938 14.9997 13.3581 14.9997C12.9224 14.9997 12.5045 14.8266 12.1964 14.5185C11.8884 14.2104 11.7153 13.7926 11.7153 13.3569Z" fill="#EDEFEC"/>
</svg>
