<svg width="16" height="16" viewBox="0 0 16 16" fill="none" xmlns="http://www.w3.org/2000/svg">
  <g transform="translate(1, 1) scale(0.875)">
    <path fill-rule="evenodd" clip-rule="evenodd" d="M1 8C1 4.13401 4.13401 1 8 1C11.866 1 15 4.13401 15 8C15 11.866 11.866 15 8 15C4.13401 15 1 11.866 1 8ZM8 0C3.58172 0 0 3.58172 0 8C0 12.4183 3.58172 16 8 16C12.4183 16 16 12.4183 16 8C16 3.58172 12.4183 0 8 0ZM6.78466 11.3801L11.0606 8.80454C11.6465 8.45164 11.6465 7.54836 11.0606 7.19546L6.78466 4.61989C6.21002 4.27376 5.5 4.71843 5.5 5.42444V10.5756C5.5 11.2816 6.21002 11.7262 6.78466 11.3801Z" fill="#fff"/>
  </g>
</svg>
