<svg xmlns="http://www.w3.org/2000/svg" viewBox="0 0 120 48" width="120" height="48"><path d="M50.5 25.07c0 5.47-4.27 9.5-9.5 9.5s-9.5-4.03-9.5-9.5c0-5.51 4.27-9.5 9.5-9.5s9.5 4 9.5 9.5zm-4.16 0c0-3.42-2.47-5.76-5.34-5.76s-5.34 2.34-5.34 5.76c0 3.38 2.47 5.76 5.34 5.76s5.34-2.37 5.34-5.76zm25.16 0c0 5.47-4.27 9.5-9.5 9.5s-9.5-4.03-9.5-9.5c0-5.51 4.27-9.5 9.5-9.5s9.5 4 9.5 9.5zm-4.16 0c0-3.42-2.47-5.76-5.34-5.76-2.87 0-5.34 2.34-5.34 5.76 0 3.38 2.47 5.76 5.34 5.76 2.87 0 5.34-2.37 5.34-5.76zm24.29-8.92v17.06c0 7.02-4.14 9.9-9.04 9.9-4.61 0-7.38-3.1-8.42-5.62l3.64-1.51c.65 1.55 2.23 3.38 4.79 3.38 3.13 0 5.08-1.94 5.08-5.58v-1.37h-.14c-.94 1.15-2.74 2.16-5 2.16-4.75 0-9.03-4.14-9.03-9.47 0-5.36 4.27-9.54 9.03-9.54 2.27 0 4.07 1.01 5 2.12h.14v-1.55h3.95zm-3.67 8.96c0-3.35-2.23-5.79-5.08-5.79-2.88 0-5.21 2.45-5.21 5.79 0 3.31 2.33 5.72 5.21 5.72 2.85 0 5.08-2.41 5.08-5.72zM99 6.07V34h-4.18V6.07H99zm16.23 22.13l3.24 2.16c-1.04 1.55-3.56 4.21-7.92 4.21-5.4 0-9.43-4.18-9.43-9.5 0-5.65 4.07-9.5 8.96-9.5 4.93 0 7.34 3.92 8.13 6.05l.43 1.08-12.71 5.26c.97 1.91 2.48 2.88 4.61 2.88s3.61-1.05 4.69-2.64zm-9.97-3.41l8.49-3.53c-.47-1.19-1.87-2.02-3.53-2.02-2.12 0-5.07 1.87-4.96 5.55zM29.48 18.2c.16.97.23 1.92.23 2.81 0 3.02-.77 6.77-3.44 9.43-2.59 2.7-5.9 4.14-10.29 4.14C7.84 34.58 1 27.95 1 19.82 1 11.68 7.84 5.06 15.97 5.06c4.5 0 7.7 1.76 10.12 4.07l-2.84 2.84c-1.73-1.62-4.07-2.88-7.27-2.88-5.94 0-10.58 4.79-10.58 10.73s4.64 10.73 10.58 10.73c3.85 0 6.05-1.55 7.45-2.95 1.15-1.15 1.93-2.81 2.23-5.36H16V18.2h13.48z"/></svg>