<svg viewBox="0 0 32 32" fill="none" xmlns="http://www.w3.org/2000/svg">
  <path fill-rule="evenodd" clip-rule="evenodd" d="M9 10.5c0-.82843.67157-1.5 1.5-1.5.8284 0 1.5.67157 1.5 1.5 0 .8284-.6716 1.5-1.5 1.5-.82843 0-1.5-.6716-1.5-1.5zm3.95-.5c-.2316-1.14112-1.2405-2-2.45-2C9.11929 8 8 9.11929 8 10.5c0 1.3807 1.11929 2.5 2.5 2.5 1.2095 0 2.2184-.8589 2.45-2H15c.2761 0 .5.2239.5.5v2.05c-1.1411.2316-2 1.2405-2 2.45 0 1.2095.8589 2.2184 2 2.45v2.05c0 .8284.6716 1.5 1.5 1.5h2.05c.2316 1.1411 1.2405 2 2.45 2 1.3807 0 2.5-1.1193 2.5-2.5S22.8807 19 21.5 19c-1.2095 0-2.2184.8589-2.45 2H17c-.2761 0-.5-.2239-.5-.5v-2.05c1.1411-.2316 2-1.2405 2-2.45 0-1.2095-.8589-2.2184-2-2.45V11.5c0-.8284-.6716-1.5-1.5-1.5h-2.05zM20 21.5c0 .8284.6716 1.5 1.5 1.5s1.5-.6716 1.5-1.5-.6716-1.5-1.5-1.5-1.5.6716-1.5 1.5zM17.5 16c0 .8284-.6716 1.5-1.5 1.5s-1.5-.6716-1.5-1.5.6716-1.5 1.5-1.5 1.5.6716 1.5 1.5z" fill="currentColor"/>
</svg>
