<svg viewBox="0 0 32 32" fill="none" xmlns="http://www.w3.org/2000/svg">
  <path fill-rule="evenodd" clip-rule="evenodd" d="M16 8c-1.6569 0-3 1.34315-3 3v3h-1.5c-.8284 0-1.5.6716-1.5 1.5v7c0 .8284.6716 1.5 1.5 1.5h9c.8284 0 1.5-.6716 1.5-1.5v-7c0-.8284-.6716-1.5-1.5-1.5H19v-3c0-1.65685-1.3431-3-3-3zm2 6v-3c0-1.10457-.8954-2-2-2s-2 .89543-2 2v3h4zm-4.5 1h-2c-.2761 0-.5.2239-.5.5v7c0 .2761.2239.5.5.5h9c.2761 0 .5-.2239.5-.5v-7c0-.2761-.2239-.5-.5-.5h-7zm2.5 5.5c.8284 0 1.5-.6716 1.5-1.5s-.6716-1.5-1.5-1.5-1.5.6716-1.5 1.5.6716 1.5 1.5 1.5z" fill="currentColor"/>
</svg>
