<svg viewBox="0 0 32 32" fill="none" xmlns="http://www.w3.org/2000/svg">
  <path fill-rule="evenodd" clip-rule="evenodd" d="M6 8.5c0-.27614-.22386-.5-.5-.5s-.5.22386-.5.5v15c0 .2761.22386.5.5.5s.5-.2239.5-.5v-15zm10 0c0-.27614-.2239-.5-.5-.5s-.5.22386-.5.5v15c0 .2761.2239.5.5.5s.5-.2239.5-.5v-15zM10 12c-.82843 0-1.5.6716-1.5 1.5v5c0 .8284.67157 1.5 1.5 1.5h1c.8284 0 1.5-.6716 1.5-1.5v-5c0-.8284-.6716-1.5-1.5-1.5h-1zm9.8254 2.6204c-.2097-.1797-.5253-.1555-.705.0542-.1797.2097-.1555.5253.0542.705l3.5 3c.1872.1605.4636.1605.6508 0l3.5-3c.2097-.1797.2339-.4953.0542-.705-.1797-.2097-.4953-.2339-.705-.0542L23 17.3415l-3.1746-2.7211z" fill="currentColor"/>
</svg>
