<svg width="256" height="256" fill="none" xmlns="http://www.w3.org/2000/svg"><path fill="url(#paint0_linear)" d="M0 0h200v200H0z"/><g filter="url(#filter0_d)" fill="#fff"><path d="M130 60c5.523 0 10 4.478 10 10v60.001c0 5.522-4.477 10-10 10v-80zM55 60c0-5.522 4.477-10 10-10h45c5.523 0 10 4.478 10 10v80.001c0 5.522-4.477 10-10 10H65c-5.523 0-10-4.478-10-10v-80zM150 70a7.5 7.5 0 017.5 7.5v45.001a7.5 7.5 0 01-7.5 7.5v-60z"/></g><defs><linearGradient id="paint0_linear" x1="41.421" y1="20.621" x2="110.277" y2="196.221" gradientUnits="userSpaceOnUse"><stop stop-color="#CBACFF"/><stop offset="1" stop-color="#79B3FF"/></linearGradient><filter id="filter0_d" x="28" y="32" width="144" height="144" filterUnits="userSpaceOnUse" color-interpolation-filters="sRGB"><feFlood flood-opacity="0" result="BackgroundImageFix"/><feColorMatrix in="SourceAlpha" values="0 0 0 0 0 0 0 0 0 0 0 0 0 0 0 0 0 0 127 0"/><feOffset dy="4"/><feGaussianBlur stdDeviation="6"/><feColorMatrix values="0 0 0 0 0.423529 0 0 0 0 0.490196 0 0 0 0 0.733333 0 0 0 0.3 0"/><feBlend in2="BackgroundImageFix" result="effect1_dropShadow"/><feBlend in="SourceGraphic" in2="effect1_dropShadow" result="shape"/></filter></defs></svg>
