<svg width="81" height="107" viewBox="0 0 81 107" fill="none" xmlns="http://www.w3.org/2000/svg">
<path d="M57.7239 0.5H4.5C2.29086 0.5 0.5 2.29086 0.5 4.5V102.5C0.5 104.709 2.29086 106.5 4.5 106.5H76.5C78.7091 106.5 80.5 104.709 80.5 102.5V23.0711C80.5 22.0027 80.0725 20.9786 79.3129 20.2272L60.5368 1.65609C59.7879 0.915424 58.7772 0.5 57.7239 0.5Z" fill="#767E80"/>
<path d="M77.1464 22.1464L59.8536 4.85355C59.5386 4.53857 59 4.76166 59 5.20711V22.5C59 22.7761 59.2239 23 59.5 23H76.7929C77.2383 23 77.4614 22.4614 77.1464 22.1464Z" fill="#ADB1B3"/>
<path fill-rule="evenodd" clip-rule="evenodd" d="M41 68.5C49.5604 68.5 56.5 61.5604 56.5 53C56.5 44.4396 49.5604 37.5 41 37.5C32.4396 37.5 25.5 44.4396 25.5 53C25.5 61.5604 32.4396 68.5 41 68.5ZM41 45.25C41.535 45.25 41.9688 45.6837 41.9688 46.2188V52.0312H47.7812C48.3163 52.0312 48.75 52.465 48.75 53C48.75 53.535 48.3163 53.9688 47.7812 53.9688H41.9688V59.7812C41.9688 60.3163 41.535 60.75 41 60.75C40.465 60.75 40.0312 60.3163 40.0312 59.7812V53.9688H34.2188C33.6837 53.9688 33.25 53.535 33.25 53C33.25 52.465 33.6837 52.0312 34.2188 52.0312H40.0312V46.2188C40.0312 45.6837 40.465 45.25 41 45.25Z" fill="#E4E5E6"/>
</svg>
