<svg width="32" height="43" viewBox="0 0 32 43" fill="none" xmlns="http://www.w3.org/2000/svg">
  <path d="M21.9032 0H4C1.79086 0 0 1.79086 0 4V38.4C0 40.6091 1.79086 42.4 4 42.4H28C30.2091 42.4 32 40.6091 32 38.4V10.0303C32 8.96182 31.5725 7.93775 30.8129 7.18638L24.716 1.15609C23.9672 0.415424 22.9564 0 21.9032 0Z" fill="#767E80"/>
  <path d="M30.1463 8.14635L24.2535 2.25346C23.9385 1.93847 23.3999 2.16156 23.3999 2.60701V8.4999C23.3999 8.77604 23.6238 8.9999 23.8999 8.9999H29.7928C30.2382 8.9999 30.4613 8.46133 30.1463 8.14635Z" fill="#ADB1B3"/>
  <path fill-rule="evenodd" clip-rule="evenodd" d="M16 29C20.4183 29 24 25.4183 24 21C24 16.5817 20.4183 13 16 13C11.5817 13 8 16.5817 8 21C8 25.4183 11.5817 29 16 29ZM16 16.5312C16.535 16.5312 16.9688 16.965 16.9688 17.5V20.0312H19.5C20.035 20.0312 20.4688 20.465 20.4688 21C20.4688 21.535 20.035 21.9688 19.5 21.9688H16.9688V24.5C16.9688 25.035 16.535 25.4688 16 25.4688C15.465 25.4688 15.0312 25.035 15.0312 24.5V21.9688H12.5C11.965 21.9688 11.5312 21.535 11.5312 21C11.5312 20.465 11.965 20.0312 12.5 20.0312H15.0312V17.5C15.0312 16.965 15.465 16.5312 16 16.5312Z" fill="#E4E5E6"/>
</svg>
