<svg width="24" height="24" viewBox="0 0 24 24" fill="none" xmlns="http://www.w3.org/2000/svg">
<path d="M7.83333 18C7.3731 18 7 17.5523 7 17V13C7 12.4477 7.3731 12 7.83333 12H16.1667C16.6269 12 17 12.4477 17 13V17" stroke="#393D3F" stroke-miterlimit="10" stroke-linecap="round" stroke-linejoin="round"/>
<path d="M19.2 22H4.8C4.32261 22 3.86477 21.7893 3.52721 21.4142C3.18964 21.0391 3 20.5304 3 20V4C3 3.46957 3.18964 2.96086 3.52721 2.58579C3.86477 2.21071 4.32261 2 4.8 2H16.0546C16.3381 2 16.6083 2.12032 16.7979 2.33104L20.7433 6.71477C20.9086 6.8984 21 7.13669 21 7.38374V20C21 20.5304 20.8104 21.0391 20.4728 21.4142C20.1352 21.7893 19.6774 22 19.2 22Z" stroke="#393D3F" stroke-miterlimit="10" stroke-linecap="round" stroke-linejoin="round"/>
<path d="M15 6V8" stroke="#393D3F" stroke-miterlimit="10" stroke-linecap="round" stroke-linejoin="round"/>
</svg>
