<svg width="240" height="240" fill="none" xmlns="http://www.w3.org/2000/svg"><mask id="a" maskUnits="userSpaceOnUse" x="0" y="0" width="240" height="240"><rect width="240" height="240" rx="120" fill="#FE585A"/></mask><g mask="url(#a)"><rect width="240" height="240" rx="120" fill="#8766FF"/><mask id="b" maskUnits="userSpaceOnUse" x="52" y="70" width="201" height="176"><path d="M52.5 70.714h135l63.808 151.524c5.726 13.598-7.43 27.521-21.33 22.574L63.78 185.664a16.97 16.97 0 0 1-11.28-15.988V70.714z" fill="#190075"/></mask><g mask="url(#b)"><path d="M16.072 176.615c0-69.731 56.527-126.258 126.257-126.258h68.582c53.99 0 102.972 31.632 125.184 80.841 49.235 109.079-54.885 224.564-168.464 186.853l-65.087-21.611c-51.628-17.142-86.472-65.426-86.472-119.825z" fill="#710FEE"/></g><g filter="url(#filter0_d)"><path d="M52.127 82.534h134.66v86.877c0 9.597-7.779 17.376-17.375 17.376h-99.91c-9.596 0-17.375-7.779-17.375-17.376V82.534z" fill="#fff"/><mask id="c" maskUnits="userSpaceOnUse" x="52" y="82" width="135" height="105"><path d="M52.127 82.534h134.66v86.877c0 9.597-7.779 17.376-17.375 17.376h-99.91c-9.596 0-17.375-7.779-17.375-17.376V82.534z" fill="#fff"/></mask><g mask="url(#c)"><path d="M52.127 82.534h134.66v86.877c0 9.597-7.779 17.376-17.375 17.376h-99.91c-9.596 0-17.375-7.779-17.375-17.376V82.534z" fill="#fff" fill-opacity=".8"/><path d="M94.028 223.404l14.9 8.236a65.242 65.242 0 0 0 95.825-45.83l13.991-79.771L38.393 86.227l10.561 102.114 31.469 25.832a90.164 90.164 0 0 0 13.605 9.231z" fill="#E64CC2"/><path d="M36.19 167.137l20.967-7.643c21.424-7.809 44.907-5.408 58.536 12.874 30.225 40.544 91.275 32.163 118.954-10.16l10.232-15.645-61.651-100.82-149.51 12.092 2.472 109.302z" fill="#EF6CDC"/><path d="M45.543 162.625l10.243-10.227c19.708-19.679 51.019-23.812 71.472-4.908 38.168 35.275 98.6-3.51 80.043-52.056l-18.914-49.479L43.28 59.992l2.263 102.633z" fill="#EC8EF7"/><path d="M49.129 158.273l1.621-4.988c11.253-34.614 49.052-54.183 82.302-39.377 31.423 13.993 68.246-9.701 64.361-43.878l-3.757-33.05L38.567 56.16l10.562 102.113z" fill="url(#paint0_radial)"/><path opacity=".5" d="M49.129 158.273l1.621-4.988c11.253-34.614 49.052-54.183 82.302-39.377 31.423 13.993 68.246-9.701 64.361-43.878l-3.757-33.05L38.567 56.16l10.562 102.113z" fill="url(#paint1_radial)"/></g><path d="M52.127 69.097c0-9.372 7.597-16.97 16.97-16.97h100.72c9.373 0 16.97 7.597 16.97 16.97v13.437H52.127V69.097z" fill="#fff"/></g><path d="M74.1 68.387a5.4 5.4 0 1 1-10.8 0 5.4 5.4 0 0 1 10.8 0zm13.928 0a5.4 5.4 0 1 1-10.8 0 5.4 5.4 0 0 1 10.8 0zm13.929 0a5.4 5.4 0 1 1-10.8 0 5.4 5.4 0 0 1 10.8 0z" fill="#EC8EF6"/></g><defs><filter id="filter0_d" x="30.407" y="34.751" width="178.1" height="178.099" filterUnits="userSpaceOnUse" color-interpolation-filters="sRGB"><feFlood flood-opacity="0" result="BackgroundImageFix"/><feColorMatrix in="SourceAlpha" values="0 0 0 0 0 0 0 0 0 0 0 0 0 0 0 0 0 0 127 0"/><feOffset dy="4.344"/><feGaussianBlur stdDeviation="10.86"/><feColorMatrix values="0 0 0 0 0 0 0 0 0 0 0 0 0 0 0 0 0 0 0.2 0"/><feBlend in2="BackgroundImageFix" result="effect1_dropShadow"/><feBlend in="SourceGraphic" in2="effect1_dropShadow" result="shape"/></filter><radialGradient id="paint0_radial" cx="0" cy="0" r="1" gradientUnits="userSpaceOnUse" gradientTransform="matrix(-128.566 37.48087 -30.88496 -105.94084 137.254 97.723)"><stop stop-color="#FED7FF"/><stop offset="1" stop-color="#FFE9FF" stop-opacity="0"/></radialGradient><radialGradient id="paint1_radial" cx="0" cy="0" r="1" gradientUnits="userSpaceOnUse" gradientTransform="rotate(-138.451 113.676 60.605) scale(153.089 126.149)"><stop offset=".495" stop-color="#fff" stop-opacity="0"/><stop offset="1" stop-color="#EA71ED"/></radialGradient></defs></svg>