<svg viewBox="0 0 32 32" fill="none" xmlns="http://www.w3.org/2000/svg">
  <path d="M11 11c0-1.10457.8954-2 2-2h3.3162c.751 0 1.4427.16294 2.0751.48883.6456.32588 1.1594.77557 1.5415 1.34917.3821.5735.5731 1.2058.5731 1.8966 0 .6909-.1778 1.2905-.5336 1.7989-.3425.5084-.7971.8929-1.3636 1.1537v.1173c.7115.2476 1.2846.6583 1.7194 1.2318.4479.5736.6719 1.2449.6719 2.014 0 .7691-.2042 1.4534-.6126 2.0531-.3953.5996-.9355 1.0689-1.6206 1.4078-.6719.3259-1.4098.4888-2.2134.4888H13c-1.1046 0-2-.8954-2-2V11zm5.2174 3.8659c.6324 0 1.1396-.1955 1.5217-.5866.3953-.391.5929-.8408.5929-1.3491 0-.5084-.191-.9516-.5731-1.3296-.3689-.3911-.8564-.5866-1.4625-.5866h-2.583c-.2761 0-.5.2238-.5.5v2.8519c0 .2762.2239.5.5.5h2.504zm.336 6.1006c.6719 0 1.2055-.2086 1.6008-.6257.4084-.4172.6126-.8995.6126-1.4469 0-.5606-.2108-1.0429-.6324-1.447-.4084-.4171-.9618-.6257-1.6601-.6257h-2.7609c-.2761 0-.5.2239-.5.5v3.1453c0 .2761.2239.5.5.5h2.84z" fill="currentColor"/>
</svg>
