<svg viewBox="0 0 32 32" fill="none" xmlns="http://www.w3.org/2000/svg">
  <path fill-rule="evenodd" clip-rule="evenodd" d="M13.5026 10.8256c.694-.5464 1.622-.8256 2.6034-.8256.9679 0 1.8708.2368 2.5631.7686.7039.5407 1.1423 1.3503 1.2283 2.3898.0228.2752-.1819.5167-.4571.5395-.2752.0228-.5167-.1819-.5395-.4571-.065-.7863-.3817-1.3264-.8409-1.6791C17.5892 11.2001 16.9211 11 16.106 11c-.8014 0-1.499.2288-1.9848.6113-.4756.3745-.7662.9075-.7662 1.5883 0 .6.2649 1.0067.613 1.3004h-1.2845c-.1995-.3555-.3285-.7854-.3285-1.3004 0-1.0028.4435-1.8196 1.1476-2.374zM18.5777 17.5h1.1829c.15.3321.2392.7204.2392 1.1729 0 1.016-.4014 1.8702-1.1378 2.4593-.7238.5791-1.7265.8678-2.886.8678-1.1743 0-2.1168-.3222-2.7995-.9103-.6827-.588-1.0577-1.4007-1.1726-2.2918-.0353-.2739.1581-.5245.4319-.5599.2739-.0353.5246.1581.5599.432.0893.6927.3701 1.263.8334 1.6621.4632.3989 1.1567.6679 2.1469.6679 1.0051 0 1.7643-.251 2.2613-.6486.4843-.3875.7625-.9468.7625-1.6785 0-.5233-.1689-.894-.4221-1.1729zM9.5 15.5c-.27614 0-.5.2239-.5.5s.22386.5.5.5h13c.2761 0 .5-.2239.5-.5s-.2239-.5-.5-.5h-13z" fill="currentColor"/>
</svg>
