<svg width="299" height="90" viewBox="0 0 299 90" fill="none" xmlns="http://www.w3.org/2000/svg">
<circle cx="45" cy="45" r="44.5" fill="black" stroke="black"/>
<path d="M58.5 27C60.9853 27 63 29.0147 63 31.5V58.5C63 60.9853 60.9853 63 58.5 63V27Z" fill="white"/>
<path d="M24.75 27C24.75 24.5147 26.7647 22.5 29.25 22.5H49.5C51.9853 22.5 54 24.5147 54 27V63C54 65.4853 51.9853 67.5 49.5 67.5H29.25C26.7647 67.5 24.75 65.4853 24.75 63V27Z" fill="white"/>
<path d="M67.5 31.5C69.364 31.5 70.875 33.011 70.875 34.875V55.125C70.875 56.989 69.364 58.5 67.5 58.5V31.5Z" fill="white"/>
<path d="M113.596 57.0004L106.612 31.2244H109.996L114.676 50.1604L115.108 51.9244H115.252L115.792 50.1604L121.552 31.2244H124.72L130.228 50.1604L130.768 51.9244H130.912L135.988 31.2244H139.372L132.424 57.0004H129.256L123.784 38.3524L123.208 36.3364H123.064L122.452 38.3524L116.764 57.0004H113.596Z" fill="black"/>
<path d="M148.397 57.5764C146.621 57.5764 145.037 57.1564 143.645 56.3164C142.277 55.4764 141.197 54.3244 140.405 52.8604C139.637 51.3964 139.253 49.7284 139.253 47.8564C139.253 46.1044 139.613 44.4844 140.333 42.9964C141.077 41.5084 142.109 40.3204 143.429 39.4324C144.773 38.5204 146.345 38.0644 148.145 38.0644C149.969 38.0644 151.529 38.4724 152.825 39.2884C154.145 40.0804 155.153 41.1844 155.849 42.6004C156.569 44.0164 156.929 45.6364 156.929 47.4604C156.929 47.6284 156.917 47.7964 156.893 47.9644C156.893 48.1324 156.881 48.2764 156.857 48.3964H142.313C142.409 49.8364 142.757 51.0364 143.357 51.9964C143.981 52.9324 144.749 53.6404 145.661 54.1204C146.573 54.5764 147.521 54.8044 148.505 54.8044C149.849 54.8044 150.953 54.4924 151.817 53.8684C152.705 53.2204 153.413 52.4284 153.941 51.4924L156.533 52.7524C155.813 54.1444 154.781 55.2964 153.437 56.2084C152.093 57.1204 150.413 57.5764 148.397 57.5764ZM148.145 40.8364C146.657 40.8364 145.421 41.3044 144.437 42.2404C143.453 43.1764 142.805 44.3884 142.493 45.8764H153.689C153.665 45.1804 153.461 44.4484 153.077 43.6804C152.717 42.8884 152.141 42.2164 151.349 41.6644C150.557 41.1124 149.489 40.8364 148.145 40.8364Z" fill="black"/>
<path d="M169.834 57.5764C168.37 57.5764 167.086 57.2404 165.982 56.5684C164.878 55.8964 164.074 55.1404 163.57 54.3004H163.426V57.0004H160.51V31.2244H163.57V38.8204L163.426 41.3764H163.57C164.074 40.5124 164.878 39.7444 165.982 39.0724C167.086 38.4004 168.37 38.0644 169.834 38.0644C171.514 38.0644 173.014 38.4844 174.334 39.3244C175.654 40.1644 176.698 41.3164 177.466 42.7804C178.234 44.2444 178.618 45.9244 178.618 47.8204C178.618 49.7164 178.234 51.3964 177.466 52.8604C176.698 54.3244 175.654 55.4764 174.334 56.3164C173.014 57.1564 171.514 57.5764 169.834 57.5764ZM169.51 54.8044C170.566 54.8044 171.55 54.5284 172.462 53.9764C173.398 53.4004 174.142 52.5844 174.694 51.5284C175.27 50.4724 175.558 49.2364 175.558 47.8204C175.558 46.3804 175.27 45.1444 174.694 44.1124C174.142 43.0564 173.398 42.2524 172.462 41.7004C171.55 41.1244 170.566 40.8364 169.51 40.8364C168.454 40.8364 167.458 41.1244 166.522 41.7004C165.61 42.2524 164.866 43.0564 164.29 44.1124C163.714 45.1444 163.426 46.3804 163.426 47.8204C163.426 49.2604 163.714 50.5084 164.29 51.5644C164.866 52.5964 165.61 53.4004 166.522 53.9764C167.458 54.5284 168.454 54.8044 169.51 54.8044Z" fill="black"/>
<path d="M197.256 57.5764C196.008 57.5764 194.772 57.3124 193.548 56.7844C192.324 56.2564 191.244 55.4764 190.308 54.4444C189.372 53.4124 188.688 52.1284 188.256 50.5924L191.172 49.4044C191.58 50.8924 192.324 52.1404 193.404 53.1484C194.484 54.1564 195.792 54.6604 197.328 54.6604C198.288 54.6604 199.164 54.4924 199.956 54.1564C200.772 53.7964 201.42 53.2804 201.9 52.6084C202.404 51.9364 202.656 51.1204 202.656 50.1604C202.656 48.8884 202.176 47.8804 201.216 47.1364C200.28 46.3684 198.888 45.6604 197.04 45.0124L195.42 44.4364C194.46 44.0764 193.5 43.6204 192.54 43.0684C191.58 42.5164 190.788 41.7964 190.164 40.9084C189.54 39.9964 189.228 38.8564 189.228 37.4884C189.228 36.2404 189.564 35.1004 190.236 34.0684C190.908 33.0364 191.832 32.2084 193.008 31.5844C194.184 30.9604 195.54 30.6484 197.076 30.6484C198.684 30.6484 200.028 30.9484 201.108 31.5484C202.212 32.1244 203.076 32.8204 203.7 33.6364C204.348 34.4284 204.78 35.1604 204.996 35.8324L202.152 37.0564C202.008 36.5524 201.732 36.0364 201.324 35.5084C200.916 34.9564 200.364 34.5004 199.668 34.1404C198.996 33.7564 198.144 33.5644 197.112 33.5644C196.272 33.5644 195.48 33.7324 194.736 34.0684C194.016 34.4044 193.428 34.8724 192.972 35.4724C192.54 36.0484 192.324 36.7204 192.324 37.4884C192.324 38.5684 192.756 39.4204 193.62 40.0444C194.484 40.6684 195.648 41.2324 197.112 41.7364L198.804 42.3124C199.572 42.5764 200.352 42.9004 201.144 43.2844C201.96 43.6684 202.716 44.1604 203.412 44.7604C204.108 45.3604 204.672 46.1044 205.104 46.9924C205.536 47.8564 205.752 48.9004 205.752 50.1244C205.752 51.4444 205.488 52.5844 204.96 53.5444C204.456 54.4804 203.784 55.2484 202.944 55.8484C202.104 56.4484 201.18 56.8804 200.172 57.1444C199.188 57.4324 198.216 57.5764 197.256 57.5764Z" fill="black"/>
<path d="M215.801 57.2884C214.265 57.2884 213.029 56.8444 212.093 55.9564C211.157 55.0444 210.689 53.7844 210.689 52.1764V41.4124H207.485V38.6404H210.689V33.4564H213.749V38.6404H218.249V41.4124H213.749V51.4204C213.749 52.3804 213.941 53.1244 214.325 53.6524C214.733 54.1804 215.393 54.4444 216.305 54.4444C216.713 54.4444 217.085 54.3844 217.421 54.2644C217.757 54.1444 218.057 54.0004 218.321 53.8324V56.8204C218.009 56.9644 217.661 57.0724 217.277 57.1444C216.917 57.2404 216.425 57.2884 215.801 57.2884Z" fill="black"/>
<path d="M229.58 57.5764C227.732 57.5764 226.1 57.1444 224.684 56.2804C223.268 55.4164 222.152 54.2524 221.336 52.7884C220.544 51.3004 220.148 49.6444 220.148 47.8204C220.148 45.9964 220.544 44.3524 221.336 42.8884C222.152 41.4004 223.268 40.2244 224.684 39.3604C226.1 38.4964 227.732 38.0644 229.58 38.0644C231.428 38.0644 233.06 38.5084 234.476 39.3964C235.892 40.2604 236.996 41.4364 237.788 42.9244C238.604 44.3884 239.012 46.0204 239.012 47.8204C239.012 49.6444 238.604 51.3004 237.788 52.7884C236.996 54.2524 235.892 55.4164 234.476 56.2804C233.06 57.1444 231.428 57.5764 229.58 57.5764ZM229.58 54.8044C230.684 54.8044 231.716 54.5284 232.676 53.9764C233.66 53.4244 234.452 52.6324 235.052 51.6004C235.652 50.5444 235.952 49.2844 235.952 47.8204C235.952 46.3564 235.652 45.1084 235.052 44.0764C234.452 43.0204 233.66 42.2164 232.676 41.6644C231.716 41.1124 230.684 40.8364 229.58 40.8364C228.476 40.8364 227.432 41.1124 226.448 41.6644C225.464 42.2164 224.672 43.0204 224.072 44.0764C223.472 45.1084 223.172 46.3564 223.172 47.8204C223.172 49.2844 223.472 50.5444 224.072 51.6004C224.672 52.6324 225.464 53.4244 226.448 53.9764C227.432 54.5284 228.476 54.8044 229.58 54.8044Z" fill="black"/>
<path d="M242.213 57.0004V38.6404H245.129V41.5924H245.273C245.513 40.8964 245.909 40.2964 246.461 39.7924C247.037 39.2644 247.685 38.8564 248.405 38.5684C249.149 38.2564 249.881 38.1004 250.601 38.1004C251.153 38.1004 251.585 38.1364 251.897 38.2084C252.209 38.2564 252.497 38.3404 252.761 38.4604V41.7724C251.993 41.3884 251.129 41.1964 250.169 41.1964C249.281 41.1964 248.465 41.4484 247.721 41.9524C246.977 42.4564 246.377 43.1284 245.921 43.9684C245.489 44.8084 245.273 45.7324 245.273 46.7404V57.0004H242.213Z" fill="black"/>
<path d="M257.513 35.2564C256.913 35.2564 256.397 35.0404 255.965 34.6084C255.533 34.1764 255.317 33.6604 255.317 33.0604C255.317 32.4364 255.533 31.9204 255.965 31.5124C256.397 31.0804 256.913 30.8644 257.513 30.8644C258.137 30.8644 258.653 31.0804 259.061 31.5124C259.493 31.9204 259.709 32.4364 259.709 33.0604C259.709 33.6604 259.493 34.1764 259.061 34.6084C258.653 35.0404 258.137 35.2564 257.513 35.2564ZM256.001 57.0004V38.6404H259.061V57.0004H256.001Z" fill="black"/>
<path d="M271.831 57.5764C270.055 57.5764 268.471 57.1564 267.079 56.3164C265.711 55.4764 264.631 54.3244 263.839 52.8604C263.071 51.3964 262.687 49.7284 262.687 47.8564C262.687 46.1044 263.047 44.4844 263.767 42.9964C264.511 41.5084 265.543 40.3204 266.863 39.4324C268.207 38.5204 269.779 38.0644 271.579 38.0644C273.403 38.0644 274.963 38.4724 276.259 39.2884C277.579 40.0804 278.587 41.1844 279.283 42.6004C280.003 44.0164 280.363 45.6364 280.363 47.4604C280.363 47.6284 280.351 47.7964 280.327 47.9644C280.327 48.1324 280.315 48.2764 280.291 48.3964H265.747C265.843 49.8364 266.191 51.0364 266.791 51.9964C267.415 52.9324 268.183 53.6404 269.095 54.1204C270.007 54.5764 270.955 54.8044 271.939 54.8044C273.283 54.8044 274.387 54.4924 275.251 53.8684C276.139 53.2204 276.847 52.4284 277.375 51.4924L279.967 52.7524C279.247 54.1444 278.215 55.2964 276.871 56.2084C275.527 57.1204 273.847 57.5764 271.831 57.5764ZM271.579 40.8364C270.091 40.8364 268.855 41.3044 267.871 42.2404C266.887 43.1764 266.239 44.3884 265.927 45.8764H277.123C277.099 45.1804 276.895 44.4484 276.511 43.6804C276.151 42.8884 275.575 42.2164 274.783 41.6644C273.991 41.1124 272.923 40.8364 271.579 40.8364Z" fill="black"/>
<path d="M290.528 57.5764C288.464 57.5764 286.784 57.0964 285.488 56.1364C284.192 55.1524 283.292 53.9884 282.788 52.6444L285.524 51.4204C286.004 52.5244 286.688 53.3764 287.576 53.9764C288.488 54.5764 289.472 54.8764 290.528 54.8764C291.608 54.8764 292.568 54.6484 293.408 54.1924C294.272 53.7364 294.704 53.0644 294.704 52.1764C294.704 51.3604 294.344 50.7244 293.624 50.2684C292.928 49.8124 291.944 49.4284 290.672 49.1164L288.44 48.5404C287.576 48.3004 286.76 47.9644 285.992 47.5324C285.224 47.1004 284.6 46.5484 284.12 45.8764C283.664 45.1804 283.436 44.3404 283.436 43.3564C283.436 42.2524 283.76 41.3044 284.408 40.5124C285.056 39.7204 285.908 39.1204 286.964 38.7124C288.02 38.2804 289.148 38.0644 290.348 38.0644C291.908 38.0644 293.324 38.4124 294.596 39.1084C295.892 39.7804 296.804 40.7524 297.332 42.0244L294.668 43.2484C294.212 42.3364 293.6 41.7004 292.832 41.3404C292.064 40.9804 291.224 40.8004 290.312 40.8004C289.352 40.8004 288.476 41.0284 287.684 41.4844C286.916 41.9164 286.532 42.5164 286.532 43.2844C286.532 44.0524 286.832 44.6284 287.432 45.0124C288.056 45.3964 288.812 45.7084 289.7 45.9484L292.364 46.6324C295.988 47.5684 297.8 49.3444 297.8 51.9604C297.8 53.1124 297.476 54.1084 296.828 54.9484C296.18 55.7884 295.304 56.4364 294.2 56.8924C293.096 57.3484 291.872 57.5764 290.528 57.5764Z" fill="black"/>
</svg>
