<svg width="261" height="54" viewBox="0 0 261 54" fill="none" xmlns="http://www.w3.org/2000/svg">
<path d="M40.4709 9C42.9544 9 44.9677 11.0147 44.9677 13.5V40.5C44.9677 42.9853 42.9544 45 40.4709 45V9Z" fill="black"/>
<path d="M6.74512 9C6.74512 6.51472 8.75839 4.5 11.2419 4.5H31.4773C33.9608 4.5 35.9741 6.51472 35.9741 9V45C35.9741 47.4853 33.9608 49.5 31.4773 49.5H11.2419C8.75839 49.5 6.74512 47.4853 6.74512 45V9Z" fill="black"/>
<path d="M49.4644 13.5C51.327 13.5 52.837 15.011 52.837 16.875V37.125C52.837 38.989 51.327 40.5 49.4644 40.5V13.5Z" fill="black"/>
<path d="M76.9287 39.8881L69.9497 14.1121H73.3313L78.0079 33.0481L78.4396 34.8121H78.5835L79.1231 33.0481L84.879 14.1121H88.0447L93.5487 33.0481L94.0884 34.8121H94.2323L99.3046 14.1121H102.686L95.7432 39.8881H92.5774L87.1094 21.2401L86.5338 19.2241H86.3899L85.7783 21.2401L80.0944 39.8881H76.9287Z" fill="black"/>
<path d="M111.705 40.4641C109.93 40.4641 108.347 40.0441 106.956 39.2041C105.589 38.3641 104.51 37.2121 103.718 35.7481C102.951 34.2841 102.567 32.6161 102.567 30.7441C102.567 28.9921 102.927 27.3721 103.647 25.8841C104.39 24.3961 105.421 23.2081 106.74 22.3201C108.083 21.4081 109.654 20.9521 111.453 20.9521C113.276 20.9521 114.834 21.3601 116.13 22.1761C117.449 22.9681 118.456 24.0721 119.151 25.4881C119.871 26.9041 120.231 28.5241 120.231 30.3481C120.231 30.5161 120.219 30.6841 120.195 30.8521C120.195 31.0201 120.183 31.1641 120.159 31.2841H105.625C105.721 32.7241 106.069 33.9241 106.668 34.8841C107.292 35.8201 108.059 36.5281 108.971 37.0081C109.882 37.4641 110.829 37.6921 111.813 37.6921C113.156 37.6921 114.259 37.3801 115.122 36.7561C116.01 36.1081 116.717 35.3161 117.245 34.3801L119.835 35.6401C119.115 37.0321 118.084 38.1841 116.741 39.0961C115.398 40.0081 113.719 40.4641 111.705 40.4641ZM111.453 23.7241C109.966 23.7241 108.731 24.1921 107.748 25.1281C106.764 26.0641 106.117 27.2761 105.805 28.7641H116.993C116.969 28.0681 116.765 27.3361 116.381 26.5681C116.022 25.7761 115.446 25.1041 114.655 24.5521C113.863 24.0001 112.796 23.7241 111.453 23.7241Z" fill="black"/>
<path d="M133.126 40.4641C131.664 40.4641 130.38 40.1281 129.277 39.4561C128.174 38.7841 127.371 38.0281 126.867 37.1881H126.723V39.8881H123.809V14.1121H126.867V21.7081L126.723 24.2641H126.867C127.371 23.4001 128.174 22.6321 129.277 21.9601C130.38 21.2881 131.664 20.9521 133.126 20.9521C134.805 20.9521 136.304 21.3721 137.623 22.2121C138.942 23.0521 139.986 24.2041 140.753 25.6681C141.52 27.1321 141.904 28.8121 141.904 30.7081C141.904 32.6041 141.52 34.2841 140.753 35.7481C139.986 37.2121 138.942 38.3641 137.623 39.2041C136.304 40.0441 134.805 40.4641 133.126 40.4641ZM132.803 37.6921C133.858 37.6921 134.841 37.4161 135.753 36.8641C136.688 36.2881 137.431 35.4721 137.983 34.4161C138.559 33.3601 138.846 32.1241 138.846 30.7081C138.846 29.2681 138.559 28.0321 137.983 27.0001C137.431 25.9441 136.688 25.1401 135.753 24.5881C134.841 24.0121 133.858 23.7241 132.803 23.7241C131.747 23.7241 130.752 24.0121 129.817 24.5881C128.906 25.1401 128.162 25.9441 127.586 27.0001C127.011 28.0321 126.723 29.2681 126.723 30.7081C126.723 32.1481 127.011 33.3961 127.586 34.4521C128.162 35.4841 128.906 36.2881 129.817 36.8641C130.752 37.4161 131.747 37.6921 132.803 37.6921Z" fill="black"/>
<path d="M160.528 40.4641C159.281 40.4641 158.046 40.2001 156.823 39.6721C155.6 39.1441 154.521 38.3641 153.585 37.3321C152.65 36.3001 151.967 35.0161 151.535 33.4801L154.449 32.2921C154.856 33.7801 155.6 35.0281 156.679 36.0361C157.758 37.0441 159.065 37.5481 160.6 37.5481C161.56 37.5481 162.435 37.3801 163.226 37.0441C164.042 36.6841 164.689 36.1681 165.169 35.4961C165.673 34.8241 165.925 34.0081 165.925 33.0481C165.925 31.7761 165.445 30.7681 164.486 30.0241C163.55 29.2561 162.159 28.5481 160.313 27.9001L158.694 27.3241C157.734 26.9641 156.775 26.5081 155.816 25.9561C154.856 25.4041 154.065 24.6841 153.441 23.7961C152.818 22.8841 152.506 21.7441 152.506 20.3761C152.506 19.1281 152.842 17.9881 153.513 16.9561C154.185 15.9241 155.108 15.0961 156.283 14.4721C157.459 13.8481 158.814 13.5361 160.349 13.5361C161.955 13.5361 163.298 13.8361 164.378 14.4361C165.481 15.0121 166.344 15.7081 166.968 16.5241C167.615 17.3161 168.047 18.0481 168.263 18.7201L165.421 19.9441C165.277 19.4401 165.001 18.9241 164.593 18.3961C164.186 17.8441 163.634 17.3881 162.939 17.0281C162.267 16.6441 161.416 16.4521 160.384 16.4521C159.545 16.4521 158.754 16.6201 158.01 16.9561C157.291 17.2921 156.703 17.7601 156.247 18.3601C155.816 18.9361 155.6 19.6081 155.6 20.3761C155.6 21.4561 156.032 22.3081 156.895 22.9321C157.758 23.5561 158.922 24.1201 160.384 24.6241L162.075 25.2001C162.843 25.4641 163.622 25.7881 164.414 26.1721C165.229 26.5561 165.984 27.0481 166.68 27.6481C167.375 28.2481 167.939 28.9921 168.371 29.8801C168.802 30.7441 169.018 31.7881 169.018 33.0121C169.018 34.3321 168.754 35.4721 168.227 36.4321C167.723 37.3681 167.052 38.1361 166.212 38.7361C165.373 39.3361 164.45 39.7681 163.442 40.0321C162.459 40.3201 161.488 40.4641 160.528 40.4641Z" fill="black"/>
<path d="M179.06 40.1761C177.525 40.1761 176.29 39.7321 175.355 38.8441C174.419 37.9321 173.952 36.6721 173.952 35.0641V24.3001H170.75V21.5281H173.952V16.3441H177.009V21.5281H181.506V24.3001H177.009V34.3081C177.009 35.2681 177.201 36.0121 177.585 36.5401C177.993 37.0681 178.652 37.3321 179.563 37.3321C179.971 37.3321 180.343 37.2721 180.679 37.1521C181.014 37.0321 181.314 36.8881 181.578 36.7201V39.7081C181.266 39.8521 180.919 39.9601 180.535 40.0321C180.175 40.1281 179.683 40.1761 179.06 40.1761Z" fill="black"/>
<path d="M192.829 40.4641C190.982 40.4641 189.351 40.0321 187.936 39.1681C186.521 38.3041 185.406 37.1401 184.591 35.6761C183.799 34.1881 183.404 32.5321 183.404 30.7081C183.404 28.8841 183.799 27.2401 184.591 25.7761C185.406 24.2881 186.521 23.1121 187.936 22.2481C189.351 21.3841 190.982 20.9521 192.829 20.9521C194.676 20.9521 196.306 21.3961 197.721 22.2841C199.136 23.1481 200.24 24.3241 201.031 25.8121C201.846 27.2761 202.254 28.9081 202.254 30.7081C202.254 32.5321 201.846 34.1881 201.031 35.6761C200.24 37.1401 199.136 38.3041 197.721 39.1681C196.306 40.0321 194.676 40.4641 192.829 40.4641ZM192.829 37.6921C193.932 37.6921 194.963 37.4161 195.923 36.8641C196.906 36.3121 197.697 35.5201 198.297 34.4881C198.897 33.4321 199.196 32.1721 199.196 30.7081C199.196 29.2441 198.897 27.9961 198.297 26.9641C197.697 25.9081 196.906 25.1041 195.923 24.5521C194.963 24.0001 193.932 23.7241 192.829 23.7241C191.726 23.7241 190.683 24.0001 189.699 24.5521C188.716 25.1041 187.924 25.9081 187.325 26.9641C186.725 27.9961 186.426 29.2441 186.426 30.7081C186.426 32.1721 186.725 33.4321 187.325 34.4881C187.924 35.5201 188.716 36.3121 189.699 36.8641C190.683 37.4161 191.726 37.6921 192.829 37.6921Z" fill="black"/>
<path d="M205.454 39.8881V21.5281H208.368V24.4801H208.511C208.751 23.7841 209.147 23.1841 209.699 22.6801C210.274 22.1521 210.922 21.7441 211.641 21.4561C212.385 21.1441 213.116 20.9881 213.836 20.9881C214.387 20.9881 214.819 21.0241 215.131 21.0961C215.442 21.1441 215.73 21.2281 215.994 21.3481V24.6601C215.227 24.2761 214.363 24.0841 213.404 24.0841C212.517 24.0841 211.701 24.3361 210.958 24.8401C210.214 25.3441 209.615 26.0161 209.159 26.8561C208.727 27.6961 208.511 28.6201 208.511 29.6281V39.8881H205.454Z" fill="black"/>
<path d="M220.743 18.1441C220.143 18.1441 219.627 17.9281 219.196 17.4961C218.764 17.0641 218.548 16.5481 218.548 15.9481C218.548 15.3241 218.764 14.8081 219.196 14.4001C219.627 13.9681 220.143 13.7521 220.743 13.7521C221.366 13.7521 221.882 13.9681 222.29 14.4001C222.721 14.8081 222.937 15.3241 222.937 15.9481C222.937 16.5481 222.721 17.0641 222.29 17.4961C221.882 17.9281 221.366 18.1441 220.743 18.1441ZM219.232 39.8881V21.5281H222.29V39.8881H219.232Z" fill="black"/>
<path d="M235.05 40.4641C233.275 40.4641 231.692 40.0441 230.301 39.2041C228.934 38.3641 227.855 37.2121 227.063 35.7481C226.296 34.2841 225.912 32.6161 225.912 30.7441C225.912 28.9921 226.272 27.3721 226.991 25.8841C227.735 24.3961 228.766 23.2081 230.085 22.3201C231.428 21.4081 232.999 20.9521 234.798 20.9521C236.621 20.9521 238.179 21.3601 239.475 22.1761C240.794 22.9681 241.801 24.0721 242.496 25.4881C243.216 26.9041 243.576 28.5241 243.576 30.3481C243.576 30.5161 243.564 30.6841 243.54 30.8521C243.54 31.0201 243.528 31.1641 243.504 31.2841H228.97C229.066 32.7241 229.414 33.9241 230.013 34.8841C230.637 35.8201 231.404 36.5281 232.316 37.0081C233.227 37.4641 234.174 37.6921 235.158 37.6921C236.501 37.6921 237.604 37.3801 238.467 36.7561C239.355 36.1081 240.062 35.3161 240.59 34.3801L243.18 35.6401C242.46 37.0321 241.429 38.1841 240.086 39.0961C238.743 40.0081 237.064 40.4641 235.05 40.4641ZM234.798 23.7241C233.311 23.7241 232.076 24.1921 231.093 25.1281C230.109 26.0641 229.462 27.2761 229.15 28.7641H240.338C240.314 28.0681 240.11 27.3361 239.726 26.5681C239.367 25.7761 238.791 25.1041 238 24.5521C237.208 24.0001 236.141 23.7241 234.798 23.7241Z" fill="black"/>
<path d="M253.733 40.4641C251.671 40.4641 249.992 39.9841 248.697 39.0241C247.402 38.0401 246.502 36.8761 245.999 35.5321L248.733 34.3081C249.212 35.4121 249.896 36.2641 250.783 36.8641C251.695 37.4641 252.678 37.7641 253.733 37.7641C254.812 37.7641 255.772 37.5361 256.611 37.0801C257.475 36.6241 257.906 35.9521 257.906 35.0641C257.906 34.2481 257.546 33.6121 256.827 33.1561C256.131 32.7001 255.148 32.3161 253.877 32.0041L251.647 31.4281C250.783 31.1881 249.968 30.8521 249.2 30.4201C248.433 29.9881 247.809 29.4361 247.33 28.7641C246.874 28.0681 246.646 27.2281 246.646 26.2441C246.646 25.1401 246.97 24.1921 247.618 23.4001C248.265 22.6081 249.117 22.0081 250.172 21.6001C251.227 21.1681 252.354 20.9521 253.553 20.9521C255.112 20.9521 256.527 21.3001 257.798 21.9961C259.093 22.6681 260.005 23.6401 260.532 24.9121L257.87 26.1361C257.415 25.2241 256.803 24.5881 256.036 24.2281C255.268 23.8681 254.429 23.6881 253.517 23.6881C252.558 23.6881 251.683 23.9161 250.891 24.3721C250.124 24.8041 249.74 25.4041 249.74 26.1721C249.74 26.9401 250.04 27.5161 250.639 27.9001C251.263 28.2841 252.018 28.5961 252.906 28.8361L255.568 29.5201C259.189 30.4561 261 32.2321 261 34.8481C261 36.0001 260.676 36.9961 260.029 37.8361C259.381 38.6761 258.506 39.3241 257.403 39.7801C256.299 40.2361 255.076 40.4641 253.733 40.4641Z" fill="black"/>
</svg>