<svg width="208" height="208" viewBox="0 0 208 208" fill="none" xmlns="http://www.w3.org/2000/svg">
<circle cx="100" cy="100" r="100" fill="black"/>
<path d="M135.2 62.4005C140.944 62.4005 145.6 67.0567 145.6 72.8005V135.2C145.6 140.944 140.944 145.6 135.2 145.6V62.4005Z" fill="white"/>
<path d="M57.2 62.4005C57.2 56.6567 61.8562 52.0005 67.6 52.0005H114.4C120.144 52.0005 124.8 56.6567 124.8 62.4005V145.6C124.8 151.344 120.144 156 114.4 156H67.6C61.8562 156 57.2 151.344 57.2 145.6V62.4005Z" fill="white"/>
<path d="M156 72.8005C160.308 72.8005 163.8 76.2927 163.8 80.6005V127.4C163.8 131.708 160.308 135.2 156 135.2V72.8005Z" fill="white"/>
</svg>