<svg viewBox="0 0 24 22" xmlns="http://www.w3.org/2000/svg" fill-rule="evenodd" clip-rule="evenodd" stroke-linejoin="round" stroke-miterlimit="2">
  <path d="M10.674.784c.578-1.045 2.074-1.045 2.653 0l10.48 18.947c.559 1.011-.161 2.269-1.326 2.269H1.52C.354 22-.366 20.742.193 19.731L10.674.784zm1.777.485c-.198-.358-.704-.358-.902 0L1.068 20.215c-.198.358.063.785.452.785h20.961c.388 0 .649-.427.451-.785L12.451 1.269zM12 6.5c.276 0 .5.224.5.5v7c0 .276-.224.5-.5.5s-.5-.224-.5-.5V7c0-.276.224-.5.5-.5zm0 12c.828 0 1.5-.672 1.5-1.5s-.672-1.5-1.5-1.5c-.829 0-1.5.672-1.5 1.5s.671 1.5 1.5 1.5z"/>
</svg>
