<svg width="240" height="240" viewBox="0 0 240 240" fill="none" xmlns="http://www.w3.org/2000/svg">
<mask id="mask0" mask-type="alpha" maskUnits="userSpaceOnUse" x="0" y="0" width="240" height="240">
<rect width="240" height="240" rx="120" fill="#FE585A"/>
</mask>
<g mask="url(#mask0)">
<rect width="240" height="240" rx="120" fill="#2F2F2F"/>
<mask id="mask1" mask-type="alpha" maskUnits="userSpaceOnUse" x="52" y="70" width="201" height="176">
<path d="M52.5 70.7139H187.5L251.308 222.238C257.034 235.836 243.878 249.759 229.978 244.812L63.7802 185.664C57.017 183.257 52.5 176.855 52.5 169.676V70.7139Z" fill="#190075"/>
</mask>
<g mask="url(#mask1)">
<path d="M16.0715 176.615C16.0715 106.885 72.5989 50.3572 142.329 50.3572H210.911C264.901 50.3572 313.883 81.9888 336.095 131.198C385.33 240.277 281.21 355.762 167.631 318.051L102.544 296.44C50.9154 279.298 16.0715 231.014 16.0715 176.615Z" fill="#151515"/>
</g>
<g filter="url(#filter0_d)">
<path d="M52.1267 82.5342H186.787V169.412C186.787 179.008 179.008 186.788 169.412 186.788H69.5023C59.906 186.788 52.1267 179.008 52.1267 169.412V82.5342Z" fill="white"/>
<mask id="mask2" mask-type="alpha" maskUnits="userSpaceOnUse" x="52" y="82" width="135" height="105">
<path d="M52.1267 82.5342H186.787V169.412C186.787 179.008 179.008 186.788 169.412 186.788H69.5023C59.906 186.788 52.1267 179.008 52.1267 169.412V82.5342Z" fill="white"/>
</mask>
<g mask="url(#mask2)">
<path d="M52.1267 82.5342H186.787V169.412C186.787 179.008 179.008 186.788 169.412 186.788H69.5023C59.906 186.788 52.1267 179.008 52.1267 169.412V82.5342Z" fill="white" fill-opacity="0.8"/>
<path d="M94.0278 223.404L108.928 231.64C128.533 242.477 152.326 242.498 171.951 231.696C189.273 222.162 201.337 205.286 204.753 185.81L218.744 106.039L38.3928 86.2274L48.9543 188.341L80.4225 214.173C84.6673 217.658 89.2213 220.748 94.0278 223.404Z" fill="#5F5F5F"/>
<path d="M36.1896 167.137L57.1568 159.494C78.5812 151.685 102.064 154.086 115.693 172.368C145.918 212.912 206.968 204.531 234.647 162.208L244.879 146.563L183.228 45.743L33.7185 57.835L36.1896 167.137Z" fill="#8C8C8C"/>
<path d="M45.5427 162.625L55.7855 152.398C75.494 132.719 106.805 128.586 127.258 147.49C165.426 182.765 225.858 143.98 207.301 95.4338L188.386 45.9552L43.28 59.992L45.5427 162.625Z" fill="#A4A4A4"/>
<path d="M49.1283 158.273L50.7499 153.285C62.0031 118.671 99.8019 99.1023 133.052 113.908C164.475 127.901 201.298 104.207 197.413 70.0298L193.656 36.9807L38.5668 56.1598L49.1283 158.273Z" fill="url(#paint0_radial)"/>
<path opacity="0.5" d="M49.1283 158.273L50.7499 153.285C62.0031 118.671 99.8019 99.1023 133.052 113.908C164.475 127.901 201.298 104.207 197.413 70.0298L193.656 36.9807L38.5668 56.1598L49.1283 158.273Z" fill="url(#paint1_radial)"/>
</g>
<path d="M52.1267 69.0968C52.1267 59.7245 59.7245 52.1267 69.0968 52.1267H169.817C179.19 52.1267 186.787 59.7245 186.787 69.0968V82.5339H52.1267V69.0968Z" fill="white"/>
</g>
<path d="M74.0998 68.3865C74.0998 71.3688 71.6821 73.7865 68.6998 73.7865C65.7175 73.7865 63.2998 71.3688 63.2998 68.3865C63.2998 65.4041 65.7175 62.9865 68.6998 62.9865C71.6821 62.9865 74.0998 65.4041 74.0998 68.3865Z" fill="#8C8C8C"/>
<path d="M88.0284 68.3865C88.0284 71.3688 85.6107 73.7865 82.6284 73.7865C79.646 73.7865 77.2284 71.3688 77.2284 68.3865C77.2284 65.4041 79.646 62.9865 82.6284 62.9865C85.6107 62.9865 88.0284 65.4041 88.0284 68.3865Z" fill="#8C8C8C"/>
<path d="M101.957 68.3865C101.957 71.3688 99.5393 73.7865 96.5569 73.7865C93.5746 73.7865 91.1569 71.3688 91.1569 68.3865C91.1569 65.4041 93.5746 62.9865 96.5569 62.9865C99.5393 62.9865 101.957 65.4041 101.957 68.3865Z" fill="#8C8C8C"/>
</g>
<defs>
<filter id="filter0_d" x="30.4073" y="34.7511" width="178.1" height="178.1" filterUnits="userSpaceOnUse" color-interpolation-filters="sRGB">
<feFlood flood-opacity="0" result="BackgroundImageFix"/>
<feColorMatrix in="SourceAlpha" type="matrix" values="0 0 0 0 0 0 0 0 0 0 0 0 0 0 0 0 0 0 127 0"/>
<feOffset dy="4.34389"/>
<feGaussianBlur stdDeviation="10.8597"/>
<feColorMatrix type="matrix" values="0 0 0 0 0 0 0 0 0 0 0 0 0 0 0 0 0 0 0.2 0"/>
<feBlend mode="normal" in2="BackgroundImageFix" result="effect1_dropShadow"/>
<feBlend mode="normal" in="SourceGraphic" in2="effect1_dropShadow" result="shape"/>
</filter>
<radialGradient id="paint0_radial" cx="0" cy="0" r="1" gradientUnits="userSpaceOnUse" gradientTransform="translate(111.855 115.656) rotate(170.2) scale(121.226 99.8929)">
<stop stop-color="white"/>
<stop offset="1" stop-color="#CFCFCF" stop-opacity="0"/>
</radialGradient>
<radialGradient id="paint1_radial" cx="0" cy="0" r="1" gradientUnits="userSpaceOnUse" gradientTransform="translate(158.552 181.357) rotate(-138.451) scale(153.089 126.149)">
<stop offset="0.494792" stop-color="#FCFCFC" stop-opacity="0"/>
<stop offset="1" stop-color="#C4C4C4"/>
</radialGradient>
</defs>
</svg>
