<?xml version="1.0" encoding="utf-8"?><svg xmlns="http://www.w3.org/2000/svg" viewBox="0 0 334.76 333.23"><circle cx="167.38" cy="166.62" r="166.62" fill="#ce2b88"/><path d="M71.18 204.77l48.28 47.28v.27l.14-.13.08.08v-.16l47.72-47.02 48.2 47.2v.29l.15-.14.09.09v-.18l47.76-47.06v-29.65l-47.76 47.06v-17.52l47.76-47.06v-29.64l-47.76 47.06v-17.52l47.76-47.06V81.3l-47.97 47.27-48.16-47.52-.12-.12v.24l-47.85 47.15-48.32-47.66v124.11zm96.15-93.96v17.52l-47.66 46.96v-17.52l47.66-46.96zm-47.66 111.64v-17.52l47.66-46.96v17.52l-47.66 46.96z" fill="#fff"/></svg>