<svg width="20" height="20" viewBox="0 0 20 20" fill="none" xmlns="http://www.w3.org/2000/svg">
  <path fill-rule="evenodd" clip-rule="evenodd" d="M10 20C15.5228 20 20 15.5228 20 10C20 4.47715 15.5228 0 10 0C4.47715 0 0 4.47715 0 10C0 15.5228 4.47715 20 10 20ZM5.50024 6C5.50024 5.44772 5.94796 5 6.50024 5H11.0002C11.5525 5 12.0002 5.44772 12.0002 6V14C12.0002 14.5523 11.5525 15 11.0002 15H6.50024C5.94796 15 5.50024 14.5523 5.50024 14V6ZM13.0002 6C13.5525 6 14.0002 6.44772 14.0002 7V13C14.0002 13.5523 13.5525 14 13.0002 14V6ZM15.7502 7.75C15.7502 7.33579 15.4145 7 15.0002 7V13C15.4145 13 15.7502 12.6642 15.7502 12.25V7.75Z" fill="currentColor"/>
</svg>
