<svg viewBox="0 0 32 32" fill="none" xmlns="http://www.w3.org/2000/svg">
  <path fill-rule="evenodd" clip-rule="evenodd" d="M17.6722 11.5785l-7.5145 7.5145c-.0698.0698-.1174.1587-.1367.2555l-.51046 2.5521c-.06997.3499.23849.6584.58836.5884l2.5521-.5104c.0968-.0194.1857-.067.2555-.1368l7.5145-7.5145-2.7488-2.7488zm3.3463-2.63916c-.5858-.58579-1.5355-.58579-2.1213 0L9.4506 18.3859c-.2094.2094-.35213.4761-.41021.7665l-.51043 2.5521c-.20991 1.0496.71547 1.975 1.76504 1.7651l2.5521-.5105c.2904-.058.5571-.2008.7665-.4102l9.4466-9.4465c.5858-.5858.5858-1.5356 0-2.1214l-2.0417-2.04166z" fill="currentColor"/>
</svg>