<svg viewBox="0 0 32 32" fill="none" xmlns="http://www.w3.org/2000/svg">
  <path fill-rule="evenodd" clip-rule="evenodd" d="M15.4722 8c-.8284 0-1.5.67157-1.5 1.5v.45263c0 .21237-.148.43827-.413.55217-.4211.1809-.8175.407-1.183.6726-.2295.1668-.4937.1812-.6752.0783l-.4471-.2537c-.7128-.4043-1.6181-.1618-2.03334.5446l-.51345.8735c-.42438.722-.17536 1.6517.55308 2.0649l.40387.229c.18483.1049.30793.3458.27426.6343-.02486.2131-.03827.4304-.03827.6517 0 .2211.01343.4384.03832.6517.03367.2884-.08944.5294-.27431.6343l-.40387.229c-.72845.4132-.97746 1.3429-.55308 2.0649l.51357.8737c.41517.7063 1.32032.9489 2.03302.5447l.4477-.2538c.1816-.103.4461-.0884.6759.0786.365.2653.7611.4911 1.1819.6716.2657.114.4141.3402.4141.5527V22.5c0 .8284.6715 1.5 1.5 1.5h1.0541c.8284 0 1.5-.6716 1.5-1.5v-.4524c0-.2124.1481-.4384.4133-.5522.4213-.181.8177-.4071 1.183-.6725.2292-.1664.4931-.1809.6745-.078l.4488.2544c.7127.4042 1.6178.1616 2.033-.5447l.5136-.8737c.4243-.722.1753-1.6517-.5531-2.0649l-.4073-.231c-.1843-.1045-.3066-.3435-.2733-.6288.025-.2146.0387-.4334.0387-.6562 0-.2213-.0134-.4386-.0383-.6517-.0337-.2885.0894-.5294.2743-.6343l.4038-.229c.7285-.4132.9775-1.3429.5531-2.0649l-.5134-.8735c-.4153-.7065-1.3206-.9489-2.0333-.5446l-.4466.2534c-.1816.103-.4461.0885-.676-.0786-.3649-.2653-.761-.491-1.1818-.6715-.2657-.114-.414-.3402-.414-.55271V9.5c0-.82843-.6716-1.5-1.5-1.5h-1.0542zm-.5 1.5c0-.27614.2239-.5.5-.5h1.0542c.2761 0 .5.22386.5.5v.45259c0 .68621.4595 1.23141 1.0198 1.47171.3521.151.6832.3398.988.5613.4839.3518 1.1714.472 1.7574.1396l.4466-.2534c.2376-.1348.5394-.054.6778.1815l.5134.8736c.1415.2406.0585.5505-.1843.6882l-.4039.2291c-.5997.3402-.845 1.0127-.7742 1.62.0206.1764.0316.355.0316.5358 0 .1819-.0111.362-.032.5403-.0708.6069.1761 1.2759.7732 1.6145l.4073.2311c.2428.1377.3258.4476.1844.6882l-.5136.8738c-.1384.2354-.4401.3162-.6777.1815l-.4488-.2544c-.5851-.3318-1.2717-.2125-1.7554.1389-.3056.222-.6372.4111-.9899.5626-.5599.2405-1.0187.7855-1.0187 1.4711V22.5c0 .2761-.2238.5-.5.5h-1.0541c-.2762 0-.5-.2239-.5-.5v-.4526c0-.6862-.4596-1.2314-1.0199-1.4717-.3521-.1511-.6832-.3399-.9881-.5614-.4838-.3517-1.1712-.472-1.7571-.1397l-.4478.2538c-.2375.1347-.5392.0539-.6776-.1815l-.51359-.8738c-.14146-.2406-.05845-.5505.18436-.6882l.40383-.2291c.5997-.3402.8451-1.0126.7742-1.6201-.0206-.1766-.0316-.3552-.0316-.5357 0-.1808.011-.3594.0316-.5358.0709-.6073-.1745-1.2798-.7742-1.62l-.40383-.2291c-.24281-.1377-.32582-.4476-.18436-.6882l.51349-.8736c.1384-.2355.4402-.3163.6777-.1815l.4471.2536c.5856.3322 1.2728.2126 1.7566-.1391.3056-.2221.6373-.4113.9898-.5628.5598-.2405 1.0183-.7855 1.0183-1.47087V9.5zM14.5 16c0-.8284.6716-1.5 1.5-1.5s1.5.6716 1.5 1.5-.6716 1.5-1.5 1.5-1.5-.6716-1.5-1.5zm1.5-2.5c-1.3807 0-2.5 1.1193-2.5 2.5s1.1193 2.5 2.5 2.5 2.5-1.1193 2.5-2.5-1.1193-2.5-2.5-2.5z" fill="currentColor"/>
</svg>
