<svg viewBox="0 0 24 16" height="28" width="24" xmlns="http://www.w3.org/2000/svg" fill-rule="evenodd" clip-rule="evenodd" stroke-linejoin="round" stroke-miterlimit="2">
    <g transform="matrix(1.00066 0 0 1 -2.001 -6)">
        <clipPath id="a">
            <path d="M2.016 6.067H26v16H2.016z"/>
        </clipPath>
        <g clip-path="url(#a)">
            <path d="M21.35 12.04A7.49 7.49 0 0014 6c-2.89 0-5.4 1.64-6.65 4.04A5.994 5.994 0 002 16c0 3.31 2.69 6 6 6h13c2.76 0 5-2.24 5-5 0-2.64-2.05-4.78-4.65-4.96zM21 20H8c-2.21 0-4-1.79-4-4 0-2.05 1.53-3.76 3.56-3.97l1.07-.11.5-.95A5.469 5.469 0 0114 8c2.62 0 4.88 1.86 5.39 4.43l.3 1.5 1.53.11A2.98 2.98 0 0124 17c0 1.65-1.35 3-3 3zm-8.45-5H10l4-4 4 4h-2.55v3h-2.9v-3z" fill="currentColor"/>
        </g>
    </g>
</svg>

