<svg width="240" height="240" fill="none" xmlns="http://www.w3.org/2000/svg"><circle cx="120" cy="120" r="120" fill="red"/><path fill-rule="evenodd" clip-rule="evenodd" d="M65.683 65.136c-13.002.444-23.575 10.522-24.418 23.505C40.6 98.865 40 110.799 40 120.5s.6 21.635 1.265 31.859c.843 12.983 11.416 23.061 24.418 23.505 15.854.541 37.094 1.136 53.817 1.136 16.865 0 38.627-.605 54.795-1.15 13.011-.438 23.598-10.521 24.442-23.512.663-10.22 1.263-22.143 1.263-31.838s-.6-21.618-1.263-31.838c-.844-12.992-11.431-23.074-24.442-23.512-16.168-.545-37.93-1.15-54.795-1.15-16.723 0-37.963.595-53.817 1.136zM105 98v44.5l39-21.5-39-23z" fill="#fff"/></svg>