<svg viewBox="0 0 29 29" fill="none" xmlns="http://www.w3.org/2000/svg">
<path fill-rule="evenodd" clip-rule="evenodd" d="M18.179 11.0613L19.0124 11.0599C19.929 11.0583 20.6803 11.8071 20.6818 12.7237L20.6958 21.0571C20.6973 21.9737 19.9486 22.725 19.0319 22.7265L9.03192 22.7433C8.11526 22.7448 7.364 21.9961 7.36247 21.0794L7.3485 12.7461C7.34697 11.8294 8.09571 11.0782 9.01238 11.0766L9.84571 11.0752L9.84291 9.40857C9.83906 7.10857 11.7026 5.23878 14.0026 5.23492C16.3026 5.23107 18.1724 7.09461 18.1762 9.3946L18.179 11.0613ZM14.0054 6.90157C12.6221 6.90389 11.5073 8.02242 11.5096 9.40575L11.5124 11.0724L16.5124 11.064L16.5096 9.39737C16.5073 8.01404 15.3888 6.89925 14.0054 6.90157ZM9.02917 21.0766L9.01521 12.7433L19.0152 12.7265L19.0292 21.0599L9.02917 21.0766ZM15.6888 16.8988C15.6903 17.8154 14.9416 18.5667 14.0249 18.5682C13.1083 18.5698 12.357 17.821 12.3555 16.9044C12.3539 15.9877 13.1027 15.2364 14.0193 15.2349C14.936 15.2334 15.6873 15.9821 15.6888 16.8988Z" fill="currentColor"/>
</svg>
