<svg viewBox="0 0 212 64" fill="none" xmlns="http://www.w3.org/2000/svg">
  <circle cx="32" cy="32" r="32" transform="rotate(-180 32 32)" fill="url(#paint0_linear)"/>
  <g filter="url(#filter0_d)" fill="#fff">
    <path d="M41.6001 19.2002c1.7673 0 3.2 1.4327 3.2 3.2v19.2c0 1.7674-1.4327 3.2-3.2 3.2v-25.6zM17.6001 19.2002c0-1.7673 1.4327-3.2 3.2-3.2h14.4c1.7673 0 3.2 1.4327 3.2 3.2v25.6c0 1.7674-1.4327 3.2-3.2 3.2h-14.4c-1.7673 0-3.2-1.4326-3.2-3.2v-25.6zM48.0001 22.4002c1.3255 0 2.4 1.0746 2.4 2.4v14.4c0 1.3255-1.0745 2.4-2.4 2.4v-19.2z"/>
  </g>
  <path d="M80.7796 40.3998l-4.9664-18.3296h2.4064l3.328 13.4656.3072 1.2544h.1024l.384-1.2544 4.096-13.4656H88.69l3.9168 13.4656.384 1.2544h.1024l3.6096-14.72h2.4064l-4.9408 18.3296h-2.2528L88.0244 27.139l-.4096-1.4336h-.1024l-.4352 1.4336-4.0448 13.2608h-2.2528zM105.527 40.8094c-1.263 0-2.389-.2986-3.379-.896-.973-.5973-1.741-1.4165-2.3042-2.4576-.5461-1.041-.8192-2.2272-.8192-3.5584 0-1.2458.256-2.3978.768-3.456.5294-1.0581 1.2634-1.9029 2.2014-2.5344.956-.6485 2.074-.9728 3.354-.9728 1.297 0 2.406.2902 3.328.8704.938.5632 1.655 1.3483 2.15 2.3552.512 1.007.768 2.159.768 3.456 0 .1195-.008.239-.025.3584 0 .1195-.009.2219-.026.3072h-10.342c.068 1.024.315 1.8774.742 2.56.444.6656.99 1.1691 1.638 1.5104.649.3243 1.323.4864 2.023.4864.956 0 1.741-.2218 2.355-.6656.632-.4608 1.135-1.024 1.51-1.6896l1.844.896c-.512.9899-1.246 1.8091-2.202 2.4576-.956.6486-2.15.9728-3.584.9728zm-.179-11.904c-1.058 0-1.937.3328-2.637.9984s-1.161 1.5275-1.382 2.5856h7.961c-.017-.4949-.162-1.0154-.435-1.5616-.256-.5632-.666-1.041-1.229-1.4336-.563-.3925-1.322-.5888-2.278-.5888zM120.771 40.8094c-1.041 0-1.954-.2389-2.739-.7168-.785-.4778-1.357-1.0154-1.715-1.6128h-.103v1.92h-2.073V22.0702h2.176v5.4016l-.103 1.8176h.103c.358-.6144.93-1.1605 1.715-1.6384.785-.4778 1.698-.7168 2.739-.7168 1.195 0 2.262.2987 3.2.896.939.5974 1.681 1.4166 2.227 2.4576.547 1.0411.82 2.2358.82 3.584 0 1.3483-.273 2.543-.82 3.584-.546 1.0411-1.288 1.8603-2.227 2.4576-.938.5974-2.005.896-3.2.896zm-.23-1.9712c.751 0 1.451-.1962 2.099-.5888.666-.4096 1.195-.9898 1.587-1.7408.41-.7509.615-1.6298.615-2.6368 0-1.024-.205-1.9029-.615-2.6368-.392-.7509-.921-1.3226-1.587-1.7152-.648-.4096-1.348-.6144-2.099-.6144-.751 0-1.459.2048-2.125.6144-.648.3926-1.178.9643-1.587 1.7152-.41.7339-.615 1.6128-.615 2.6368s.205 1.9115.615 2.6624c.409.7339.939 1.3056 1.587 1.7152.666.3926 1.374.5888 2.125.5888zM140.271 40.8094c-.887 0-1.766-.1877-2.637-.5632-.87-.3754-1.638-.9301-2.304-1.664-.665-.7338-1.152-1.6469-1.459-2.7392l2.074-.8448c.29 1.0582.819 1.9456 1.587 2.6624.768.7168 1.698 1.0752 2.79 1.0752.683 0 1.306-.1194 1.869-.3584.58-.256 1.041-.6229 1.382-1.1008.359-.4778.538-1.0581.538-1.7408 0-.9045-.341-1.6213-1.024-2.1504-.666-.5461-1.655-1.0496-2.97-1.5104l-1.152-.4096c-.682-.256-1.365-.5802-2.048-.9728-.682-.3925-1.245-.9045-1.689-1.536-.444-.6485-.666-1.4592-.666-2.432 0-.8874.239-1.6981.717-2.432.478-.7338 1.135-1.3226 1.971-1.7664.837-.4437 1.801-.6656 2.893-.6656 1.143 0 2.099.2134 2.867.64.785.4096 1.4.9046 1.843 1.4848.461.5632.768 1.0838.922 1.5616l-2.022.8704c-.103-.3584-.299-.7253-.589-1.1008-.29-.3925-.683-.7168-1.178-.9728-.478-.273-1.083-.4096-1.817-.4096-.598 0-1.161.1195-1.69.3584-.512.239-.93.5718-1.254.9984-.308.4096-.461.8875-.461 1.4336 0 .768.307 1.3739.921 1.8176.615.4438 1.443.8448 2.484 1.2032l1.203.4096c.546.1878 1.101.4182 1.664.6912.58.2731 1.118.623 1.613 1.0496.495.4267.896.9558 1.203 1.5872.307.6144.461 1.3568.461 2.2272 0 .9387-.188 1.7494-.564 2.432-.358.6656-.836 1.2118-1.433 1.6384-.598.4267-1.255.7339-1.971.9216-.7.2048-1.391.3072-2.074.3072zM153.458 40.6046c-1.092 0-1.971-.3157-2.636-.9472-.666-.6485-.999-1.5445-.999-2.688V29.315h-2.278v-1.9712h2.278v-3.6864h2.176v3.6864h3.2v1.9712h-3.2v7.1168c0 .6827.137 1.2118.41 1.5872.29.3755.759.5632 1.408.5632.29 0 .555-.0426.793-.128.239-.0853.453-.1877.64-.3072v2.1248c-.221.1024-.469.1792-.742.2304-.256.0683-.606.1024-1.05.1024zM163.257 40.8094c-1.314 0-2.475-.3072-3.482-.9216-1.007-.6144-1.8-1.4421-2.381-2.4832-.563-1.0581-.844-2.2357-.844-3.5328 0-1.297.281-2.4661.844-3.5072.581-1.0581 1.374-1.8944 2.381-2.5088 1.007-.6144 2.168-.9216 3.482-.9216s2.474.3158 3.481.9472c1.007.6144 1.792 1.4507 2.356 2.5088.58 1.0411.87 2.2016.87 3.4816 0 1.2971-.29 2.4747-.87 3.5328-.564 1.0411-1.349 1.8688-2.356 2.4832-1.007.6144-2.167.9216-3.481.9216zm0-1.9712c.785 0 1.519-.1962 2.201-.5888.7-.3925 1.263-.9557 1.69-1.6896.427-.7509.64-1.6469.64-2.688 0-1.041-.213-1.9285-.64-2.6624-.427-.7509-.99-1.3226-1.69-1.7152-.682-.3925-1.416-.5888-2.201-.5888-.785 0-1.528.1963-2.227.5888-.7.3926-1.263.9643-1.69 1.7152-.427.7339-.64 1.6214-.64 2.6624 0 1.0411.213 1.9371.64 2.688.427.7339.99 1.2971 1.69 1.6896.699.3926 1.442.5888 2.227.5888zM172.241 40.3998v-13.056h2.073v2.0992h.103c.17-.4949.452-.9216.845-1.28.409-.3754.87-.6656 1.382-.8704.529-.2218 1.05-.3328 1.562-.3328.392 0 .699.0256.921.0768.222.0342.427.0939.615.1792v2.3552c-.547-.273-1.161-.4096-1.844-.4096-.631 0-1.211.1792-1.74.5376-.529.3584-.956.8363-1.28 1.4336-.308.5974-.461 1.2544-.461 1.9712v7.296h-2.176zM183.121 24.9374c-.427 0-.794-.1536-1.101-.4608-.307-.3072-.461-.6741-.461-1.1008 0-.4437.154-.8106.461-1.1008.307-.3072.674-.4608 1.101-.4608.444 0 .81.1536 1.101.4608.307.2902.46.6571.46 1.1008 0 .4267-.153.7936-.46 1.1008-.291.3072-.657.4608-1.101.4608zm-1.075 15.4624v-13.056h2.176v13.056h-2.176zM193.302 40.8094c-1.263 0-2.389-.2986-3.379-.896-.973-.5973-1.741-1.4165-2.304-2.4576-.546-1.041-.819-2.2272-.819-3.5584 0-1.2458.256-2.3978.768-3.456.529-1.0581 1.263-1.9029 2.201-2.5344.956-.6485 2.074-.9728 3.354-.9728 1.297 0 2.406.2902 3.328.8704.939.5632 1.655 1.3483 2.15 2.3552.512 1.007.768 2.159.768 3.456 0 .1195-.008.239-.025.3584 0 .1195-.009.2219-.026.3072h-10.342c.068 1.024.315 1.8774.742 2.56.444.6656.99 1.1691 1.638 1.5104.649.3243 1.323.4864 2.023.4864.956 0 1.741-.2218 2.355-.6656.632-.4608 1.135-1.024 1.51-1.6896l1.844.896c-.512.9899-1.246 1.8091-2.202 2.4576-.956.6486-2.15.9728-3.584.9728zm-.179-11.904c-1.058 0-1.937.3328-2.637.9984s-1.16 1.5275-1.382 2.5856h7.961c-.017-.4949-.162-1.0154-.435-1.5616-.256-.5632-.666-1.041-1.229-1.4336-.563-.3925-1.322-.5888-2.278-.5888zM206.598 40.8094c-1.468 0-2.663-.3413-3.584-1.024-.922-.6997-1.562-1.5274-1.92-2.4832l1.945-.8704c.342.7851.828 1.391 1.459 1.8176.649.4267 1.349.64 2.1.64.768 0 1.45-.1621 2.048-.4864.614-.3242.921-.8021.921-1.4336 0-.5802-.256-1.0325-.768-1.3568-.495-.3242-1.194-.5973-2.099-.8192l-1.587-.4096c-.615-.1706-1.195-.4096-1.741-.7168s-.99-.6997-1.331-1.1776c-.324-.4949-.487-1.0922-.487-1.792 0-.785.231-1.4592.692-2.0224.46-.5632 1.066-.9898 1.817-1.28.751-.3072 1.553-.4608 2.407-.4608 1.109 0 2.116.2475 3.02.7424.922.4779 1.571 1.1691 1.946 2.0736l-1.894.8704c-.325-.6485-.76-1.1008-1.306-1.3568s-1.143-.384-1.792-.384c-.683 0-1.306.1622-1.869.4864-.546.3072-.819.7339-.819 1.28 0 .5462.213.9558.64 1.2288.444.2731.981.495 1.613.6656l1.894.4864c2.577.6656 3.866 1.9286 3.866 3.7888 0 .8192-.231 1.5275-.691 2.1248-.461.5974-1.084 1.0582-1.869 1.3824-.785.3243-1.656.4864-2.611.4864z" fill="#000"/>
  <defs>
    <linearGradient id="paint0_linear" x1="13.2548" y1="6.59883" x2="35.2888" y2="62.7907" gradientUnits="userSpaceOnUse">
      <stop stop-color="#79B3FF"/>
      <stop offset="1" stop-color="#CBACFF"/>
    </linearGradient>
    <filter id="filter0_d" x="8.96005" y="10.24" width="46.08" height="46.08" filterUnits="userSpaceOnUse" color-interpolation-filters="sRGB">
      <feFlood flood-opacity="0" result="BackgroundImageFix"/>
      <feColorMatrix in="SourceAlpha" values="0 0 0 0 0 0 0 0 0 0 0 0 0 0 0 0 0 0 127 0"/>
      <feOffset dy="1.28"/>
      <feGaussianBlur stdDeviation="1.92"/>
      <feColorMatrix values="0 0 0 0 0.423529 0 0 0 0 0.490196 0 0 0 0 0.733333 0 0 0 0.3 0"/>
      <feBlend in2="BackgroundImageFix" result="effect1_dropShadow"/>
      <feBlend in="SourceGraphic" in2="effect1_dropShadow" result="shape"/>
    </filter>
  </defs>
</svg>