<svg width="208" height="208" viewBox="0 0 208 208" fill="none" xmlns="http://www.w3.org/2000/svg">
<circle cx="104" cy="104" r="104" transform="rotate(-180 104 104)" fill="url(#paint0_linear)"/>
<g filter="url(#filter0_d)">
<path d="M135.2 62.401C140.944 62.401 145.6 67.0572 145.6 72.801V135.201C145.6 140.945 140.944 145.601 135.2 145.601V62.401Z" fill="white"/>
<path d="M57.2003 62.401C57.2003 56.6572 61.8566 52.001 67.6003 52.001H114.4C120.144 52.001 124.8 56.6572 124.8 62.401V145.601C124.8 151.345 120.144 156.001 114.4 156.001H67.6003C61.8566 156.001 57.2003 151.345 57.2003 145.601V62.401Z" fill="white"/>
<path d="M156 72.801C160.308 72.801 163.8 76.2932 163.8 80.601V127.401C163.8 131.709 160.308 135.201 156 135.201V72.801Z" fill="white"/>
</g>
<defs>
<filter id="filter0_d" x="29.6003" y="33.6001" width="148.8" height="148.8" filterUnits="userSpaceOnUse" color-interpolation-filters="sRGB">
<feFlood flood-opacity="0" result="BackgroundImageFix"/>
<feColorMatrix in="SourceAlpha" type="matrix" values="0 0 0 0 0 0 0 0 0 0 0 0 0 0 0 0 0 0 127 0"/>
<feOffset dy="4"/>
<feGaussianBlur stdDeviation="6"/>
<feColorMatrix type="matrix" values="0 0 0 0 0.423529 0 0 0 0 0.490196 0 0 0 0 0.733333 0 0 0 0.3 0"/>
<feBlend mode="normal" in2="BackgroundImageFix" result="effect1_dropShadow"/>
<feBlend mode="normal" in="SourceGraphic" in2="effect1_dropShadow" result="shape"/>
</filter>
<linearGradient id="paint0_linear" x1="43.0782" y1="21.4462" x2="114.688" y2="204.07" gradientUnits="userSpaceOnUse">
<stop stop-color="#79B3FF"/>
<stop offset="1" stop-color="#CBACFF"/>
</linearGradient>
</defs>
</svg>