<svg width="42" height="24" viewBox="0 0 42 24" fill="none" xmlns="http://www.w3.org/2000/svg"><circle cx="21" cy="12" r="11" fill="white" stroke="#347BB5" stroke-width="2"/><mask id="path-2-inside-1" fill="white"><path fill-rule="evenodd" clip-rule="evenodd" d="M34.8033 17.8807C35.5736 16.0749 36 14.0872 36 12C36 9.91277 35.5736 7.9251 34.8033 6.11933C35.19 6.04108 35.5902 6 36 6C39.3137 6 42 8.68629 42 12C42 15.3137 39.3137 18 36 18C35.5902 18 35.19 17.9589 34.8033 17.8807Z"/></mask><path d="M34.8033 17.8807L32.9637 17.0959L32.0005 19.354L34.4066 19.8409L34.8033 17.8807ZM34.8033 6.11933L34.4066 4.15908L32.0005 4.64604L32.9637 6.90407L34.8033 6.11933ZM34 12C34 13.8126 33.6301 15.5337 32.9637 17.0959L36.643 18.6654C37.5172 16.6161 38 14.3618 38 12H34ZM32.9637 6.90407C33.6301 8.46629 34 10.1874 34 12H38C38 9.63816 37.5172 7.38392 36.643 5.3346L32.9637 6.90407ZM35.2001 8.07959C35.4569 8.02761 35.7242 8 36 8V4C35.4562 4 34.9232 4.05454 34.4066 4.15908L35.2001 8.07959ZM36 8C38.2091 8 40 9.79086 40 12H44C44 7.58172 40.4182 4 36 4V8ZM40 12C40 14.2091 38.2091 16 36 16V20C40.4182 20 44 16.4183 44 12H40ZM36 16C35.7242 16 35.4569 15.9724 35.2001 15.9204L34.4066 19.8409C34.9231 19.9455 35.4562 20 36 20V16Z" fill="#347BB5" mask="url(#path-2-inside-1)"/><mask id="path-4-inside-2" fill="white"><path fill-rule="evenodd" clip-rule="evenodd" d="M7.19661 6.11934C6.80993 6.04108 6.40976 6 6 6C2.68629 6 0 8.68629 0 12C0 15.3137 2.68629 18 6 18C6.40976 18 6.80993 17.9589 7.19661 17.8807C6.42631 16.0749 6 14.0872 6 12C6 9.91277 6.42631 7.92511 7.19661 6.11934Z"/></mask><path d="M7.19661 6.11934L9.03623 6.90407L9.99945 4.64604L7.59334 4.15908L7.19661 6.11934ZM7.19661 17.8807L7.59334 19.8409L9.99945 19.354L9.03623 17.0959L7.19661 17.8807ZM6 8C6.27577 8 6.54305 8.02761 6.79988 8.07959L7.59334 4.15908C7.07681 4.05454 6.54375 4 6 4V8ZM2 12C2 9.79086 3.79086 8 6 8V4C1.58172 4 -2 7.58172 -2 12H2ZM6 16C3.79086 16 2 14.2091 2 12H-2C-2 16.4183 1.58172 20 6 20V16ZM6.79988 15.9204C6.54305 15.9724 6.27577 16 6 16V20C6.54375 20 7.07681 19.9455 7.59334 19.8409L6.79988 15.9204ZM9.03623 17.0959C8.36982 15.5337 8 13.8126 8 12H4C4 14.3618 4.4828 16.6161 5.35699 18.6654L9.03623 17.0959ZM8 12C8 10.1874 8.36982 8.46629 9.03623 6.90407L5.35699 5.3346C4.4828 7.38392 4 9.63816 4 12H8Z" fill="#347BB5" mask="url(#path-4-inside-2)"/></svg>
