<svg xmlns="http://www.w3.org/2000/svg" viewBox="0 0 24 24"><path fill-opacity=".1" d="M12 0c6.6 0 12 5.4 12 12s-5.4 12-12 12S0 18.6 0 12 5.4 0 12 0z"></path><path d="M13.8 14.6c.1.1.2.3.2.5s-.1.3-.2.5L12.3 17c-.7.7-1.7 1.1-2.7 1.1-1 0-1.9-.4-2.7-1.1-.7-.7-1.1-1.7-1.1-2.7 0-1 .4-1.9 1.1-2.7l1.5-1.5c.2 0 .3-.1.5-.1s.3.1.5.2c.1.1.2.3.2.5s-.1.4-.2.5l-1.5 1.5c-.5.5-.7 1.1-.7 1.7 0 .6.3 1.3.7 1.7.5.5 1.1.7 1.7.7s1.3-.3 1.7-.7l1.5-1.5c.3-.3.7-.3 1 0zM17 7c-.7-.7-1.7-1.1-2.7-1.1-1 0-1.9.4-2.7 1.1l-1.5 1.5c0 .1-.1.3-.1.4 0 .2.1.3.2.5.1.1.3.2.5.2s.3-.1.5-.2l1.5-1.5c.5-.5 1.1-.7 1.7-.7.6 0 1.3.3 1.7.7.5.5.7 1.1.7 1.7 0 .6-.3 1.3-.7 1.7l-1.5 1.5c-.1.1-.2.3-.2.5s.1.3.2.5c.1.1.3.2.5.2s.3-.1.5-.2l1.5-1.5c.7-.7 1.1-1.7 1.1-2.7-.1-1-.5-1.9-1.2-2.6zm-7.9 7.2c0 .2.1.3.2.5.1.1.3.2.5.2s.4-.1.5-.2l4.5-4.5c.1-.1.2-.3.2-.5s-.1-.4-.2-.5c-.3-.2-.8-.2-1 .1l-4.5 4.5c-.1.1-.2.3-.2.4z"></path></svg>
