<svg viewBox="0 0 22 22" xmlns="http://www.w3.org/2000/svg" fill-rule="evenodd" clip-rule="evenodd" stroke-linejoin="round" stroke-miterlimit="2">
  <path fill="currentColor" d="M6.446 5.054c-.195-.196-.195-.512 0-.708l4.907-4.2.002.002 4.198 4.198c.196.196.196.512 0 .708-.195.195-.511.195-.707 0L11.5 1.707V15.9c0 .276-.224.5-.5.5s-.5-.224-.5-.5V1.707L7.153 5.054c-.195.195-.512.195-.707 0zm0-.708L11.351.144c-.195-.193-.51-.192-.705.002l-4.2 4.2zM22 10.475c0-.585-.282-1.121-.741-1.499-.456-.377-1.057-.576-1.668-.576h-4.773c-.276 0-.5.224-.5.5s.224.5.5.5h4.773c.401 0 .772.132 1.032.347.257.212.377.477.377.728v9.45c0 .251-.12.516-.377.728-.26.215-.631.347-1.032.347H2.409c-.401 0-.772-.132-1.032-.347-.257-.212-.377-.477-.377-.728v-9.45c0-.251.12-.516.377-.728.26-.215.631-.347 1.032-.347h4.773c.276 0 .5-.224.5-.5s-.224-.5-.5-.5H2.409c-.611 0-1.212.199-1.668.576C.282 9.354 0 9.89 0 10.475v9.45c0 .585.282 1.121.741 1.499.456.377 1.057.576 1.668.576h17.182c.611 0 1.212-.199 1.668-.576.459-.378.741-.914.741-1.499v-9.45z"/>
</svg>