<svg width="32" height="32" viewBox="0 0 32 32" fill="none" xmlns="http://www.w3.org/2000/svg">
<path fill-rule="evenodd" clip-rule="evenodd" d="M17.2802 10.1442C17.0837 9.95019 16.7671 9.95221 16.5731 10.1487C16.3791 10.3452 16.3811 10.6618 16.5776 10.8558L21.2817 15.5002L9.50021 15.5002C9.22407 15.5002 9.00021 15.7241 9.00021 16.0002C9.00021 16.2764 9.22407 16.5002 9.50021 16.5002L21.2817 16.5002L16.5776 21.1447C16.3811 21.3387 16.3791 21.6553 16.5731 21.8518C16.7671 22.0483 17.0837 22.0503 17.2802 21.8563L22.8511 16.3561C22.9463 16.2621 22.9998 16.134 22.9998 16.0003C22.9998 15.8665 22.9463 15.7384 22.8511 15.6445L17.2802 10.1442Z" fill="currentColor"/>
</svg>
