<svg width="32" height="32" viewBox="0 0 32 32" fill="none" xmlns="http://www.w3.org/2000/svg">
<path fill-rule="evenodd" clip-rule="evenodd" d="M21.1452 15.4222C21.3392 15.6187 21.6557 15.6207 21.8522 15.4267C22.0487 15.2327 22.0508 14.9161 21.8568 14.7196L16.3565 9.14871C16.2625 9.05356 16.1344 9 16.0007 9C15.867 9 15.7388 9.05356 15.6449 9.14871L10.1446 14.7196C9.95061 14.9161 9.95263 15.2327 10.1491 15.4267C10.3456 15.6207 10.6622 15.6187 10.8562 15.4222L15.501 10.7178L15.501 22.4998C15.501 22.776 15.7248 22.9998 16.001 22.9998C16.2771 22.9998 16.501 22.776 16.501 22.4998L16.501 10.7184L21.1452 15.4222Z" fill="currentColor"/>
</svg>
