<svg width="32" height="32" viewBox="0 0 32 32" fill="none" xmlns="http://www.w3.org/2000/svg">
<path fill-rule="evenodd" clip-rule="evenodd" d="M12.1205 11.8235C11.9407 11.6139 11.9649 11.2983 12.1745 11.1185L15.674 8.11752C15.8613 7.95692 16.1377 7.95692 16.325 8.11752L19.8244 11.1185C20.034 11.2983 20.0582 11.6139 19.8785 11.8235C19.6987 12.0332 19.3831 12.0574 19.1735 11.8776L15.9995 9.15574L12.8255 11.8776C12.6159 12.0574 12.3002 12.0332 12.1205 11.8235ZM16 12.5003C16.2761 12.5003 16.5 12.7241 16.5 13.0003V19.0003C16.5 19.2764 16.2761 19.5003 16 19.5003C15.7239 19.5003 15.5 19.2764 15.5 19.0003V13.0003C15.5 12.7241 15.7239 12.5003 16 12.5003ZM19.8245 20.8788C20.0341 20.6991 20.0583 20.3834 19.8786 20.1738C19.6988 19.9642 19.3832 19.94 19.1735 20.1197L15.9996 22.8416L12.8256 20.1197C12.616 19.94 12.3003 19.9642 12.1205 20.1738C11.9408 20.3834 11.965 20.6991 12.1746 20.8788L15.6741 23.8798C15.8613 24.0404 16.1378 24.0404 16.325 23.8798L19.8245 20.8788Z" fill="currentColor"/>
</svg>
