<svg width="32" height="32" viewBox="0 0 32 32" fill="none" xmlns="http://www.w3.org/2000/svg">
<path fill-rule="evenodd" clip-rule="evenodd" d="M16.5 21.282L21.1447 16.5776C21.3387 16.3811 21.6553 16.3791 21.8518 16.5731C22.0483 16.7671 22.0503 17.0837 21.8563 17.2802L16.3561 22.8511C16.2621 22.9463 16.134 22.9998 16.0003 22.9998C15.8666 22.9998 15.7384 22.9463 15.6445 22.8511L10.1442 17.2802C9.95019 17.0837 9.95221 16.7671 10.1487 16.5731C10.3452 16.3791 10.6618 16.3811 10.8558 16.5776L15.5 21.2815L15.5 9.5C15.5 9.22386 15.7239 9 16 9C16.2761 9 16.5 9.22386 16.5 9.5L16.5 21.282Z" fill="currentColor"/>
</svg>
