<svg width="32" height="32" viewBox="0 0 32 32" fill="none" xmlns="http://www.w3.org/2000/svg">
<path fill-rule="evenodd" clip-rule="evenodd" d="M18.6467 10.1464C18.842 9.95118 19.1586 9.95119 19.3538 10.1465L24.8538 15.6467C25.0491 15.842 25.0491 16.1585 24.8538 16.3538L19.3538 21.8541C19.1586 22.0493 18.842 22.0493 18.6467 21.8541C18.4515 21.6588 18.4514 21.3423 18.6467 21.147L23.2935 16.5L8.70707 16.5L13.3538 21.147C13.5491 21.3423 13.5491 21.6588 13.3538 21.8541C13.1585 22.0493 12.842 22.0493 12.6467 21.8541L7.1467 16.3538C6.95145 16.1585 6.95145 15.842 7.1467 15.6467L12.6467 10.1465C12.842 9.95119 13.1585 9.95118 13.3538 10.1464C13.5491 10.3417 13.5491 10.6583 13.3538 10.8535L8.70759 15.5L23.2929 15.5L18.6467 10.8535C18.4514 10.6583 18.4515 10.3417 18.6467 10.1464Z" fill="currentColor"/>
</svg>
