<svg width="32" height="32" viewBox="0 0 32 32" fill="none" xmlns="http://www.w3.org/2000/svg">
<path fill-rule="evenodd" clip-rule="evenodd" d="M16.3555 6.85351C16.5507 6.65823 16.5507 6.34164 16.3554 6.1464C16.1601 5.95117 15.8435 5.9512 15.6483 6.14649L6.16713 15.6299C6.06571 15.7214 6.00195 15.8539 6.00195 16.0012C6.00195 16.1489 6.06599 16.2816 6.1678 16.3732L15.6483 25.8559C15.8435 26.0512 16.1601 26.0512 16.3554 25.856C16.5507 25.6607 16.5507 25.3441 16.3555 25.1489L7.70987 16.5012L25.4998 16.5012C25.776 16.5012 25.9998 16.2774 25.9998 16.0012C25.9998 15.7251 25.776 15.5012 25.4998 15.5012L7.7098 15.5012L16.3555 6.85351Z" fill="currentColor"/>
</svg>
