<svg width="32" height="32" viewBox="0 0 32 32" fill="none" xmlns="http://www.w3.org/2000/svg">
<path fill-rule="evenodd" clip-rule="evenodd" d="M9.5 8C8.67157 8 8 8.67157 8 9.5V15.5C8 16.3284 8.67157 17 9.5 17H13.5C14.3284 17 15 16.3284 15 15.5V9.5C15 8.67157 14.3284 8 13.5 8H9.5ZM9 9.5C9 9.22386 9.22386 9 9.5 9H13.5C13.7761 9 14 9.22386 14 9.5V15.5C14 15.7761 13.7761 16 13.5 16H9.5C9.22386 16 9 15.7761 9 15.5V9.5ZM9.5 19C8.67157 19 8 19.6716 8 20.5V22.5C8 23.3284 8.67157 24 9.5 24H13.5C14.3284 24 15 23.3284 15 22.5V20.5C15 19.6716 14.3284 19 13.5 19H9.5ZM9 20.5C9 20.2239 9.22386 20 9.5 20H13.5C13.7761 20 14 20.2239 14 20.5V22.5C14 22.7761 13.7761 23 13.5 23H9.5C9.22386 23 9 22.7761 9 22.5V20.5ZM17 9.5C17 8.67157 17.6716 8 18.5 8H22.5C23.3284 8 24 8.67157 24 9.5V12.5C24 13.3284 23.3284 14 22.5 14H18.5C17.6716 14 17 13.3284 17 12.5V9.5ZM18.5 9C18.2239 9 18 9.22386 18 9.5V12.5C18 12.7761 18.2239 13 18.5 13H22.5C22.7761 13 23 12.7761 23 12.5V9.5C23 9.22386 22.7761 9 22.5 9H18.5ZM18.5 16C17.6716 16 17 16.6716 17 17.5V22.5C17 23.3284 17.6716 24 18.5 24H22.5C23.3284 24 24 23.3284 24 22.5V17.5C24 16.6716 23.3284 16 22.5 16H18.5ZM18 17.5C18 17.2239 18.2239 17 18.5 17H22.5C22.7761 17 23 17.2239 23 17.5V22.5C23 22.7761 22.7761 23 22.5 23H18.5C18.2239 23 18 22.7761 18 22.5V17.5Z" fill="currentColor"/>
</svg>
