<svg width="32" height="32" viewBox="0 0 32 32" fill="none" xmlns="http://www.w3.org/2000/svg">
<path fill-rule="evenodd" clip-rule="evenodd" d="M9.5 8C8.67157 8 8 8.67157 8 9.5V13.5C8 14.3284 8.67157 15 9.5 15H13.5C14.3284 15 15 14.3284 15 13.5V9.5C15 8.67157 14.3284 8 13.5 8H9.5ZM9 9.5C9 9.22386 9.22386 9 9.5 9H13.5C13.7761 9 14 9.22386 14 9.5V13.5C14 13.7761 13.7761 14 13.5 14H9.5C9.22386 14 9 13.7761 9 13.5V9.5ZM18.5 8C17.6716 8 17 8.67157 17 9.5V13.5C17 14.3284 17.6716 15 18.5 15H22.5C23.3284 15 24 14.3284 24 13.5V9.5C24 8.67157 23.3284 8 22.5 8H18.5ZM18 9.5C18 9.22386 18.2239 9 18.5 9H22.5C22.7761 9 23 9.22386 23 9.5V13.5C23 13.7761 22.7761 14 22.5 14H18.5C18.2239 14 18 13.7761 18 13.5V9.5Z" fill="currentColor"/>
<path fill-rule="evenodd" clip-rule="evenodd" d="M9.5 17C8.67157 17 8 17.6716 8 18.5V22.5C8 23.3284 8.67157 24 9.5 24H13.5C14.3284 24 15 23.3284 15 22.5V18.5C15 17.6716 14.3284 17 13.5 17H9.5ZM9 18.5C9 18.2239 9.22386 18 9.5 18H13.5C13.7761 18 14 18.2239 14 18.5V22.5C14 22.7761 13.7761 23 13.5 23H9.5C9.22386 23 9 22.7761 9 22.5V18.5ZM18.5 17C17.6716 17 17 17.6716 17 18.5V22.5C17 23.3284 17.6716 24 18.5 24H22.5C23.3284 24 24 23.3284 24 22.5V18.5C24 17.6716 23.3284 17 22.5 17H18.5ZM18 18.5C18 18.2239 18.2239 18 18.5 18H22.5C22.7761 18 23 18.2239 23 18.5V22.5C23 22.7761 22.7761 23 22.5 23H18.5C18.2239 23 18 22.7761 18 22.5V18.5Z" fill="currentColor"/>
</svg>
