<svg width="32" height="32" viewBox="0 0 32 32" fill="none" xmlns="http://www.w3.org/2000/svg">
<path d="M23.9216 19.6266C23.9313 19.6308 23.9361 19.6343 23.9379 19.6357C24.1094 19.8683 24.4718 20.3763 24.7892 20.9214C24.9482 21.1946 25.0905 21.4678 25.1916 21.714C25.2971 21.9709 25.3389 22.1538 25.3389 22.2606C25.3389 22.9689 24.7024 23.6113 23.8389 23.6113C22.9753 23.6113 22.3389 22.9689 22.3389 22.2606C22.3389 22.1538 22.3806 21.9709 22.4861 21.714C22.5873 21.4678 22.7295 21.1946 22.8886 20.9214C23.206 20.3763 23.5683 19.8683 23.7399 19.6357C23.7416 19.6343 23.7464 19.6308 23.7562 19.6266C23.7752 19.6183 23.8041 19.6113 23.8389 19.6113C23.8736 19.6113 23.9026 19.6183 23.9216 19.6266Z" stroke="currentColor"/>
<path d="M15.3533 7.86824L23.1315 15.6464L15.7069 23.071C15.1211 23.6568 14.1714 23.6568 13.5856 23.071L7.92871 17.4142C7.34293 16.8284 7.34292 15.8786 7.92871 15.2929L15.3533 7.86824Z" stroke="currentColor"/>
<path d="M15.337 21.2863L18.8666 17.7566L8.98949 16.353L13.9228 21.2863C14.3133 21.6768 14.9465 21.6768 15.337 21.2863Z" fill="currentColor"/>
</svg>
