<svg width="32" height="32" viewBox="0 0 32 32" fill="none" xmlns="http://www.w3.org/2000/svg">
<path d="M7 22V8C7 7.44772 7.44772 7 8 7H24C24.5523 7 25 7.44772 25 8V22C25 22.5523 24.5523 23 24 23H19.4142C19.149 23 18.8946 23.1054 18.7071 23.2929L16.7071 25.2929C16.3166 25.6834 15.6834 25.6834 15.2929 25.2929L13.2929 23.2929C13.1054 23.1054 12.851 23 12.5858 23H8C7.44772 23 7 22.5523 7 22Z" stroke="currentColor"/>
<path d="M14.9525 13.1583C14.4721 12.6385 13.7994 12.3154 13.0548 12.3154C11.5947 12.3154 10.411 13.5579 10.411 15.0906C10.411 16.6233 11.5947 17.8658 13.0548 17.8658C13.877 17.8658 14.6115 17.4719 15.0964 16.854" stroke="currentColor" stroke-linecap="round"/>
<path d="M21.4452 13.1583C20.9647 12.6385 20.292 12.3154 19.5475 12.3154C18.0873 12.3154 16.9036 13.5579 16.9036 15.0906C16.9036 16.6233 18.0873 17.8658 19.5475 17.8658C20.3696 17.8658 21.1041 17.4719 21.589 16.854" stroke="currentColor" stroke-linecap="round"/>
</svg>
