<svg viewBox="0 0 32 32" fill="none" xmlns="http://www.w3.org/2000/svg">
  <path fill-rule="evenodd" clip-rule="evenodd" d="M23.8966 18.1464c.1952-.1952.5118-.1952.7071 0 .1952.1953.1952.5119 0 .7072l-4.4932 4.4932c-.0023.0023-.0045.0046-.0068.0069-.0969.0969-.2237.1457-.3506.1464-.129.0008-.2582-.048-.3567-.1464-.0022-.0023-.0045-.0046-.0067-.0069l-2.4933-2.4932c-.1952-.1953-.1952-.5119 0-.7072.1953-.1952.5119-.1952.7072 0l2.1465 2.1466 4.1465-4.1466z" fill="currentColor"/>
  <path d="M20.3333 15.5v-5.0833c0-.78244-.6342-1.4167-1.4166-1.4167h-6.5C11.6343 9 11 9.63426 11 10.4167v11.1666C11 22.3657 11.6343 23 12.4167 23H14.5" stroke="currentColor" stroke-linecap="round" stroke-linejoin="round"/>
</svg>
