<svg viewBox="0 0 32 32" fill="none" xmlns="http://www.w3.org/2000/svg">
  <path fill-rule="evenodd" clip-rule="evenodd" d="M25.1464 25.8536c.1953.1952.5119.1952.7072 0 .1952-.1953.1952-.5119 0-.7072L16.7071 16l9.1465-9.14645c.1952-.19526.1952-.51184 0-.7071-.1953-.19526-.5119-.19526-.7072 0L16 15.2929 6.85355 6.14645c-.19526-.19527-.51184-.19527-.7071 0-.19526.19526-.19526.51184 0 .7071L15.2929 16l-9.14645 9.1464c-.19527.1953-.19527.5119 0 .7072.19526.1952.51184.1952.7071 0L16 16.7071l9.1464 9.1465z" fill="currentColor"/>
</svg>
