<svg width="32" height="32" viewBox="0 0 32 32" fill="none" xmlns="http://www.w3.org/2000/svg">
<path fill-rule="evenodd" clip-rule="evenodd" d="M9.85355 9.14645C9.65829 8.95118 9.34171 8.95118 9.14645 9.14645C8.95118 9.34171 8.95118 9.65829 9.14645 9.85355L15.2929 16L9.14645 22.1464C8.95119 22.3417 8.95119 22.6583 9.14645 22.8536C9.34171 23.0488 9.65829 23.0488 9.85355 22.8536L16 16.7071L22.1464 22.8536C22.3417 23.0488 22.6583 23.0488 22.8536 22.8536C23.0488 22.6583 23.0488 22.3417 22.8536 22.1464L16.7071 16L22.8536 9.85355C23.0488 9.65829 23.0488 9.34171 22.8536 9.14645C22.6583 8.95118 22.3417 8.95118 22.1464 9.14645L16 15.2929L9.85355 9.14645Z" fill="currentColor"/>
</svg>
