<svg width="32" height="32" viewBox="0 0 32 32" fill="none" xmlns="http://www.w3.org/2000/svg">
<path fill-rule="evenodd" clip-rule="evenodd" d="M13 11.5C13 12.3284 12.3284 13 11.5 13C10.6716 13 10 12.3284 10 11.5C10 10.6716 10.6716 10 11.5 10C12.3284 10 13 10.6716 13 11.5ZM13 20.5C13 21.3284 12.3284 22 11.5 22C10.6716 22 10 21.3284 10 20.5C10 19.6716 10.6716 19 11.5 19C12.3284 19 13 19.6716 13 20.5ZM20.5 13C21.3284 13 22 12.3284 22 11.5C22 10.6716 21.3284 10 20.5 10C19.6716 10 19 10.6716 19 11.5C19 12.3284 19.6716 13 20.5 13ZM22 20.5C22 21.3284 21.3284 22 20.5 22C19.6716 22 19 21.3284 19 20.5C19 19.6716 19.6716 19 20.5 19C21.3284 19 22 19.6716 22 20.5Z" fill="currentColor"/>
</svg>
