<svg width="32" height="32" viewBox="0 0 32 32" fill="none" xmlns="http://www.w3.org/2000/svg">
<path fill-rule="evenodd" clip-rule="evenodd" d="M16.3536 10.8535C16.5488 10.6583 16.5488 10.3417 16.3535 10.1464C16.1583 9.95118 15.8417 9.95119 15.6464 10.1465L10.1464 15.6467C9.95119 15.842 9.95119 16.1585 10.1464 16.3538L15.6464 21.8541C15.8417 22.0493 16.1583 22.0493 16.3535 21.8541C16.5488 21.6588 16.5488 21.3423 16.3536 21.147L11.2071 16.0003L16.3536 10.8535ZM21.8536 10.8535C22.0488 10.6583 22.0488 10.3417 21.8535 10.1464C21.6583 9.95118 21.3417 9.95119 21.1464 10.1465L15.6464 15.6467C15.4512 15.842 15.4512 16.1585 15.6464 16.3538L21.1464 21.8541C21.3417 22.0493 21.6583 22.0493 21.8535 21.8541C22.0488 21.6588 22.0488 21.3423 21.8536 21.147L16.7071 16.0003L21.8536 10.8535Z" fill="currentColor"/>
</svg>
