<svg width="32" height="32" viewBox="0 0 32 32" fill="none" xmlns="http://www.w3.org/2000/svg">
<path fill-rule="evenodd" clip-rule="evenodd" d="M10.8536 10.1465C10.6583 9.95119 10.3417 9.95118 10.1465 10.1464C9.95119 10.3417 9.95118 10.6583 10.1464 10.8535L15.2929 16.0003L10.1464 21.147C9.95118 21.3423 9.95119 21.6588 10.1465 21.8541C10.3417 22.0493 10.6583 22.0493 10.8536 21.8541L16.3536 16.3538C16.5488 16.1586 16.5488 15.842 16.3536 15.6467L10.8536 10.1465ZM16.3536 10.1465C16.1583 9.95119 15.8417 9.95118 15.6465 10.1464C15.4512 10.3417 15.4512 10.6583 15.6464 10.8535L20.7929 16.0003L15.6464 21.147C15.4512 21.3423 15.4512 21.6588 15.6465 21.8541C15.8417 22.0493 16.1583 22.0493 16.3536 21.8541L21.8536 16.3538C22.0488 16.1586 22.0488 15.842 21.8536 15.6467L16.3536 10.1465Z" fill="currentColor"/>
</svg>
