<svg viewBox="0 0 32 32" fill="none" xmlns="http://www.w3.org/2000/svg">
  <path fill-rule="evenodd" clip-rule="evenodd" d="M12.1205 11.8233c-.1798-.2096-.1556-.5253.054-.705l3.4995-3.00102c.1873-.1606.4637-.1606.651 0l3.4994 3.00102c.2097.1797.2339.4954.0541.705-.1798.2096-.4954.2338-.705.0541l-3.174-2.7219-3.174 2.7219c-.2096.1797-.5253.1555-.705-.0541zM16 12.5c.2762 0 .5.2239.5.5v6c0 .2762-.2238.5-.5.5-.2761 0-.5-.2238-.5-.5v-6c0-.2761.2239-.5.5-.5zm3.8245 8.3786c.2096-.1798.2338-.4954.0541-.7051-.1798-.2096-.4954-.2338-.7051-.054l-3.1739 2.7218-3.174-2.7218c-.2096-.1798-.5253-.1556-.7051.054-.1797.2097-.1555.5253.0541.7051l3.4995 3.001c.1873.1606.4637.1606.651 0l3.4994-3.001z" fill="currentColor"/>
</svg>
