<svg width="32" height="32" viewBox="0 0 32 32" fill="none" xmlns="http://www.w3.org/2000/svg">
<path fill-rule="evenodd" clip-rule="evenodd" d="M16 9C12.134 9 9 12.134 9 16C9 19.866 12.134 23 16 23C19.866 23 23 19.866 23 16C23 12.134 19.866 9 16 9ZM16 8C11.5817 8 8 11.5817 8 16C8 20.4183 11.5817 24 16 24C20.4183 24 24 20.4183 24 16C24 11.5817 20.4183 8 16 8ZM16 18C15.4477 18 15 18.4477 15 19C15 19.5523 15.4477 20 16 20C16.5523 20 17 19.5523 17 19C17 18.4477 16.5523 18 16 18ZM15.5 16C15.5 16.2761 15.7239 16.5 16 16.5C16.2761 16.5 16.5 16.2761 16.5 16L16.5 12C16.5 11.7239 16.2761 11.5 16 11.5C15.7239 11.5 15.5 11.7239 15.5 12L15.5 16Z" fill="currentColor"/>
</svg>
