<svg viewBox="0 0 32 32" fill="none" xmlns="http://www.w3.org/2000/svg">
  <rect width="32" height="32" rx="16" fill="#000" fill-opacity=".64"/>
  <path fill-rule="evenodd" clip-rule="evenodd" d="M21.5636 15.4063c.0227.1947.0349.3926.0349.5937 0 .2023-.0124.4018-.0353.5982-.052.4461.1325.9001.5232 1.1217l.4073.2311c.4856.2754.6516.8952.3687 1.3765l-.5135.8737c-.2768.4709-.8802.6326-1.3554.3632l-.4488-.2545c-.3832-.2173-.8585-.1504-1.2149.1085-.3355.2437-.6995.4513-1.0865.6175-.4125.1772-.716.5627-.716 1.0117V22.5c0 .5523-.4477 1-1 1h-1.0541c-.5523 0-1-.4477-1-1v-.4526c0-.4494-.304-.8351-.717-1.0122-.3865-.1658-.7501-.3731-1.085-.6165-.3568-.2594-.8327-.3268-1.2165-.1092l-.4477.2539c-.4752.2694-1.07858.1077-1.35536-.3632l-.51357-.8737c-.28292-.4813-.11691-1.1011.36872-1.3765l.40388-.2291c.39223-.2225.57653-.6793.52423-1.1272-.0227-.1949-.0349-.3929-.0349-.5937 0-.2011.0121-.399.0349-.5937.0522-.448-.132-.9047-.52423-1.1272l-.40388-.2291c-.48563-.2754-.65164-.8952-.36872-1.3765l.51346-.8735c.27682-.471.88037-.6326 1.35557-.3631l.4471.2537c.3835.2175.8592.1505 1.2159-.1088.3355-.2438.6995-.4515 1.0863-.6176.4125-.1772.7158-.5627.7158-1.01157V9.5c0-.55228.4477-1 1-1h1.0541c.5523 0 1 .44772 1 1v.45259c0 .44941.304.83511.7169 1.01221.3865.1658.7501.373 1.0849.6164.3569.2594.8329.3268 1.2167.1091l.4466-.2534c.4752-.2695 1.0787-.1079 1.3555.3631l.5135.8735c.2829.4813.1169 1.1011-.3687 1.3765l-.4039.2291c-.3923.2225-.5765.6792-.5242 1.1272zM12.5002 16c0-1.933 1.5671-3.5 3.5-3.5 1.933 0 3.5 1.567 3.5 3.5 0 .2761.2239.5.5.5.2762 0 .5-.2239.5-.5 0-2.4853-2.0147-4.5-4.5-4.5-2.4852 0-4.5 2.0147-4.5 4.5 0 .2761.2239.5.5.5.2762 0 .5-.2239.5-.5zm5.6012-1.4598c.1953-.1953.1953-.5119 0-.7072-.1953-.1952-.5118-.1952-.7071 0l-1.1882 1.1882c-.0664-.0139-.1353-.0212-.2059-.0212-.5522 0-1 .4477-1 1s.4478 1 1 1c.5523 0 1-.4477 1-1 0-.1081-.0171-.2122-.0489-.3098l1.1501-1.15z" fill="#E4E5E6"/>
</svg>
