<svg width="32" height="32" viewBox="0 0 32 32" fill="none" xmlns="http://www.w3.org/2000/svg">
<path fill-rule="evenodd" clip-rule="evenodd" d="M15.4722 8C14.6438 8 13.9722 8.67157 13.9722 9.5V9.95263C13.9722 10.165 13.8242 10.3909 13.5592 10.5048C13.1381 10.6857 12.7417 10.9118 12.3762 11.1774C12.1467 11.3442 11.8825 11.3586 11.701 11.2557L11.2539 11.002C10.5411 10.5977 9.6358 10.8402 9.22056 11.5466L8.70711 12.4201C8.28273 13.1421 8.53175 14.0718 9.26019 14.485L9.66406 14.714C9.84889 14.8189 9.97199 15.0598 9.93832 15.3483C9.91346 15.5614 9.90005 15.7787 9.90005 16C9.90005 16.2211 9.91348 16.4384 9.93837 16.6517C9.97204 16.9401 9.84893 17.1811 9.66406 17.286L9.26019 17.515C8.53174 17.9282 8.28273 18.8579 8.70711 19.5799L9.22068 20.4536C9.63585 21.1599 10.541 21.4025 11.2537 20.9983L11.7014 20.7445C11.883 20.6415 12.1475 20.6561 12.3773 20.8231C12.7423 21.0884 13.1384 21.3142 13.5592 21.4947C13.8249 21.6087 13.9733 21.8349 13.9733 22.0474V22.5C13.9733 23.3284 14.6448 24 15.4733 24H16.5274C17.3558 24 18.0274 23.3284 18.0274 22.5V22.0476C18.0274 21.8352 18.1755 21.6092 18.4407 21.4954C18.862 21.3144 19.2584 21.0883 19.6237 20.8229C19.8529 20.6565 20.1168 20.642 20.2982 20.7449L20.747 20.9993C21.4597 21.4035 22.3648 21.1609 22.78 20.4546L23.2936 19.5809C23.7179 18.8589 23.4689 17.9292 22.7405 17.516L22.3332 17.285C22.1489 17.1805 22.0266 16.9415 22.0599 16.6562C22.0849 16.4416 22.0986 16.2228 22.0986 16C22.0986 15.7787 22.0852 15.5614 22.0603 15.3483C22.0266 15.0598 22.1497 14.8189 22.3346 14.714L22.7384 14.485C23.4669 14.0718 23.7159 13.1421 23.2915 12.4201L22.7781 11.5466C22.3628 10.8401 21.4575 10.5977 20.7448 11.002L20.2982 11.2554C20.1166 11.3584 19.8521 11.3439 19.6222 11.1768C19.2573 10.9115 18.8612 10.6858 18.4404 10.5053C18.1747 10.3913 18.0264 10.1651 18.0264 9.95259V9.5C18.0264 8.67157 17.3548 8 16.5264 8H15.4722ZM14.9722 9.5C14.9722 9.22386 15.1961 9 15.4722 9H16.5264C16.8025 9 17.0264 9.22386 17.0264 9.5V9.95259C17.0264 10.6388 17.4859 11.184 18.0462 11.4243C18.3983 11.5753 18.7294 11.7641 19.0342 11.9856C19.5181 12.3374 20.2056 12.4576 20.7916 12.1252L21.2382 11.8718C21.4758 11.737 21.7776 11.8178 21.916 12.0533L22.4294 12.9269C22.5709 13.1675 22.4879 13.4774 22.2451 13.6151L21.8412 13.8442C21.2415 14.1844 20.9962 14.8569 21.067 15.4642C21.0876 15.6406 21.0986 15.8192 21.0986 16C21.0986 16.1819 21.0875 16.362 21.0666 16.5403C20.9958 17.1472 21.2427 17.8162 21.8398 18.1548L22.2471 18.3859C22.4899 18.5236 22.5729 18.8335 22.4315 19.0741L21.9179 19.9479C21.7795 20.1833 21.4778 20.2641 21.2402 20.1294L20.7914 19.875C20.2063 19.5432 19.5197 19.6625 19.036 20.0139C18.7304 20.2359 18.3988 20.425 18.0461 20.5765C17.4862 20.817 17.0274 21.362 17.0274 22.0476V22.5C17.0274 22.7761 16.8036 23 16.5274 23H15.4733C15.1971 23 14.9733 22.7761 14.9733 22.5V22.0474C14.9733 21.3612 14.5137 20.816 13.9534 20.5757C13.6013 20.4246 13.2702 20.2358 12.9653 20.0143C12.4815 19.6626 11.7941 19.5423 11.2082 19.8746L10.7604 20.1284C10.5229 20.2631 10.2212 20.1823 10.0828 19.9469L9.56921 19.0731C9.42775 18.8325 9.51076 18.5226 9.75357 18.3849L10.1574 18.1558C10.7571 17.8156 11.0025 17.1432 10.9316 16.5357C10.911 16.3591 10.9 16.1805 10.9 16C10.9 15.8192 10.911 15.6406 10.9316 15.4642C11.0025 14.8569 10.7571 14.1844 10.1574 13.8442L9.75357 13.6151C9.51076 13.4774 9.42775 13.1675 9.56921 12.9269L10.0827 12.0533C10.2211 11.8178 10.5229 11.737 10.7604 11.8718L11.2075 12.1254C11.7931 12.4576 12.4803 12.338 12.9641 11.9863C13.2697 11.7642 13.6014 11.575 13.9539 11.4235C14.5137 11.183 14.9722 10.638 14.9722 9.95263V9.5ZM14.5 16C14.5 15.1716 15.1716 14.5 16 14.5C16.8284 14.5 17.5 15.1716 17.5 16C17.5 16.8284 16.8284 17.5 16 17.5C15.1716 17.5 14.5 16.8284 14.5 16ZM16 13.5C14.6193 13.5 13.5 14.6193 13.5 16C13.5 17.3807 14.6193 18.5 16 18.5C17.3807 18.5 18.5 17.3807 18.5 16C18.5 14.6193 17.3807 13.5 16 13.5Z" fill="currentColor"/>
</svg>
