<svg viewBox="0 0 32 32" fill="none" xmlns="http://www.w3.org/2000/svg">
  <path fill-rule="evenodd" clip-rule="evenodd" d="M9.5 9C8.67157 9 8 9.67157 8 10.5v11c0 .8284.67157 1.5 1.5 1.5h4c.8284 0 1.5-.6716 1.5-1.5v-11c0-.82843-.6716-1.5-1.5-1.5h-4zM9 10.5c0-.2761.22386-.5.5-.5h4c.2761 0 .5.2239.5.5v11c0 .2761-.2239.5-.5.5h-4c-.27614 0-.5-.2239-.5-.5v-11zM18.5 9c-.8284 0-1.5.67157-1.5 1.5v11c0 .8284.6716 1.5 1.5 1.5h4c.8284 0 1.5-.6716 1.5-1.5v-11c0-.82843-.6716-1.5-1.5-1.5h-4zm-.5 1.5c0-.2761.2239-.5.5-.5h4c.2761 0 .5.2239.5.5v11c0 .2761-.2239.5-.5.5h-4c-.2761 0-.5-.2239-.5-.5v-11z" fill="currentColor"/>
</svg>
