<svg viewBox="0 0 32 32" fill="none" xmlns="http://www.w3.org/2000/svg">
  <path fill-rule="evenodd" clip-rule="evenodd" d="M10.6428 9c-.4357 0-.85355.17308-1.16163.48117C9.17308 9.78925 9 10.2071 9 10.6428s.17308.8536.48117 1.1616c.30808.3081.72593.4812 1.16163.4812h1.6428v-1.6428c0-.4357-.1731-.85355-.4812-1.16163C11.4964 9.17308 11.0785 9 10.6428 9zm-1.86874-.22594C9.26968 8.27844 9.94189 8 10.6428 8c.7009 0 1.3731.27844 1.8688.77406.4956.49562.774 1.16783.774 1.86874v1.6428h5.4297v-1.6425c0-.70093.2784-1.37314.774-1.86876.4957-.49562 1.1679-.77406 1.8688-.77406.7009 0 1.3731.27844 1.8687.77406.4956.49562.7741 1.16783.7741 1.86876 0 .7009-.2785 1.3731-.7741 1.8687-.4956.4957-1.1678.7741-1.8687.7741h-1.6458v5.4282h1.6458c.7009 0 1.3731.2784 1.8687.774.4956.4956.7741 1.1678.7741 1.8688 0 .7009-.2785 1.3731-.7741 1.8687-.4956.4956-1.1678.7741-1.8687.7741-.7009 0-1.3731-.2785-1.8688-.7741-.4956-.4956-.774-1.1678-.774-1.8687v-1.6428h-5.4294v1.6428c0 .7009-.2784 1.3731-.7741 1.8687-.4956.4956-1.1678.7741-1.8687.7741-.70093 0-1.37314-.2785-1.86876-.7741-.49562-.4956-.77406-1.1678-.77406-1.8687 0-.701.27844-1.3732.77406-1.8688.49562-.4956 1.16783-.774 1.86876-.774h1.6408v-5.4285h-1.6411c-.70091 0-1.37312-.2784-1.86874-.774C8.27844 12.0159 8 11.3437 8 10.6428c0-.70091.27844-1.37312.77406-1.86874zm4.50984 4.51154v5.4285h5.4284v-5.4285h-5.4284zm6.9125-3.80415c.3081-.30809.726-.48117 1.1617-.48117s.8535.17308 1.1616.48117c.3081.30808.4812.72595.4812 1.16165 0 .4357-.1731.8535-.4812 1.1616-.3081.3081-.7259.4812-1.1616.4812h-1.6428v-1.6428c0-.4357.1731-.85357.4811-1.16165zM10.6431 19.7141c-.4357 0-.85357.173-1.16165.4811-.30809.3081-.48117.726-.48117 1.1617s.17308.8535.48117 1.1616c.30808.3081.72595.4812 1.16165.4812.4357 0 .8535-.1731 1.1616-.4812.3081-.3081.4812-.7259.4812-1.1616v-1.6428h-1.6428zm9.0722 1.6428v-1.6428h1.6428c.4357 0 .8535.173 1.1616.4811.3081.3081.4812.726.4812 1.1617s-.1731.8535-.4812 1.1616c-.3081.3081-.7259.4812-1.1616.4812s-.8536-.1731-1.1617-.4812c-.308-.3081-.4811-.7259-.4811-1.1616z" fill="currentColor"/>
</svg>
