<svg width="32" height="32" viewBox="0 0 32 32" fill="none" xmlns="http://www.w3.org/2000/svg">
<path fill-rule="evenodd" clip-rule="evenodd" d="M20.5 9.00013H18.0113C18.0036 8.99995 17.996 8.99996 17.9884 9.00013H15.5C15.2239 9.00013 15 9.22399 15 9.50013C15 9.77628 15.2239 10.0001 15.5 10.0001H17.323L13.6307 22.0001H11.5C11.2239 22.0001 11 22.224 11 22.5001C11 22.7763 11.2239 23.0001 11.5 23.0001H13.9887C13.9964 23.0003 14.004 23.0003 14.0116 23.0001H16.5C16.7761 23.0001 17 22.7763 17 22.5001C17 22.224 16.7761 22.0001 16.5 22.0001H14.677L18.3693 10.0001H20.5C20.7761 10.0001 21 9.77628 21 9.50013C21 9.22399 20.7761 9.00013 20.5 9.00013Z" fill="currentColor"/>
</svg>
