<svg width="33" height="32" viewBox="0 0 33 32" fill="none" xmlns="http://www.w3.org/2000/svg">
<path fill-rule="evenodd" clip-rule="evenodd" d="M2.93945 10C2.93945 9.72386 3.16331 9.5 3.43945 9.5H8.43945V22.5H6.33945C6.06331 22.5 5.83945 22.7239 5.83945 23C5.83945 23.2761 6.06331 23.5 6.33945 23.5H8.93945H11.5395C11.8156 23.5 12.0395 23.2761 12.0395 23C12.0395 22.7239 11.8156 22.5 11.5395 22.5H9.43945V9.5H14.4395C14.7156 9.5 14.9395 9.72386 14.9395 10V11.1778C14.9395 11.4539 15.1633 11.6778 15.4395 11.6778C15.7156 11.6778 15.9395 11.4539 15.9395 11.1778V10C15.9395 9.17157 15.2679 8.5 14.4395 8.5H8.93945H3.43945C2.61103 8.5 1.93945 9.17157 1.93945 10V11.1778C1.93945 11.4539 2.16331 11.6778 2.43945 11.6778C2.7156 11.6778 2.93945 11.4539 2.93945 11.1778V10ZM18.0593 10C18.0593 9.72386 18.2832 9.5 18.5593 9.5H23.5593V22.5H21.4593C21.1832 22.5 20.9593 22.7239 20.9593 23C20.9593 23.2761 21.1832 23.5 21.4593 23.5H24.0593H26.6593C26.9354 23.5 27.1593 23.2761 27.1593 23C27.1593 22.7239 26.9354 22.5 26.6593 22.5H24.5593V9.5H29.5593C29.8354 9.5 30.0593 9.72386 30.0593 10V11.1778C30.0593 11.4539 30.2832 11.6778 30.5593 11.6778C30.8354 11.6778 31.0593 11.4539 31.0593 11.1778V10C31.0593 9.17157 30.3877 8.5 29.5593 8.5H24.0593H18.5593C17.7309 8.5 17.0593 9.17157 17.0593 10V11.1778C17.0593 11.4539 17.2832 11.6778 17.5593 11.6778C17.8354 11.6778 18.0593 11.4539 18.0593 11.1778V10Z" fill="#E4E5E6"/>
</svg>
