<svg width="32" height="32" viewBox="0 0 32 32" fill="none" xmlns="http://www.w3.org/2000/svg">
<path fill-rule="evenodd" clip-rule="evenodd" d="M10.5 9.5C10.2239 9.5 10 9.72386 10 10V11.1778C10 11.4539 9.77614 11.6778 9.5 11.6778C9.22386 11.6778 9 11.4539 9 11.1778V10C9 9.17157 9.67157 8.5 10.5 8.5H16H21.5C22.3284 8.5 23 9.17157 23 10V11.1778C23 11.4539 22.7761 11.6778 22.5 11.6778C22.2239 11.6778 22 11.4539 22 11.1778V10C22 9.72386 21.7761 9.5 21.5 9.5H16.5V22.5H18.6C18.8761 22.5 19.1 22.7239 19.1 23C19.1 23.2761 18.8761 23.5 18.6 23.5H16H13.4C13.1239 23.5 12.9 23.2761 12.9 23C12.9 22.7239 13.1239 22.5 13.4 22.5H15.5V9.5H10.5Z" fill="currentColor"/>
</svg>
