<svg viewBox="0 0 32 32" fill="none" xmlns="http://www.w3.org/2000/svg">
  <path fill-rule="evenodd" clip-rule="evenodd" d="M9.5 8.5c0-.27614-.22386-.5-.5-.5s-.5.22386-.5.5v15c0 .2761.22386.5.5.5s.5-.2239.5-.5v-15zM23 8c.2761 0 .5.22386.5.5v15c0 .2761-.2239.5-.5.5s-.5-.2239-.5-.5v-15c0-.27614.2239-.5.5-.5zm-7.7049 4.4933c.1086-.2965.3879-.4933.7002-.4933.3119 0 .591.1964.6999.4924l2.5249 6.8664c.1142.3106-.1126.6412-.4398.6412-.1981 0-.3749-.126-.4417-.315l-.6673-1.8861h-3.3419l-.6672 1.8859c-.0669.189-.2438.3152-.4421.3152-.3273 0-.5542-.3305-.4403-.6412l2.5153-6.8655zm2.0626 4.4117l-1.0275-2.8827-.3062-.8399c-.0045-.0122-.016-.0204-.0289-.0204-.0131 0-.0247.0083-.0291.0208l-.2955.8395-1.0275 2.8827h2.7147z" fill="currentColor"/>
</svg>
