<svg width="32" height="32" viewBox="0 0 32 32" fill="none" xmlns="http://www.w3.org/2000/svg">
<path d="M11 11C11 9.89543 11.8954 9 13 9H16.3162C17.0672 9 17.7589 9.16294 18.3913 9.48883C19.0369 9.81471 19.5507 10.2644 19.9328 10.838C20.3149 11.4115 20.5059 12.0438 20.5059 12.7346C20.5059 13.4255 20.3281 14.0251 19.9723 14.5335C19.6298 15.0419 19.1752 15.4264 18.6087 15.6872V15.8045C19.3202 16.0521 19.8933 16.4628 20.3281 17.0363C20.776 17.6099 21 18.2812 21 19.0503C21 19.8194 20.7958 20.5037 20.3874 21.1034C19.9921 21.703 19.4519 22.1723 18.7668 22.5112C18.0949 22.8371 17.357 23 16.5534 23H13C11.8954 23 11 22.1046 11 21V11ZM16.2174 14.8659C16.8498 14.8659 17.357 14.6704 17.7391 14.2793C18.1344 13.8883 18.332 13.4385 18.332 12.9302C18.332 12.4218 18.141 11.9786 17.7589 11.6006C17.39 11.2095 16.9025 11.014 16.2964 11.014H13.7134C13.4373 11.014 13.2134 11.2378 13.2134 11.514V14.3659C13.2134 14.6421 13.4373 14.8659 13.7134 14.8659H16.2174ZM16.5534 20.9665C17.2253 20.9665 17.7589 20.7579 18.1542 20.3408C18.5626 19.9236 18.7668 19.4413 18.7668 18.8939C18.7668 18.3333 18.556 17.851 18.1344 17.4469C17.726 17.0298 17.1726 16.8212 16.4743 16.8212H13.7134C13.4373 16.8212 13.2134 17.0451 13.2134 17.3212V20.4665C13.2134 20.7426 13.4373 20.9665 13.7134 20.9665H16.5534Z" fill="currentColor"/>
</svg>
