<svg width="32" height="32" viewBox="0 0 32 32" fill="none" xmlns="http://www.w3.org/2000/svg">
<path fill-rule="evenodd" clip-rule="evenodd" d="M21.8536 10.1464C21.8056 10.0985 21.7504 10.0623 21.6914 10.0379C21.6324 10.0135 21.5678 10 21.5 10C21.4322 10 21.3676 10.0135 21.3086 10.0379C21.2496 10.0623 21.1944 10.0985 21.1464 10.1464L18.1464 13.1464C17.9512 13.3417 17.9512 13.6583 18.1464 13.8536C18.3417 14.0488 18.6583 14.0488 18.8536 13.8536L21 11.7071L21 20.2929L18.8536 18.1464C18.6583 17.9512 18.3417 17.9512 18.1464 18.1464C17.9512 18.3417 17.9512 18.6583 18.1464 18.8536L21.1464 21.8536C21.1944 21.9015 21.2496 21.9377 21.3086 21.9621C21.3667 21.9861 21.4303 21.9996 21.497 22C21.498 22 21.499 22 21.5 22C21.501 22 21.502 22 21.503 22C21.6366 21.9992 21.7577 21.9461 21.847 21.86C21.8494 21.8576 21.8519 21.8552 21.8543 21.8528L24.8536 18.8536C25.0488 18.6583 25.0488 18.3417 24.8536 18.1464C24.6583 17.9512 24.3417 17.9512 24.1464 18.1464L22 20.2929L22 11.7071L24.1464 13.8536C24.3417 14.0488 24.6583 14.0488 24.8536 13.8536C25.0488 13.6583 25.0488 13.3417 24.8536 13.1464L21.8536 10.1464ZM8 10C7.72386 10 7.5 10.2239 7.5 10.5C7.5 10.7761 7.72386 11 8 11H11.5V21.5C11.5 21.7761 11.7239 22 12 22C12.2761 22 12.5 21.7761 12.5 21.5V11H16C16.2761 11 16.5 10.7761 16.5 10.5C16.5 10.2239 16.2761 10 16 10H12H8Z" fill="currentColor"/>
</svg>
