<svg width="32" height="32" viewBox="0 0 32 32" fill="none" xmlns="http://www.w3.org/2000/svg">
<path fill-rule="evenodd" clip-rule="evenodd" d="M13 9.5C13 9.22386 12.7761 9 12.5 9C12.2239 9 12 9.22386 12 9.5V15C12 17.2091 13.7909 19 16 19C18.2091 19 20 17.2091 20 15V9.5C20 9.22386 19.7761 9 19.5 9C19.2239 9 19 9.22386 19 9.5V15C19 16.6569 17.6569 18 16 18C14.3431 18 13 16.6569 13 15V9.5ZM9.5 23C9.22386 23 9 23.2239 9 23.5C9 23.7761 9.22386 24 9.5 24H22.5C22.7761 24 23 23.7761 23 23.5C23 23.2239 22.7761 23 22.5 23H9.5Z" fill="currentColor"/>
</svg>
