<svg width="32" height="32" viewBox="0 0 32 32" fill="none" xmlns="http://www.w3.org/2000/svg">
<path fill-rule="evenodd" clip-rule="evenodd" d="M13.5026 10.8256C14.1966 10.2792 15.1246 10 16.106 10C17.0739 10 17.9768 10.2368 18.6691 10.7686C19.373 11.3093 19.8114 12.1189 19.8974 13.1584C19.9202 13.4336 19.7155 13.6751 19.4403 13.6979C19.1651 13.7207 18.9236 13.516 18.9008 13.2408C18.8358 12.4545 18.5191 11.9144 18.0599 11.5617C17.5892 11.2001 16.9211 11 16.106 11C15.3046 11 14.607 11.2288 14.1212 11.6113C13.6456 11.9858 13.355 12.5188 13.355 13.1996C13.355 13.7996 13.6199 14.2063 13.968 14.5H12.6835C12.484 14.1445 12.355 13.7146 12.355 13.1996C12.355 12.1968 12.7985 11.38 13.5026 10.8256ZM18.5777 17.5H19.7606C19.9106 17.8321 19.9998 18.2204 19.9998 18.6729C19.9998 19.6889 19.5984 20.5431 18.862 21.1322C18.1382 21.7113 17.1355 22 15.976 22C14.8017 22 13.8592 21.6778 13.1765 21.0897C12.4938 20.5017 12.1188 19.689 12.0039 18.7979C11.9686 18.524 12.162 18.2734 12.4358 18.238C12.7097 18.2027 12.9604 18.3961 12.9957 18.67C13.085 19.3627 13.3658 19.933 13.8291 20.3321C14.2923 20.731 14.9858 21 15.976 21C16.9811 21 17.7403 20.749 18.2373 20.3514C18.7216 19.9639 18.9998 19.4046 18.9998 18.6729C18.9998 18.1496 18.8309 17.7789 18.5777 17.5ZM9.5 15.5C9.22386 15.5 9 15.7239 9 16C9 16.2761 9.22386 16.5 9.5 16.5H22.5C22.7761 16.5 23 16.2761 23 16C23 15.7239 22.7761 15.5 22.5 15.5H9.5Z" fill="currentColor"/>
</svg>
