<svg viewBox="0 0 32 32" fill="none" xmlns="http://www.w3.org/2000/svg">
  <path fill-rule="evenodd" clip-rule="evenodd" d="M14.6738 5.78444c.5786-1.04592 2.0741-1.04592 2.6527 0L27.8071 24.7305C28.3665 25.7416 27.6462 27 26.4808 27H5.51951c-1.16541 0-1.88568-1.2584-1.32632-2.2695L14.6738 5.78444zm1.7776.48406c-.198-.358-.7045-.358-.9025 0L5.06822 25.2145c-.19801.358.0627.7855.45129.7855H26.4808c.3886 0 .6493-.4275.4513-.7855L16.4514 6.2685zM15.9998 11.5c.2762 0 .5.2239.5.5v7c0 .2761-.2238.5-.5.5-.2761 0-.5-.2239-.5-.5v-7c0-.2761.2239-.5.5-.5zm0 12c.8285 0 1.5-.6716 1.5-1.5s-.6715-1.5-1.5-1.5c-.8284 0-1.5.6716-1.5 1.5s.6716 1.5 1.5 1.5z" fill="#1B1D1C"/>
</svg>
