<svg width="32" height="32" viewBox="0 0 32 32" fill="none" xmlns="http://www.w3.org/2000/svg">
<path d="M12.364 15.3431C12.5592 15.1479 12.5592 14.8313 12.364 14.636C12.1687 14.4408 11.8521 14.4408 11.6569 14.636L12.364 15.3431ZM15.8995 14.636C15.7042 14.4408 15.3876 14.4408 15.1924 14.636C14.9971 14.8313 14.9971 15.1479 15.1924 15.3431L15.8995 14.636ZM15.5459 19.2322L12.0104 22.7678L12.7175 23.4749L16.253 19.9393L15.5459 19.2322ZM8.47487 19.2322L10.2426 17.4645L9.53553 16.7574L7.76777 18.5251L8.47487 19.2322ZM10.2426 17.4645L12.364 15.3431L11.6569 14.636L9.53553 16.7574L10.2426 17.4645ZM16.253 14.9896L15.8995 14.636L15.1924 15.3431L15.5459 15.6967L16.253 14.9896ZM12.0104 22.7678C11.0341 23.7441 9.45118 23.7441 8.47487 22.7678L7.76777 23.4749C9.1346 24.8417 11.3507 24.8417 12.7175 23.4749L12.0104 22.7678ZM16.253 19.9393C17.6199 18.5725 17.6199 16.3564 16.253 14.9896L15.5459 15.6967C16.5223 16.673 16.5223 18.2559 15.5459 19.2322L16.253 19.9393ZM8.47487 22.7678C7.49856 21.7915 7.49856 20.2085 8.47487 19.2322L7.76777 18.5251C6.40093 19.892 6.40093 22.108 7.76777 23.4749L8.47487 22.7678Z" fill="currentColor"/>
<path d="M18.0208 16.7574C17.8255 16.9527 17.8255 17.2693 18.0208 17.4645C18.2161 17.6598 18.5326 17.6598 18.7279 17.4645L18.0208 16.7574ZM14.4853 17.4645C14.6805 17.6598 14.9971 17.6598 15.1924 17.4645C15.3876 17.2693 15.3876 16.9527 15.1924 16.7574L14.4853 17.4645ZM14.8388 12.8684L18.3744 9.33282L17.6673 8.62571L14.1317 12.1612L14.8388 12.8684ZM21.9099 12.8684L20.1421 14.6361L20.8492 15.3432L22.617 13.5755L21.9099 12.8684ZM20.1421 14.6361L18.0208 16.7574L18.7279 17.4645L20.8492 15.3432L20.1421 14.6361ZM14.1317 17.111L14.4853 17.4645L15.1924 16.7574L14.8388 16.4039L14.1317 17.111ZM18.3744 9.33282C19.3507 8.35651 20.9336 8.35651 21.9099 9.33282L22.617 8.62571C21.2502 7.25888 19.0341 7.25888 17.6673 8.62571L18.3744 9.33282ZM14.1317 12.1612C12.7649 13.5281 12.7649 15.7442 14.1317 17.111L14.8388 16.4039C13.8625 15.4276 13.8625 13.8447 14.8388 12.8684L14.1317 12.1612ZM21.9099 9.33282C22.8862 10.3091 22.8862 11.892 21.9099 12.8684L22.617 13.5755C23.9838 12.2086 23.9838 9.99255 22.617 8.62571L21.9099 9.33282Z" fill="currentColor"/>
</svg>
