<svg width="32" height="32" viewBox="0 0 32 32" fill="none" xmlns="http://www.w3.org/2000/svg">
<path fill-rule="evenodd" clip-rule="evenodd" d="M17.8158 8.41495C16.3561 7.55973 14.4929 8.07029 13.6547 9.54366L13.4004 9.99062C13.2638 10.2306 13.3477 10.5359 13.5877 10.6725C13.8277 10.809 14.133 10.7251 14.2695 10.4851L14.5238 10.0382C15.09 9.04302 16.3374 8.7078 17.3103 9.27778C18.2868 9.84987 18.6273 11.1228 18.0606 12.1218L16.963 14.0002H11.5C10.6716 14.0002 10 14.6717 10 15.5002V22.5002C10 23.3286 10.6716 24.0002 11.5 24.0002H20.5C21.3284 24.0002 22 23.3286 22 22.5002V15.5002C22 14.6718 21.3284 14.0002 20.5 14.0002H18.1212L18.9255 12.6237L18.9256 12.6237L18.9284 12.6187C19.7643 11.1495 19.2711 9.2676 17.8158 8.41495ZM11.5 15.0002C11.2239 15.0002 11 15.224 11 15.5002V22.5002C11 22.7763 11.2239 23.0002 11.5 23.0002H20.5C20.7761 23.0002 21 22.7763 21 22.5002V15.5002C21 15.224 20.7761 15.0002 20.5 15.0002H11.5ZM16 20.5002C16.8284 20.5002 17.5 19.8286 17.5 19.0002C17.5 18.1718 16.8284 17.5002 16 17.5002C15.1716 17.5002 14.5 18.1718 14.5 19.0002C14.5 19.8286 15.1716 20.5002 16 20.5002Z" fill="currentColor"/>
</svg>
