<svg width="32" height="32" viewBox="0 0 32 32" fill="none" xmlns="http://www.w3.org/2000/svg">
<path fill-rule="evenodd" clip-rule="evenodd" d="M16 8C14.3431 8 13 9.34315 13 11V14H11.5C10.6716 14 10 14.6716 10 15.5V22.5C10 23.3284 10.6716 24 11.5 24H20.5C21.3284 24 22 23.3284 22 22.5V15.5C22 14.6716 21.3284 14 20.5 14H19V11C19 9.34315 17.6569 8 16 8ZM18 14V11C18 9.89543 17.1046 9 16 9C14.8954 9 14 9.89543 14 11V14H18ZM13.5 15H11.5C11.2239 15 11 15.2239 11 15.5V22.5C11 22.7761 11.2239 23 11.5 23H20.5C20.7761 23 21 22.7761 21 22.5V15.5C21 15.2239 20.7761 15 20.5 15H18.5H13.5ZM16 20.5C16.8284 20.5 17.5 19.8284 17.5 19C17.5 18.1716 16.8284 17.5 16 17.5C15.1716 17.5 14.5 18.1716 14.5 19C14.5 19.8284 15.1716 20.5 16 20.5Z" fill="currentColor"/>
</svg>
