<svg width="32" height="32" viewBox="0 0 32 32" fill="none" xmlns="http://www.w3.org/2000/svg">
<path fill-rule="evenodd" clip-rule="evenodd" d="M9 15C9 11.6863 11.6863 9 15 9C18.3137 9 21 11.6863 21 15C21 18.3137 18.3137 21 15 21C11.6863 21 9 18.3137 9 15ZM15 8C11.134 8 8 11.134 8 15C8 18.866 11.134 22 15 22C16.753 22 18.3556 21.3556 19.5836 20.2907L19.6464 20.3536L23.1465 23.8536C23.3418 24.0489 23.6584 24.0489 23.8536 23.8536C24.0489 23.6584 24.0489 23.3418 23.8536 23.1465L20.3536 19.6464L20.2907 19.5836C21.3556 18.3556 22 16.753 22 15C22 11.134 18.866 8 15 8ZM15 11C15.2761 11 15.5 11.2239 15.5 11.5V14.5H18.5C18.7761 14.5 19 14.7239 19 15C19 15.2761 18.7761 15.5 18.5 15.5H15.5V18.5C15.5 18.7761 15.2761 19 15 19C14.7239 19 14.5 18.7761 14.5 18.5V15.5H11.5C11.2239 15.5 11 15.2761 11 15C11 14.7239 11.2239 14.5 11.5 14.5H14.5V11.5C14.5 11.2239 14.7239 11 15 11Z" fill="currentColor"/>
</svg>
