<svg width="32" height="32" viewBox="0 0 32 32" fill="none" xmlns="http://www.w3.org/2000/svg">
<path fill-rule="evenodd" clip-rule="evenodd" d="M8.99951 14.6363C8.99951 11.5235 11.523 9 14.6358 9C17.7487 9 20.2721 11.5235 20.2721 14.6363C20.2721 16.1771 19.6539 17.5735 18.652 18.5909C18.6409 18.6002 18.6301 18.6101 18.6196 18.6206C18.6092 18.631 18.5993 18.6418 18.5899 18.6529C17.5725 19.6546 16.1764 20.2726 14.6358 20.2726C11.523 20.2726 8.99951 17.7492 8.99951 14.6363ZM18.9613 19.6694C17.7997 20.6687 16.2883 21.2726 14.6358 21.2726C10.9707 21.2726 7.99951 18.3014 7.99951 14.6363C7.99951 10.9712 10.9707 8 14.6358 8C18.301 8 21.2721 10.9712 21.2721 14.6363C21.2721 16.289 20.668 17.8006 19.6685 18.9623L23.8519 23.1458C24.0472 23.341 24.0472 23.6576 23.8519 23.8529C23.6566 24.0481 23.34 24.0481 23.1448 23.8529L18.9613 19.6694Z" fill="currentColor"/>
</svg>
