<svg width="32" height="32" viewBox="0 0 32 32" fill="none" xmlns="http://www.w3.org/2000/svg">
<path fill-rule="evenodd" clip-rule="evenodd" d="M15 9C11.6863 9 9 11.6863 9 15C9 18.3137 11.6863 21 15 21C18.3137 21 21 18.3137 21 15C21 11.6863 18.3137 9 15 9ZM8 15C8 11.134 11.134 8 15 8C18.866 8 22 11.134 22 15C22 16.753 21.3556 18.3556 20.2907 19.5836L20.3536 19.6464L23.8536 23.1465C24.0489 23.3418 24.0489 23.6584 23.8536 23.8536C23.6584 24.0489 23.3418 24.0489 23.1465 23.8536L19.6464 20.3536L19.5836 20.2907C18.3556 21.3556 16.753 22 15 22C11.134 22 8 18.866 8 15ZM11.5 14.5C11.2239 14.5 11 14.7239 11 15C11 15.2761 11.2239 15.5 11.5 15.5H18.5C18.7761 15.5 19 15.2761 19 15C19 14.7239 18.7761 14.5 18.5 14.5H11.5Z" fill="currentColor"/>
</svg>
