<svg width="32" height="32" viewBox="0 0 32 32" fill="none" xmlns="http://www.w3.org/2000/svg">
  <path fill-rule="evenodd" clip-rule="evenodd" d="M25.0002 13.4512H13.0039v10.4411h.2645l2.0478-3.327c.4927-.8004 1.5916-.9558 2.2869-.3233l.2418.2201c.2292.2085.5909.1605.7578-.1005l1.5981-2.499c.6375-.9969 2.1242-.8976 2.6236.1751l2.1758 4.6739v-9.2604zm0 11.4411c.0654 0 .1293-.0063.1912-.0183h.0311c.157 0 .304-.0736.398-.1974.2313-.1831.3797-.4664.3797-.7843V13.4512c0-.5523-.4478-1-1-1H13.0039c-.5523 0-1 .4477-1 1v10.4411c0 .5523.4477 1 1 1h11.9963zm-3.0824-6.4326c-.1665-.3576-.662-.3906-.8745-.0584l-1.5982 2.4991c-.5007.783-1.5857.9268-2.2731.3014l-.2419-.2201c-.2317-.2108-.5981-.1591-.7623.1077l-1.7139 2.7846h9.9843l-2.5204-5.4143zm-7.0813-2.1207c0-.5827.4724-1.0551 1.0551-1.0551.5828 0 1.0552.4724 1.0552 1.0551 0 .5828-.4724 1.0552-1.0552 1.0552-.5827 0-1.0551-.4724-1.0551-1.0552zm1.0551-2.0551c-1.135 0-2.0551.9201-2.0551 2.0551 0 1.1351.9201 2.0552 2.0551 2.0552 1.1351 0 2.0552-.9201 2.0552-2.0552 0-1.135-.9201-2.0551-2.0552-2.0551z" fill="#131516"/>
  <path fill-rule="evenodd" clip-rule="evenodd" d="M7.00391 6.10938c-.55229 0-1 .44771-1 1V16.148c0 .5523.44771 1 1 1h2.99999v-5.6969c0-.5523.4477-1 1-1h9V7.10937c0-.55228-.4477-.99999-1-.99999H7.00391zm1.52367 1.78515h-1.4807v1.4807h1.4807v-1.4807zm8.88652 0h1.4807v1.4807h-1.4807v-1.4807zM8.52758 10.8555h-1.4807v1.4807h1.4807v-1.4807zm0 2.9609h-1.4807v1.4807h1.4807v-1.4807z" fill="#131516"/>
</svg>
