<svg viewBox="0 0 32 32" fill="none" xmlns="http://www.w3.org/2000/svg">
  <path fill-rule="evenodd" clip-rule="evenodd" d="M24 9H8v14h.72063l2.84197-4.6172c.4926-.8004 1.5916-.9557 2.2868-.3232l.8172.7434c.2291.2085.5908.1606.7577-.1004l2.5185-3.9383c.6375-.9969 2.1242-.8977 2.6236.1751L24 22.3152V9zm-.7843 14H9.89488l2.51932-4.093c.1642-.2668.5305-.3186.7623-.1077l.8171.7434c.6875.6255 1.7724.4816 2.2732-.3014l2.5185-3.9383c.2125-.3323.7081-.2992.8745.0584L23.2157 23zM8 24h16c.5523 0 1-.4477 1-1V9c0-.55228-.4477-1-1-1H8c-.55228 0-1 .44772-1 1v14c0 .5523.44772 1 1 1zm2.5-11c0-.8284.6716-1.5 1.5-1.5s1.5.6716 1.5 1.5-.6716 1.5-1.5 1.5-1.5-.6716-1.5-1.5zm1.5-2.5c-1.3807 0-2.5 1.1193-2.5 2.5s1.1193 2.5 2.5 2.5 2.5-1.1193 2.5-2.5-1.1193-2.5-2.5-2.5z" fill="currentColor"/>
</svg>
