<svg width="32" height="32" viewBox="0 0 32 32" fill="none" xmlns="http://www.w3.org/2000/svg">
<path fill-rule="evenodd" clip-rule="evenodd" d="M14 7.5C13.7239 7.5 13.5 7.72386 13.5 8C13.5 8.27614 13.7239 8.5 14 8.5H21C21.8284 8.5 22.5 9.17157 22.5 10V19C22.5 19.2761 22.7239 19.5 23 19.5C23.2761 19.5 23.5 19.2761 23.5 19V10C23.5 8.61929 22.3807 7.5 21 7.5H14ZM10 10.5C9.17157 10.5 8.5 11.1716 8.5 12V23C8.5 23.8284 9.17157 24.5 10 24.5H19C19.8284 24.5 20.5 23.8284 20.5 23V12C20.5 11.1716 19.8284 10.5 19 10.5H10ZM9.5 12C9.5 11.7239 9.72386 11.5 10 11.5H19C19.2761 11.5 19.5 11.7239 19.5 12V23C19.5 23.2761 19.2761 23.5 19 23.5H10C9.72386 23.5 9.5 23.2761 9.5 23V12ZM12 17C11.7239 17 11.5 17.2239 11.5 17.5C11.5 17.7761 11.7239 18 12 18H14V20C14 20.2761 14.2239 20.5 14.5 20.5C14.7761 20.5 15 20.2761 15 20V18H17C17.2761 18 17.5 17.7761 17.5 17.5C17.5 17.2239 17.2761 17 17 17H15V15C15 14.7239 14.7761 14.5 14.5 14.5C14.2239 14.5 14 14.7239 14 15V17H12Z" fill="currentColor"/>
</svg>
