<svg width="32" height="32" viewBox="0 0 32 32" fill="none" xmlns="http://www.w3.org/2000/svg">
<path fill-rule="evenodd" clip-rule="evenodd" d="M17.6722 11.5785L10.1577 19.093C10.0879 19.1628 10.0403 19.2517 10.021 19.3485L9.51054 21.9006C9.44057 22.2505 9.74903 22.559 10.0989 22.489L12.651 21.9786C12.7478 21.9592 12.8367 21.9116 12.9065 21.8418L20.421 14.3273L17.6722 11.5785ZM21.0185 8.93934C20.4327 8.35355 19.483 8.35355 18.8972 8.93934L9.4506 18.3859C9.2412 18.5953 9.09847 18.862 9.04039 19.1524L8.52996 21.7045C8.32005 22.7541 9.24543 23.6795 10.295 23.4696L12.8471 22.9591C13.1375 22.9011 13.4042 22.7583 13.6136 22.5489L23.0602 13.1024C23.646 12.5166 23.646 11.5668 23.0602 10.981L21.0185 8.93934Z" fill="currentColor"/>
</svg>
