<svg width="32" height="32" viewBox="0 0 32 32" fill="none" xmlns="http://www.w3.org/2000/svg">
<path fill-rule="evenodd" clip-rule="evenodd" d="M20.7846 9.08892C21.0116 9.24611 21.0683 9.55758 20.9111 9.78462L11.9111 22.7846C11.7539 23.0117 11.4424 23.0683 11.2154 22.9111C10.9884 22.7539 10.9317 22.4425 11.0889 22.2154L20.0889 9.21541C20.2461 8.98837 20.5576 8.93174 20.7846 9.08892ZM12 14.5C13.1046 14.5 14 13.6046 14 12.5C14 11.3954 13.1046 10.5 12 10.5C10.8954 10.5 10 11.3954 10 12.5C10 13.6046 10.8954 14.5 12 14.5ZM12 15.5C13.6569 15.5 15 14.1569 15 12.5C15 10.8432 13.6569 9.50002 12 9.50002C10.3431 9.50002 9 10.8432 9 12.5C9 14.1569 10.3431 15.5 12 15.5ZM22 19.5C22 20.6046 21.1046 21.5 20 21.5C18.8954 21.5 18 20.6046 18 19.5C18 18.3954 18.8954 17.5 20 17.5C21.1046 17.5 22 18.3954 22 19.5ZM23 19.5C23 21.1569 21.6569 22.5 20 22.5C18.3431 22.5 17 21.1569 17 19.5C17 17.8432 18.3431 16.5 20 16.5C21.6569 16.5 23 17.8432 23 19.5Z" fill="currentColor"/>
</svg>
