<svg viewBox="0 0 32 32" fill="none" xmlns="http://www.w3.org/2000/svg">
  <path fill-rule="evenodd" clip-rule="evenodd" d="M20.7846 9.08895c.227.15718.2837.46866.1265.6957l-9 13.00005c-.1572.227-.4687.2836-.6957.1264-.227-.1571-.2837-.4686-.1265-.6957l9-12.99996c.1572-.22704.4687-.28367.6957-.12649zM12 14.5c1.1046 0 2-.8954 2-2 0-1.1045-.8954-2-2-2s-2 .8955-2 2c0 1.1046.8954 2 2 2zm0 1c1.6569 0 3-1.3431 3-3 0-1.6568-1.3431-2.99995-3-2.99995S9 10.8432 9 12.5c0 1.6569 1.3431 3 3 3zm10 4c0 1.1046-.8954 2-2 2s-2-.8954-2-2c0-1.1045.8954-2 2-2s2 .8955 2 2zm1 0c0 1.6569-1.3431 3-3 3s-3-1.3431-3-3c0-1.6568 1.3431-3 3-3s3 1.3432 3 3z" fill="currentColor" />
</svg>
