<svg width="32" height="32" viewBox="0 0 32 32" fill="none" xmlns="http://www.w3.org/2000/svg">
<path fill-rule="evenodd" clip-rule="evenodd" d="M24 9H8V23H8.72063L11.5626 18.3828C12.0552 17.5824 13.1542 17.4271 13.8494 18.0596L14.6666 18.803C14.8957 19.0115 15.2574 18.9636 15.4243 18.7026L17.9428 14.7643C18.5803 13.7674 20.067 13.8666 20.5664 14.9394L24 22.3152V9ZM23.2157 23H9.89488L12.4142 18.907C12.5784 18.6402 12.9447 18.5884 13.1765 18.7993L13.9936 19.5427C14.6811 20.1682 15.766 20.0243 16.2668 19.2413L18.7853 15.303C18.9978 14.9707 19.4934 15.0038 19.6598 15.3614L23.2157 23ZM8 24H9H24C24.5523 24 25 23.5523 25 23V9C25 8.44772 24.5523 8 24 8H8C7.44772 8 7 8.44772 7 9V23C7 23.5523 7.44772 24 8 24ZM10.5 13C10.5 12.1716 11.1716 11.5 12 11.5C12.8284 11.5 13.5 12.1716 13.5 13C13.5 13.8284 12.8284 14.5 12 14.5C11.1716 14.5 10.5 13.8284 10.5 13ZM12 10.5C10.6193 10.5 9.5 11.6193 9.5 13C9.5 14.3807 10.6193 15.5 12 15.5C13.3807 15.5 14.5 14.3807 14.5 13C14.5 11.6193 13.3807 10.5 12 10.5Z" fill="currentColor"/>
</svg>
