<svg width="32" height="32" viewBox="0 0 32 32" fill="none" xmlns="http://www.w3.org/2000/svg">
<path fill-rule="evenodd" clip-rule="evenodd" d="M23.2467 8.75305C22.2427 7.74898 20.6148 7.74898 19.6107 8.75305L19.6107 8.75308L17.5356 10.8285L15.8536 9.14645C15.6583 8.95118 15.3417 8.95118 15.1465 9.14645C14.9512 9.34171 14.9512 9.65829 15.1465 9.85355L22.1465 16.8536C22.3417 17.0488 22.6583 17.0488 22.8536 16.8536C23.0488 16.6583 23.0488 16.3417 22.8536 16.1464L21.1715 14.4643L23.2467 12.3891C24.2508 11.385 24.2508 9.75711 23.2467 8.75305ZM20.4644 13.7572L22.5396 11.682C23.1532 11.0684 23.1532 10.0737 22.5396 9.46016C21.9261 8.84663 20.9314 8.84662 20.3178 9.46012L20.3178 9.46016L18.2427 11.5356L20.4644 13.7572ZM15.4137 13.1464C15.609 13.3417 15.609 13.6583 15.4137 13.8536L9.56598 19.7013C8.81136 20.4559 8.81136 21.6794 9.56598 22.434C10.3206 23.1887 11.5441 23.1887 12.2987 22.434L18.1465 16.5863C18.3417 16.391 18.6583 16.391 18.8536 16.5863C19.0488 16.7816 19.0488 17.0981 18.8536 17.2934L13.0058 23.1411C11.8607 24.2863 10.004 24.2863 8.85888 23.1411C7.71373 21.996 7.71373 20.1393 8.85888 18.9942L14.7066 13.1464C14.9019 12.9512 15.2185 12.9512 15.4137 13.1464Z" fill="currentColor"/>
</svg>
