<svg width="32" height="32" viewBox="0 0 32 32" fill="none" xmlns="http://www.w3.org/2000/svg">
<path fill-rule="evenodd" clip-rule="evenodd" d="M9 16C9 12.134 12.134 9 16 9C19.866 9 23 12.134 23 16C23 19.866 19.866 23 16 23C12.134 23 9 19.866 9 16ZM16 8C11.5817 8 8 11.5817 8 16C8 20.4183 11.5817 24 16 24C20.4183 24 24 20.4183 24 16C24 11.5817 20.4183 8 16 8ZM14.7847 19.3801L19.0606 16.8045C19.6465 16.4516 19.6465 15.5484 19.0606 15.1955L14.7847 12.6199C14.21 12.2738 13.5 12.7184 13.5 13.4244V18.5756C13.5 19.2816 14.21 19.7262 14.7847 19.3801Z" fill="currentColor"/>
</svg>
