<svg width="32" height="32" viewBox="0 0 32 32" fill="none" xmlns="http://www.w3.org/2000/svg">
<path fill-rule="evenodd" clip-rule="evenodd" d="M16 24C20.4183 24 24 20.4183 24 16C24 11.5817 20.4183 8 16 8C11.5817 8 8 11.5817 8 16C8 20.4183 11.5817 24 16 24ZM16 12C16.2761 12 16.5 12.2239 16.5 12.5V15.5H19.5C19.7761 15.5 20 15.7239 20 16C20 16.2761 19.7761 16.5 19.5 16.5H16.5V19.5C16.5 19.7761 16.2761 20 16 20C15.7239 20 15.5 19.7761 15.5 19.5V16.5H12.5C12.2239 16.5 12 16.2761 12 16C12 15.7239 12.2239 15.5 12.5 15.5H15.5V12.5C15.5 12.2239 15.7239 12 16 12Z" fill="currentColor"/>
</svg>
