<svg width="32" height="32" viewBox="0 0 32 32" fill="none" xmlns="http://www.w3.org/2000/svg">
<path fill-rule="evenodd" clip-rule="evenodd" d="M16.5 9C16.5 8.72386 16.2761 8.5 16 8.5C15.7239 8.5 15.5 8.72386 15.5 9V15.4979H8.50027C8.22413 15.4979 8.00027 15.7218 8.00027 15.9979C8.00027 16.2741 8.22413 16.4979 8.50027 16.4979H15.5V23.9958C15.5 24.272 15.7239 24.4958 16 24.4958C16.2761 24.4958 16.5 24.272 16.5 23.9958V16.4979H23.4961C23.7722 16.4979 23.9961 16.2741 23.9961 15.9979C23.9961 15.7218 23.7722 15.4979 23.4961 15.4979H16.5V9Z" fill="currentColor"/>
</svg>
