<svg viewBox="0 0 32 32" fill="none" xmlns="http://www.w3.org/2000/svg">
  <path fill-rule="evenodd" clip-rule="evenodd" d="M9 14.6363C9 11.5235 11.5235 9 14.6363 9c3.1129 0 5.6363 2.5235 5.6363 5.6363 0 1.5408-.6182 2.9372-1.6201 3.9546-.0112.0093-.022.0192-.0324.0297-.0105.0104-.0203.0212-.0297.0323-1.0174 1.0017-2.4135 1.6197-3.9541 1.6197C11.5235 20.2726 9 17.7492 9 14.6363zm9.9618 5.0331c-1.1616.9993-2.673 1.6032-4.3255 1.6032C10.9712 21.2726 8 18.3014 8 14.6363 8 10.9712 10.9712 8 14.6363 8c3.6651 0 6.6363 2.9712 6.6363 6.6363 0 1.6527-.6041 3.1643-1.6036 4.326l4.1834 4.1835c.1952.1952.1952.5118 0 .7071-.1953.1952-.5119.1952-.7071 0l-4.1835-4.1835z" fill="currentColor"/>
</svg>
