<svg viewBox="0 0 32 32" fill="none" xmlns="http://www.w3.org/2000/svg">
  <path fill-rule="evenodd" clip-rule="evenodd" d="M13.5 11.5c0 1.3807 1.1193 2.5 2.5 2.5s2.5-1.1193 2.5-2.5S17.3807 9 16 9s-2.5 1.1193-2.5 2.5zM16 8c-1.933 0-3.5 1.567-3.5 3.5S14.067 15 16 15s3.5-1.567 3.5-3.5S17.933 8 16 8zm3.8675 9.1336c.522-.8448 1.743-.8448 2.265 0l2.6648 4.313c.5475.8863-.0758 2.0534-1.1325 2.0534h-5.3296c-1.0567 0-1.68-1.1671-1.1325-2.0534l2.6648-4.313zm1.4143.5257c-.1312-.2124-.4324-.2124-.5636 0l-2.6648 4.313c-.1466.2373.0286.5277.2818.5277h5.3296c.2532 0 .4284-.2904.2818-.5277l-2.6648-4.313zm-10.8461-.6173l3.4082 1.9677c.1491.0861.2002.2768.1141.426l-1.9677 3.4082c-.0861.1491-.2768.2002-.426.1141l-3.40817-1.9677c-.14914-.0861-.20024-.2768-.11414-.426l1.96771-3.4082c.0861-.1491.2768-.2002.426-.1141zm-1.292-.3859c.36224-.6274 1.1645-.8424 1.792-.4801l3.4082 1.9677c.6274.3622.8424 1.1645.4801 1.792l-1.9677 3.4082c-.3622.6274-1.1645.8424-1.792.4801l-3.40817-1.9677c-.62743-.3622-.84241-1.1645-.48016-1.792l1.96773-3.4082z" fill="currentColor"/>
</svg>
