<svg viewBox="0 0 32 32" fill="none" xmlns="http://www.w3.org/2000/svg">
  <path fill-rule="evenodd" clip-rule="evenodd" d="M11.4463 10.0536c-.1953-.19531-.1953-.51189 0-.70715l4.9071-4.2.0011.00113 4.1989 4.19887c.1952.19526.1952.51184 0 .70715-.1953.1952-.5119.1952-.7071 0L16.5 6.7073v14.1929c0 .2761-.2239.5-.5.5s-.5-.2239-.5-.5V6.70691l-3.3466 3.34669c-.1953.1952-.5119.1952-.7071 0zm0-.70715l4.905-4.20202c-.1954-.19324-.5105-.19257-.705.00202l-4.2 4.2zM27 15.4749c0-.5847-.2823-1.1209-.741-1.4993-.4559-.3762-1.0569-.5756-1.6681-.5756h-4.7727c-.2762 0-.5.2238-.5.5 0 .2761.2238.5.5.5h4.7727c.4015 0 .7716.1324 1.0317.3469.2574.2124.3774.4774.3774.728v9.4501c0 .2506-.12.5156-.3774.728-.2601.2145-.6302.347-1.0317.347H7.40909c-.4015 0-.77163-.1325-1.03174-.347C6.11999 25.4406 6 25.1756 6 24.925v-9.4501c0-.2506.11999-.5156.37735-.728.26011-.2145.63024-.347 1.03174-.347h4.77271c.2762 0 .5-.2238.5-.5 0-.2761-.2238-.5-.5-.5H7.40909c-.61114 0-1.21218.1995-1.66812.5757C5.28229 14.354 5 14.8902 5 15.4749v9.4501c0 .5847.28229 1.1209.74097 1.4993.45594.3762 1.05698.5757 1.66812.5757H24.5909c.6111 0 1.2122-.1995 1.6681-.5757.4587-.3784.741-.9146.741-1.4993v-9.4501z" fill="currentColor"/>
</svg>
