<svg width="32" height="32" viewBox="0 0 32 32" fill="none" xmlns="http://www.w3.org/2000/svg">
<path d="M19 10.4408L20.3419 14.0673C20.4432 14.341 20.659 14.5568 20.9327 14.6581L24.5592 16L20.9327 17.3419C20.659 17.4432 20.4432 17.659 20.3419 17.9327L19 21.5592L17.6581 17.9327C17.5568 17.659 17.341 17.4432 17.0673 17.3419L13.4408 16L17.0673 14.6581C17.341 14.5568 17.5568 14.341 17.6581 14.0673L19 10.4408Z" stroke="currentColor" stroke-linecap="round" stroke-linejoin="bevel"/>
<path fill-rule="evenodd" clip-rule="evenodd" d="M11 9.9609L10.5678 11.129C10.4925 11.3323 10.3323 11.4925 10.129 11.5678L8.9609 12L10.129 12.4322C10.3323 12.5075 10.4925 12.6677 10.5678 12.871L11 14.0391L11.4322 12.871C11.5075 12.6677 11.6677 12.5075 11.871 12.4322L13.0391 12L11.871 11.5678C11.6677 11.4925 11.5075 11.3323 11.4322 11.129L11 9.9609ZM11.2322 9.16165C11.1524 8.94612 10.8476 8.94612 10.7678 9.16164L10.1034 10.9572C10.0784 11.0249 10.0249 11.0784 9.95717 11.1034L8.16165 11.7678C7.94612 11.8476 7.94612 12.1524 8.16164 12.2322L9.95717 12.8966C10.0249 12.9216 10.0784 12.9751 10.1034 13.0428L10.7678 14.8384C10.8476 15.0539 11.1524 15.0539 11.2322 14.8384L11.8966 13.0428C11.9216 12.9751 11.9751 12.9216 12.0428 12.8966L13.8384 12.2322C14.0539 12.1524 14.0539 11.8476 13.8384 11.7678L12.0428 11.1034C11.9751 11.0784 11.9216 11.0249 11.8966 10.9572L11.2322 9.16165Z" fill="currentColor"/>
<path fill-rule="evenodd" clip-rule="evenodd" d="M10 17.9609L9.56777 19.129C9.49255 19.3323 9.33227 19.4925 9.12899 19.5678L7.9609 20L9.12899 20.4322C9.33227 20.5075 9.49255 20.6677 9.56777 20.871L10 22.0391L10.4322 20.871C10.5075 20.6677 10.6677 20.5075 10.871 20.4322L12.0391 20L10.871 19.5678C10.6677 19.4925 10.5075 19.3323 10.4322 19.129L10 17.9609ZM10.2322 17.1616C10.1524 16.9461 9.84758 16.9461 9.76783 17.1616L9.10343 18.9572C9.07835 19.0249 9.02493 19.0784 8.95717 19.1034L7.16165 19.7678C6.94612 19.8476 6.94612 20.1524 7.16164 20.2322L8.95717 20.8966C9.02493 20.9216 9.07835 20.9751 9.10343 21.0428L9.76783 22.8384C9.84758 23.0539 10.1524 23.0539 10.2322 22.8384L10.8966 21.0428C10.9216 20.9751 10.9751 20.9216 11.0428 20.8966L12.8384 20.2322C13.0539 20.1524 13.0539 19.8476 12.8384 19.7678L11.0428 19.1034C10.9751 19.0784 10.9216 19.0249 10.8966 18.9572L10.2322 17.1616Z" fill="currentColor"/>
</svg>
