<svg width="32" height="32" viewBox="0 0 32 32" fill="none" xmlns="http://www.w3.org/2000/svg">
<path fill-rule="evenodd" clip-rule="evenodd" d="M6.5 7C5.67157 7 5 7.67157 5 8.5V9.5C5 10.3284 5.67157 11 6.5 11H17.5C18.3284 11 19 10.3284 19 9.5V8.5C19 7.67157 18.3284 7 17.5 7H6.5Z" fill="currentColor"/>
<path fill-rule="evenodd" clip-rule="evenodd" d="M10.5 14C9.67157 14 9 14.6716 9 15.5V16.5C9 17.3284 9.67157 18 10.5 18H21.5C22.3284 18 23 17.3284 23 16.5V15.5C23 14.6716 22.3284 14 21.5 14H10.5Z" fill="currentColor"/>
<path fill-rule="evenodd" clip-rule="evenodd" d="M14.5 21C13.6716 21 13 21.6716 13 22.5V23.5C13 24.3284 13.6716 25 14.5 25H25.5C26.3284 25 27 24.3284 27 23.5V22.5C27 21.6716 26.3284 21 25.5 21H14.5Z" fill="currentColor"/>
</svg>
