<svg width="32" height="32" viewBox="0 0 32 32" fill="none" xmlns="http://www.w3.org/2000/svg">
<path fill-rule="evenodd" clip-rule="evenodd" d="M25.5 7C26.3284 7 27 7.67157 27 8.5V9.5C27 10.3284 26.3284 11 25.5 11H14.5C13.6716 11 13 10.3284 13 9.5V8.5C13 7.67157 13.6716 7 14.5 7H25.5Z" fill="currentColor"/>
<path fill-rule="evenodd" clip-rule="evenodd" d="M21.5 14C22.3284 14 23 14.6716 23 15.5V16.5C23 17.3284 22.3284 18 21.5 18H10.5C9.67157 18 9 17.3284 9 16.5V15.5C9 14.6716 9.67157 14 10.5 14H21.5Z" fill="currentColor"/>
<path fill-rule="evenodd" clip-rule="evenodd" d="M17.5 21C18.3284 21 19 21.6716 19 22.5V23.5C19 24.3284 18.3284 25 17.5 25H6.5C5.67157 25 5 24.3284 5 23.5V22.5C5 21.6716 5.67157 21 6.5 21H17.5Z" fill="currentColor"/>
</svg>
