<svg width="32" height="32" viewBox="0 0 32 32" fill="none" xmlns="http://www.w3.org/2000/svg">
<path fill-rule="evenodd" clip-rule="evenodd" d="M9.5 9C8.67157 9 8 9.67157 8 10.5V21.5C8 22.3284 8.67157 23 9.5 23H22.5C23.3284 23 24 22.3284 24 21.5V10.5C24 9.67157 23.3284 9 22.5 9H13.5H12.5H9.5ZM12.5 10H9.5C9.22386 10 9 10.2239 9 10.5V13H12.5V10ZM9 14V18H12.5L12.5 14H9ZM9 19V21.5C9 21.7761 9.22386 22 9.5 22H12.5V19H9ZM13.5 22H22.5C22.7761 22 23 21.7761 23 21.5V19H13.5V22ZM23 18V14H13.5V18H23ZM23 13V10.5C23 10.2239 22.7761 10 22.5 10H13.5V13H23Z" fill="currentColor"/>
</svg>
