<svg viewBox="0 0 32 32" fill="none" xmlns="http://www.w3.org/2000/svg">
  <path fill-rule="evenodd" clip-rule="evenodd" d="M8 11.5c-.27614 0-.5.2239-.5.5v.7111c0 .2762-.22386.5-.5.5s-.5-.2238-.5-.5V12c0-.8284.67157-1.5 1.5-1.5h7c.8284 0 1.5.6716 1.5 1.5v.7111c0 .2762-.2239.5-.5.5s-.5-.2238-.5-.5V12c0-.2761-.2239-.5-.5-.5h-3v10h1.3c.2761 0 .5.2239.5.5s-.2239.5-.5.5H9.7c-.27614 0-.5-.2239-.5-.5s.22386-.5.5-.5H11v-10H8zm9.5 4.5c0-.2761.2239-.5.5-.5h3v-3c0-.2761.2239-.5.5-.5s.5.2239.5.5v3h3c.2761 0 .5.2239.5.5s-.2239.5-.5.5h-3v3c0 .2761-.2239.5-.5.5s-.5-.2239-.5-.5v-3h-3c-.2761 0-.5-.2239-.5-.5z" fill="currentColor"/>
</svg>
