<svg viewBox="0 0 32 32" fill="none" xmlns="http://www.w3.org/2000/svg">
  <path fill-rule="evenodd" clip-rule="evenodd" d="M21.8536 10.1464c-.048-.0479-.1032-.0841-.1622-.1085-.059-.0244-.1236-.0379-.1914-.0379-.0678 0-.1324.0135-.1914.0379-.059.0244-.1142.0606-.1622.1085l-3 3c-.1952.1953-.1952.5119 0 .7072.1953.1952.5119.1952.7072 0L21 11.7071v8.5858l-2.1464-2.1465c-.1953-.1952-.5119-.1952-.7072 0-.1952.1953-.1952.5119 0 .7072l3 3c.048.0479.1032.0841.1622.1085.0581.024.1217.0375.1884.0379h.006c.1336-.0008.2547-.0539.344-.14.0024-.0024.0049-.0048.0073-.0072l2.9993-2.9992c.1952-.1953.1952-.5119 0-.7072-.1953-.1952-.5119-.1952-.7072 0L22 20.2929v-8.5858l2.1464 2.1465c.1953.1952.5119.1952.7072 0 .1952-.1953.1952-.5119 0-.7072l-3-3zM8 10c-.27614 0-.5.2239-.5.5s.22386.5.5.5h3.5v10.5c0 .2761.2239.5.5.5s.5-.2239.5-.5V11H16c.2761 0 .5-.2239.5-.5s-.2239-.5-.5-.5H8z" fill="currentColor"/>
</svg>
