<svg width="32" height="32" viewBox="0 0 32 32" fill="none" xmlns="http://www.w3.org/2000/svg">
<path fill-rule="evenodd" clip-rule="evenodd" d="M9 10.5C9 9.67157 9.67157 9 10.5 9C11.3284 9 12 9.67157 12 10.5C12 11.3284 11.3284 12 10.5 12C9.67157 12 9 11.3284 9 10.5ZM12.95 10C12.7184 8.85888 11.7095 8 10.5 8C9.11929 8 8 9.11929 8 10.5C8 11.8807 9.11929 13 10.5 13C11.7095 13 12.7184 12.1411 12.95 11H15C15.2761 11 15.5 11.2239 15.5 11.5V13.55C14.3589 13.7816 13.5 14.7905 13.5 16C13.5 17.2095 14.3589 18.2184 15.5 18.45V20.5C15.5 21.3284 16.1716 22 17 22H19.05C19.2816 23.1411 20.2905 24 21.5 24C22.8807 24 24 22.8807 24 21.5C24 20.1193 22.8807 19 21.5 19C20.2905 19 19.2816 19.8589 19.05 21H17C16.7239 21 16.5 20.7761 16.5 20.5V18.45C17.6411 18.2184 18.5 17.2095 18.5 16C18.5 14.7905 17.6411 13.7816 16.5 13.55V11.5C16.5 10.6716 15.8284 10 15 10H12.95ZM20 21.5C20 22.3284 20.6716 23 21.5 23C22.3284 23 23 22.3284 23 21.5C23 20.6716 22.3284 20 21.5 20C20.6716 20 20 20.6716 20 21.5ZM17.5 16C17.5 16.8284 16.8284 17.5 16 17.5C15.1716 17.5 14.5 16.8284 14.5 16C14.5 15.1716 15.1716 14.5 16 14.5C16.8284 14.5 17.5 15.1716 17.5 16Z" fill="currentColor"/>
</svg>
