<svg viewBox="0 0 32 32" fill="none" xmlns="http://www.w3.org/2000/svg">
  <path fill-rule="evenodd" clip-rule="evenodd" d="M14 9.5c0-.27614.2239-.5.5-.5h3c.2761 0 .5.22386.5.5V11h-4V9.5zM13 11H8.5c-.27614 0-.5.2239-.5.5s.22386.5.5.5h15c.2761 0 .5-.2239.5-.5s-.2239-.5-.5-.5H19V9.5c0-.82843-.6716-1.5-1.5-1.5h-3c-.8284 0-1.5.67157-1.5 1.5V11zm-2.5 3c.2761 0 .5.2239.5.5v7c0 .8289.6711 1.5 1.5 1.5h7c.8289 0 1.5-.6711 1.5-1.5v-7c0-.2761.2239-.5.5-.5s.5.2239.5.5v7c0 1.3811-1.1189 2.5-2.5 2.5h-7c-1.3811 0-2.5-1.1189-2.5-2.5v-7c0-.2761.2239-.5.5-.5zm3.5.5c.2761 0 .5.2239.5.5v5c0 .2761-.2239.5-.5.5s-.5-.2239-.5-.5v-5c0-.2761.2239-.5.5-.5zm4.5.5c0-.2761-.2239-.5-.5-.5s-.5.2239-.5.5v5c0 .2761.2239.5.5.5s.5-.2239.5-.5v-5z" fill="currentColor"/>
</svg>
