<svg viewBox="0 0 32 32" fill="none" xmlns="http://www.w3.org/2000/svg">
  <path fill-rule="evenodd" clip-rule="evenodd" d="M7.0011 19.4667V12.5c0-.2761.22386-.5.5-.5s.5.2239.5.5v5.041C10.1491 14.2086 13.6407 12 17.4655 12c2.8146 0 5.3839 1.1826 7.3832 3.1294.1978.1926.2021.5092.0094.707-.1926.1979-.5092.2021-.707.0094C22.3143 14.0574 19.9877 13 17.4655 13c-3.7563 0-7.244 2.3892-9.16206 6h6.36996c.2762 0 .5.2239.5.5s-.2238.5-.5.5H7.51085c-.07281.0016-.1471-.0127-.21782-.0449-.19484-.0887-.30537-.2868-.29193-.4884z" fill="currentColor"/>
</svg>
