<svg viewBox="0 0 32 32" fill="none" xmlns="http://www.w3.org/2000/svg">
  <path fill-rule="evenodd" clip-rule="evenodd" d="M17.8158 8.41477c-1.4597-.85522-3.3229-.34466-4.1611 1.1287l-.2543.44697c-.1366.24006-.0527.54526.1873.68186.24.1365.5453.0527.6818-.1874l.2543-.4469c.5662-.99517 1.8136-1.33038 2.7865-.76041.9765.5721 1.317 1.84511.7503 2.84401L16.963 14H11.5c-.8284 0-1.5.6716-1.5 1.5v7c0 .8284.6716 1.5 1.5 1.5h9c.8284 0 1.5-.6716 1.5-1.5v-7c0-.8284-.6716-1.5-1.5-1.5h-2.3788l.8043-1.3765.0001.0001.0028-.0051c.8359-1.4691.3427-3.35108-1.1126-4.20373zM11.5 15c-.2761 0-.5.2239-.5.5v7c0 .2761.2239.5.5.5h9c.2761 0 .5-.2239.5-.5v-7c0-.2761-.2239-.5-.5-.5h-9zm4.5 5.5c.8284 0 1.5-.6716 1.5-1.5s-.6716-1.5-1.5-1.5-1.5.6716-1.5 1.5.6716 1.5 1.5 1.5z" fill="currentColor"/>
</svg>
