<svg viewBox="0 0 32 32" fill="none" xmlns="http://www.w3.org/2000/svg">
  <path fill-rule="evenodd" clip-rule="evenodd" d="M9.5 8C8.67157 8 8 8.67157 8 9.5v13c0 .8284.67157 1.5 1.5 1.5h13c.8284 0 1.5-.6716 1.5-1.5v-13c0-.82843-.6716-1.5-1.5-1.5h-13zM9 9.5c0-.27614.22386-.5.5-.5h13c.2761 0 .5.22386.5.5v13c0 .2761-.2239.5-.5.5h-13c-.27614 0-.5-.2239-.5-.5v-13zm3.1205 6.3234c-.1798-.2096-.1556-.5253.054-.705l3.4995-3.001c.1873-.1606.4637-.1606.651 0l3.4994 3.001c.2097.1797.2339.4954.0541.705-.1798.2096-.4954.2338-.705.0541L16.499 13.584V19.5c0 .2761-.2238.5-.5.5-.2761 0-.5-.2239-.5-.5v-5.9152l-2.6735 2.2927c-.2096.1797-.5253.1555-.705-.0541z" fill="currentColor"/>
</svg>
