<svg width="32" height="32" viewBox="0 0 32 32" fill="none" xmlns="http://www.w3.org/2000/svg">
<path fill-rule="evenodd" clip-rule="evenodd" d="M9.5 9C8.67157 9 8 9.67157 8 10.5V21.5C8 22.3284 8.67157 23 9.5 23H19.0909C19.9193 23 20.5909 22.3284 20.5909 21.5V19.1098L24.0684 20.1545C25.031 20.4437 26 19.723 26 18.7179V13.2821C26 12.277 25.031 11.5563 24.0684 11.8455L20.5909 12.8902V10.5C20.5909 9.67157 19.9193 9 19.0909 9H9.5ZM9 10.5C9 10.2239 9.22386 10 9.5 10H19.0909C19.3671 10 19.5909 10.2239 19.5909 10.5V13.5625C19.5909 13.7206 19.6657 13.8694 19.7925 13.9637C19.9194 14.058 20.0834 14.0868 20.2348 14.0414L24.3561 12.8032C24.677 12.7068 25 12.9471 25 13.2821V18.7179C25 19.0529 24.677 19.2932 24.3561 19.1968L20.2348 17.9586C20.0834 17.9132 19.9194 17.942 19.7925 18.0363C19.6657 18.1306 19.5909 18.2794 19.5909 18.4375V21.5C19.5909 21.7761 19.3671 22 19.0909 22H9.5C9.22386 22 9 21.7761 9 21.5V10.5ZM13 13C13 13.5523 12.5523 14 12 14C11.4477 14 11 13.5523 11 13C11 12.4477 11.4477 12 12 12C12.5523 12 13 12.4477 13 13Z" fill="currentColor"/>
</svg>
