<svg viewBox="0 0 32 32" fill="none" xmlns="http://www.w3.org/2000/svg">
  <path fill-rule="evenodd" clip-rule="evenodd" d="M9.5 9C8.67157 9 8 9.67157 8 10.5v11c0 .8284.67157 1.5 1.5 1.5h9.5909c.8284 0 1.5-.6716 1.5-1.5v-2.3902l3.4775 1.0447C25.031 20.4437 26 19.723 26 18.7179v-5.4358c0-1.0051-.969-1.7258-1.9316-1.4366l-3.4775 1.0447V10.5c0-.82843-.6716-1.5-1.5-1.5H9.5zM9 10.5c0-.2761.22386-.5.5-.5h9.5909c.2762 0 .5.2239.5.5v3.0625c0 .1581.0748.3069.2016.4012.1269.0943.2909.1231.4423.0777l4.1213-1.2382c.3209-.0964.6439.1439.6439.4789v5.4358c0 .335-.323.5753-.6439.4789l-4.1213-1.2382c-.1514-.0454-.3154-.0166-.4423.0777-.1268.0943-.2016.2431-.2016.4012V21.5c0 .2761-.2238.5-.5.5H9.5c-.27614 0-.5-.2239-.5-.5v-11zm4 2.5c0 .5523-.4477 1-1 1s-1-.4477-1-1 .4477-1 1-1 1 .4477 1 1z" fill="currentColor"/>
</svg>
