<svg viewBox="0 0 32 32" fill="none" xmlns="http://www.w3.org/2000/svg">
  <path fill-rule="evenodd" clip-rule="evenodd" d="M9 15c0-3.3137 2.6863-6 6-6s6 2.6863 6 6-2.6863 6-6 6-6-2.6863-6-6zm6-7c-3.866 0-7 3.134-7 7s3.134 7 7 7c1.753 0 3.3556-.6444 4.5836-1.7093l.0628.0629 3.5001 3.5c.1953.1953.5119.1953.7071 0 .1953-.1952.1953-.5118 0-.7071l-3.5-3.5001-.0629-.0628C21.3556 18.3556 22 16.753 22 15c0-3.866-3.134-7-7-7zm0 3c.2761 0 .5.2239.5.5v3h3c.2761 0 .5.2239.5.5s-.2239.5-.5.5h-3v3c0 .2761-.2239.5-.5.5s-.5-.2239-.5-.5v-3h-3c-.2761 0-.5-.2239-.5-.5s.2239-.5.5-.5h3v-3c0-.2761.2239-.5.5-.5z" fill="currentColor"/>
</svg>
