<svg
  width="135"
  height="136"
  viewBox="0 0 135 136"
  fill="none"
  xmlns="http://www.w3.org/2000/svg"
>
  <circle cx="67.5" cy="68.5" r="67.5" fill="#F4F2EF" />
  <path
    d="M67.5006 93.1457C81.3889 93.1457 92.6476 81.887 92.6476 67.9986C92.6476 54.1103 81.3889 42.8516 67.5006 42.8516C53.6122 42.8516 42.3535 54.1103 42.3535 67.9986C42.3535 81.887 53.6122 93.1457 67.5006 93.1457Z"
    stroke="#4285F4"
    stroke-width="3"
    stroke-linecap="round"
    stroke-linejoin="round"
  />
  <path
    fill-rule="evenodd"
    clip-rule="evenodd"
    d="M81.6984 57.6399C82.2942 58.2154 82.3107 59.165 81.7351 59.7609L63.8055 78.3234C63.5228 78.616 63.1334 78.7813 62.7266 78.7813C62.3197 78.7813 61.9303 78.616 61.6477 78.3234L54.2649 70.68C53.6893 70.0841 53.7058 69.1345 54.3016 68.559C54.8975 67.9834 55.8471 67.9999 56.4226 68.5958L62.7266 75.1222L79.5774 57.6766C80.1529 57.0808 81.1025 57.0643 81.6984 57.6399Z"
    fill="#4285F4"
  />
</svg>