<svg fill="none" height="18" viewBox="0 0 18 18" width="18" xmlns="http://www.w3.org/2000/svg"><path clip-rule="evenodd" d="m8.25049 11.2509h-3c-1.2375 0-2.25-1.0125-2.25-2.25005 0-1.2375 1.0125-2.25 2.25-2.25h3v-1.5h-3c-2.07 0-3.75 1.68-3.75 3.75 0 2.07005 1.68 3.75005 3.75 3.75005h3zm4.49981-6.00005h-3.00004v1.5h3.00004c1.2375 0 2.25 1.0125 2.25 2.25 0 1.23755-1.0125 2.25005-2.25 2.25005h-3.00004v1.5h3.00004c2.07 0 3.75-1.68 3.75-3.75005 0-2.07-1.68-3.75-3.75-3.75zm-.7498 3.00084h-6.00001v1.5h6.00001z" fill="#fff" fill-rule="evenodd"/></svg>