<svg fill="none" height="24" viewBox="0 0 24 24" width="24" xmlns="http://www.w3.org/2000/svg"><path clip-rule="evenodd" d="m12.0005 1.9989c-5.52001 0-10.00001 4.48-10.00001 10s4.48 10 10.00001 10c5.52 0 10-4.48 10-10s-4.48-10-10-10zm-.0001 18.0002c-4.42001 0-8-3.58-8-8 0-4.42001 3.57999-8.00001 8-8.00001 4.42 0 8 3.58 8 8.00001 0 4.42-3.58 8-8 8zm-5.00001-8c0-2.76144 2.23858-5.00001 5.00001-5.00001 2.7614 0 5 2.23857 5 5.00001 0 2.7614-2.2386 5-5 5-2.76143 0-5.00001-2.2386-5.00001-5z" fill="currentColor" fill-rule="evenodd"/></svg>
