<svg width="742" height="132" viewBox="0 0 742 132" fill="none" xmlns="http://www.w3.org/2000/svg">
<g clip-path="url(#clip0)">
<path d="M17.8753 112.892C5.95843 100.096 0 84.494 0 65.9123C0 47.1554 5.95843 31.5538 17.8753 19.1076C29.9674 6.31076 45.0387 0 62.914 0C70.4497 0 82.3666 0 82.3666 0C82.3666 0 72.2022 26.6454 62.5635 26.6454C52.0487 26.6454 43.2863 30.3267 36.1011 37.8645C29.2664 45.4024 25.5862 54.6932 25.5862 65.9123C25.5862 77.1315 29.0912 86.4223 36.1011 93.9602C43.2863 101.498 52.0487 105.179 62.5635 105.179C71.3259 105.179 76.5834 131.825 76.5834 131.825C76.5834 131.825 71.5012 131.825 62.7388 131.825C45.0387 132 29.9674 125.689 17.8753 112.892Z" fill="#0072BB"/>
<path d="M34.699 112.892C22.7822 100.096 16.8237 84.494 16.8237 65.9123C16.8237 47.1554 22.7822 31.5538 34.699 19.1076C46.7911 6.31076 61.8625 0 79.7378 0C87.2734 0 99.1903 0 99.1903 0C99.1903 0 89.0259 26.6454 79.3873 26.6454C68.8724 26.6454 60.11 30.3267 52.9248 37.8645C46.0901 45.4024 42.4099 54.6932 42.4099 65.9123C42.4099 77.1315 45.9149 86.4223 52.9248 93.9602C60.11 101.498 68.8724 105.179 79.3873 105.179C88.1497 105.179 93.4071 131.825 93.4071 131.825C93.4071 131.825 88.3249 131.825 79.5625 131.825C61.8625 132 46.7911 125.689 34.699 112.892Z" fill="#7DC24B"/>
<path d="M51.523 112.892C39.6061 100.096 33.6477 84.494 33.6477 65.9123C33.6477 47.1554 39.6061 31.5538 51.523 18.9323C63.7904 6.31076 78.6864 0 96.5617 0C104.097 0 116.014 0 116.014 0C116.014 0 106.025 26.6454 96.3865 26.6454C85.8716 26.6454 77.1092 30.3267 69.924 37.8645C63.0894 45.4024 59.4092 54.6932 59.4092 65.9123C59.4092 77.1315 62.9141 86.4223 69.924 93.9602C77.1092 101.673 85.8716 105.355 96.3865 105.355C105.149 105.355 110.406 132 110.406 132C110.406 132 105.324 132 96.5617 132C78.6864 132 63.7904 125.689 51.523 112.892Z" fill="#FED035"/>
<path d="M68.3467 112.892C56.4299 100.096 50.4714 84.494 50.4714 65.9123C50.4714 47.1554 56.4299 31.5538 68.3467 18.9323C80.6141 6.31076 95.5102 0 113.385 0C120.921 0 132.838 0 132.838 0C132.838 0 122.674 26.6454 113.035 26.6454C102.52 26.6454 93.7577 30.3267 86.5725 37.8645C79.7378 45.4024 76.0576 54.6932 76.0576 65.9123C76.0576 77.1315 79.5626 86.4223 86.5725 93.9602C93.7577 101.498 102.52 105.179 113.035 105.179C121.797 105.179 127.055 131.825 127.055 131.825C127.055 131.825 121.973 131.825 113.21 131.825C95.5102 132 80.6141 125.689 68.3467 112.892Z" fill="#FF4C3D"/>
<path d="M86.0467 112.892C74.1298 100.096 68.1714 84.494 68.1714 65.9123C68.1714 47.1554 74.1298 31.5538 86.0467 18.9323C98.1388 6.31076 113.21 0 131.085 0C154.218 0 174.722 12.6215 184.186 32.4303L162.104 45.9283C156.672 33.8327 145.105 26.6454 130.91 26.6454C120.395 26.6454 111.633 30.3267 104.448 37.8645C97.613 45.4024 93.9328 54.6932 93.9328 65.9123C93.9328 77.1315 97.4378 86.4223 104.448 93.9602C111.633 101.498 120.395 105.179 130.91 105.179C144.93 105.179 156.847 97.6414 162.63 85.8964L184.711 99.2191C174.547 119.378 154.218 132 131.085 132C113.21 132 98.1388 125.689 86.0467 112.892Z" fill="white"/>
<path d="M213.102 112.892C201.01 100.096 194.701 84.494 194.701 65.9123C194.701 47.3307 200.835 31.7291 213.102 18.9323C225.194 6.31076 240.265 0 257.615 0C275.315 0 290.036 6.31076 302.128 19.1076C314.22 31.9044 320.529 47.506 320.529 66.0876C320.529 84.6693 314.395 100.271 302.128 113.068C290.036 125.865 275.14 132.175 257.615 132.175C240.265 132 225.194 125.689 213.102 112.892ZM257.615 105.705C268.13 105.705 276.892 102.024 284.077 94.4861C291.263 86.9482 294.768 77.4821 294.768 66.0876C294.768 54.8685 291.263 45.2271 284.077 37.6892C276.892 30.1514 268.13 26.2948 257.615 26.2948C247.1 26.2948 238.338 29.9761 231.153 37.5139C223.967 45.0518 220.462 54.5179 220.462 65.9123C220.462 77.1315 223.967 86.7729 231.153 94.3108C238.338 101.849 247.1 105.705 257.615 105.705Z" fill="white"/>
<path d="M419.895 3.33057H447.934L401.494 128.844H371.701L325.261 3.33057H353.3L386.598 98.6931L419.895 3.33057Z" fill="white"/>
<path d="M479.654 77.4821C483.509 96.5896 498.055 107.108 517.858 107.108C531.527 107.108 541.691 101.849 548.526 91.506L569.731 104.478C557.989 122.709 540.64 131.825 517.507 131.825C498.23 131.825 482.457 125.514 470.541 113.243C458.624 100.622 452.665 84.8446 452.665 65.7371C452.665 46.9801 458.624 31.3785 470.365 18.757C482.107 6.31076 497.354 0 515.755 0C533.104 0 547.475 6.48606 558.69 19.2829C569.906 32.0797 575.689 47.8566 575.689 66.2629C575.689 69.0677 575.514 72.749 574.813 77.4821H479.654ZM549.578 55.3944C546.073 35.0598 532.403 24.5418 515.579 24.5418C496.477 24.5418 483.158 36.2869 479.654 55.3944H549.578Z" fill="white"/>
<path d="M623.883 24.366C630.367 8.76442 642.634 1.05127 660.51 1.05127V30.3262C650.696 29.625 642.109 32.0792 634.748 37.864C627.388 43.2983 623.707 52.5891 623.707 65.3859V128.669H597.946V3.33015H623.883V24.366Z" fill="white"/>
<path d="M705.374 24.366C711.858 8.76442 724.125 1.05127 742 1.05127V30.3262C732.187 29.625 723.599 32.0792 716.239 37.864C708.879 43.2983 705.198 52.5891 705.198 65.3859V128.669H679.437V3.33015H705.198V24.366H705.374Z" fill="white"/>
</g>
<defs>
<clipPath id="clip0">
<rect width="742" height="132" fill="white"/>
</clipPath>
</defs>
</svg>
