<svg viewBox="0 0 16 16" xmlns="http://www.w3.org/2000/svg" fill-rule="evenodd" clip-rule="evenodd" stroke-linejoin="round" stroke-miterlimit="2">
  <path d="M1 2.5C1 1.672 1.672 1 2.5 1S4 1.672 4 2.5 3.328 4 2.5 4 1 3.328 1 2.5zM4.95 2C4.718.859 3.709 0 2.5 0 1.119 0 0 1.119 0 2.5S1.119 5 2.5 5c1.21 0 2.218-.859 2.45-2H7c.276 0 .5.224.5.5v2.05c-1.141.232-2 1.241-2 2.45s.859 2.218 2 2.45v2.05c0 .828.672 1.5 1.5 1.5h2.05c.232 1.141 1.241 2 2.45 2 1.381 0 2.5-1.119 2.5-2.5S14.881 11 13.5 11c-1.209 0-2.218.859-2.45 2H9c-.276 0-.5-.224-.5-.5v-2.05c1.141-.232 2-1.241 2-2.45s-.859-2.218-2-2.45V3.5C8.5 2.672 7.828 2 7 2H4.95zM12 13.5c0 .828.672 1.5 1.5 1.5s1.5-.672 1.5-1.5-.672-1.5-1.5-1.5-1.5.672-1.5 1.5zM9.5 8c0 .828-.672 1.5-1.5 1.5S6.5 8.828 6.5 8 7.172 6.5 8 6.5s1.5.672 1.5 1.5z" fill="currentColor" />
</svg>