<svg viewBox="0 0 18 14" xmlns="http://www.w3.org/2000/svg" fill-rule="evenodd" clip-rule="evenodd" stroke-linejoin="round" stroke-miterlimit="2">
  <path d="M1.5 0C.672 0 0 .672 0 1.5v11c0 .828.672 1.5 1.5 1.5h9.591c.828 0 1.5-.672 1.5-1.5v-2.39l3.477 1.045c.963.289 1.932-.432 1.932-1.437V4.282c0-1.005-.969-1.726-1.932-1.436L12.591 3.89V1.5c0-.828-.672-1.5-1.5-1.5H1.5zM1 1.5c0-.276.224-.5.5-.5h9.591c.276 0 .5.224.5.5v3.063c0 .158.075.306.201.401.127.094.291.123.443.077l4.121-1.238c.321-.096.644.144.644.479v5.436c0 .335-.323.575-.644.479l-4.121-1.238c-.152-.046-.316-.017-.442.077-.127.095-.202.243-.202.402V12.5c0 .276-.224.5-.5.5H1.5c-.276 0-.5-.224-.5-.5v-11zM5 4c0 .552-.448 1-1 1s-1-.448-1-1 .448-1 1-1 1 .448 1 1z" fill="currentColor" />
</svg>
