<svg width="10" height="10" viewBox="0 0 10 10" fill="none" xmlns="http://www.w3.org/2000/svg">
<path d="M6.86914 1.98975L5.54932 8.18213H6.94385C7.32015 8.18213 7.57471 8.25407 7.70752 8.39795C7.84033 8.5363 7.87354 8.76318 7.80713 9.07861C7.74072 9.39958 7.60791 9.63477 7.40869 9.78418C7.21501 9.92806 6.93278 10 6.56201 10H1.63135C1.25505 10 1.00049 9.92806 0.867676 9.78418C0.734863 9.6403 0.70166 9.40511 0.768066 9.07861C0.834473 8.75765 0.961751 8.52799 1.1499 8.38965C1.34359 8.2513 1.63135 8.18213 2.01318 8.18213H3.40771L4.72754 1.98975H3.33301C2.95671 1.98975 2.70215 1.91781 2.56934 1.77393C2.43652 1.63005 2.40332 1.39762 2.46973 1.07666C2.54167 0.750163 2.67171 0.517741 2.85986 0.379395C3.04801 0.241048 3.33301 0.171875 3.71484 0.171875H8.64551C9.03841 0.171875 9.2985 0.241048 9.42578 0.379395C9.55306 0.517741 9.58073 0.750163 9.50879 1.07666C9.44238 1.39762 9.31234 1.63005 9.11865 1.77393C8.9305 1.91781 8.64551 1.98975 8.26367 1.98975H6.86914Z" fill="currentColor"/>
</svg>
