<svg width="24" height="18" viewBox="0 0 24 18" fill="none" xmlns="http://www.w3.org/2000/svg">
  <path fill-rule="evenodd" clip-rule="evenodd" d="M21.334 0.832031H2.66732C1.38398 0.832031 0.345651 1.88203 0.345651 3.16536L0.333984 14.832C0.333984 16.1154 1.38398 17.1654 2.66732 17.1654H21.334C22.6173 17.1654 23.6673 16.1154 23.6673 14.832V3.16536C23.6673 1.88203 22.6173 0.832031 21.334 0.832031ZM21.334 3.16536V14.832H2.66732V3.16536H21.334ZM13.1673 4.33203H10.834V6.66536H13.1673V4.33203ZM10.834 7.83203H13.1673V10.1654H10.834V7.83203ZM9.66732 4.33203H7.33398V6.66536H9.66732V4.33203ZM7.33398 7.83203H9.66732V10.1654H7.33398V7.83203ZM6.16732 7.83203H3.83398V10.1654H6.16732V7.83203ZM3.83398 4.33203H6.16732V6.66536H3.83398V4.33203ZM16.6673 11.332H7.33398V13.6654H16.6673V11.332ZM14.334 7.83203H16.6673V10.1654H14.334V7.83203ZM16.6673 4.33203H14.334V6.66536H16.6673V4.33203ZM17.834 7.83203H20.1673V10.1654H17.834V7.83203ZM20.1673 4.33203H17.834V6.66536H20.1673V4.33203Z" fill="white"/>
</svg>
