<?xml version="1.0" encoding="UTF-8"?>
<svg width="15px" height="15px" viewBox="0 0 15 15" version="1.1" xmlns="http://www.w3.org/2000/svg" xmlns:xlink="http://www.w3.org/1999/xlink">
    <!-- Generator: Sketch 60.1 (88133) - https://sketch.com -->
    <title>Artboard</title>
    <desc>Created with Sketch.</desc>
    <g id="Artboard" stroke="none" stroke-width="1" fill="none" fill-rule="evenodd">
        <path d="M10.9258104,4.99165523 L11.6126455,4.9904558 C12.3680487,4.98908503 12.9872222,5.63060581 12.9884584,6.41588618 L13.0000019,13.555375 C13.0012325,14.3406554 12.3842018,14.984318 11.6287162,14.9856031 L3.38737113,15.0000051 C2.63191849,15.0012812 2.01277796,14.3598461 2.01151703,13.5744801 L2.00000192,6.43507697 C1.99874292,5.64971093 2.61580663,5.006134 3.37126751,5.00476323 L4.05804489,5.0035638 L4.05573731,3.57570888 C4.05256438,1.60522573 5.58837507,0.00331717222 7.48388821,5.08585207e-06 C9.37940136,-0.00328822998 10.9203711,1.59326575 10.9235029,3.56374033 L10.9258104,4.99165523 Z M7.48619579,1.42787915 C6.34616826,1.42986986 5.42742128,2.38815009 5.42931386,3.57329289 L5.43162437,5.00116495 L9.55230512,4.99396841 L9.54999754,3.56611348 C9.54810203,2.38097068 8.62630574,1.42589463 7.48619579,1.42787915 Z M3.38510476,13.5720813 L3.37359982,6.43267812 L11.6149531,6.41828503 L11.626491,13.5577738 L3.38510476,13.5720813 Z M8.87354844,9.99282713 C8.87478279,10.7781075 8.25775206,11.4217701 7.50226645,11.4230574 C6.74686325,11.424426 6.12768976,10.7829052 6.12645145,9.99762483 C6.12513494,9.21225878 6.74224809,8.56859618 7.49765129,8.56730915 C8.2531369,8.56602598 8.87231039,9.20746108 8.87354844,9.99282713 Z" id="Shape" fill="currentColor"></path>
    </g>
</svg>