<?xml version="1.0" encoding="UTF-8"?>
<svg width="15px" height="15px" viewBox="0 0 15 15" version="1.1" xmlns="http://www.w3.org/2000/svg" xmlns:xlink="http://www.w3.org/1999/xlink">
    <!-- Generator: Sketch 60.1 (88133) - https://sketch.com -->
    <title>Artboard</title>
    <desc>Created with Sketch.</desc>
    <g id="Artboard" stroke="none" stroke-width="1" fill="none" fill-rule="evenodd">
        <path d="M12.0187256,5.000025 L11.3030884,5.000025 L11.3030884,3.571425 C11.3030884,1.5999975 9.70011812,0 7.72497746,0 C5.74983679,0 4.14686655,1.5999975 4.14686655,3.571425 L5.57814097,3.571425 C5.57814097,2.3857125 6.53708281,1.42857 7.72497746,1.42857 C8.91294725,1.42857 9.87181395,2.3857125 9.87181395,3.571425 L9.87181395,5.000025 L3.43124436,5.000025 C2.64405846,5.000025 2,5.64285 2,6.42855 L2,13.5714 C2,14.357175 2.64405846,15 3.43124436,15 L12.0187256,15 C12.8058965,15 13.45,14.357175 13.45,13.5714 L13.45,6.42855 C13.45,5.64285 12.8058965,5.000025 12.0187256,5.000025 Z M12.0188007,13.5714 L3.43134205,13.5714 L3.43134205,6.42855 L12.0188007,6.42855 L12.0188007,13.5714 Z M9.15625188,9.999975 C9.15625188,10.78575 8.51214833,11.428575 7.72497746,11.428575 C6.93780658,11.428575 6.29370304,10.78575 6.29370304,9.999975 C6.29370304,9.214275 6.93780658,8.57145 7.72497746,8.57145 C8.51214833,8.57145 9.15625188,9.214275 9.15625188,9.999975 Z" id="icon/action/lock_open_24px" fill="currentColor"></path>
    </g>
</svg>