<svg viewBox="0 0 32 32" fill="none" xmlns="http://www.w3.org/2000/svg">
  <path
    d="M16.5 7v3M26 16.5h-3M16.5 26v-3M7 16.5h3M16.5 26c5.2467 0 9.5-4.2533 9.5-9.5S21.7467 7 16.5 7 7 11.2533 7 16.5s4.2533 9.5 9.5 9.5z"
    stroke="#767570"
    stroke-miterlimit="10"
    stroke-linecap="round"
    stroke-linejoin="round"
  />
  <path
    d="M19.8511 12.4924c.4148-.1778.8343.2417.6565.6565l-2.1288 4.9673c-.0506.118-.1446.212-.2626.2626l-4.9673 2.1288c-.4148.1778-.8343-.2417-.6565-.6565l2.1288-4.9673c.0506-.118.1446-.212.2626-.2626l4.9673-2.1288z"
    fill="#EFEFEF"
    stroke="#767570"
    stroke-miterlimit="10"
    stroke-linecap="round"
    stroke-linejoin="round"
  />
</svg>
