<svg viewBox="0 0 20 20" xmlns="http://www.w3.org/2000/svg" fill-rule="evenodd" clip-rule="evenodd" stroke-linecap="round" stroke-linejoin="round" stroke-miterlimit="10">
  <g stroke="#767570">
    <path d="M10 .5v3m9.5 6.5h-3M10 19.5v-3M.5 10h3m6.5 9.5c5.247 0 9.5-4.253 9.5-9.5S15.247.5 10 .5.5 4.753.5 10s4.253 9.5 9.5 9.5z" fill="none"/>
    <path d="M13.351 5.992c.415-.177.834.242.657.657l-2.129 4.967c-.051.118-.145.212-.263.263l-4.967 2.129c-.415.177-.834-.242-.657-.657l2.129-4.967c.051-.118.145-.212.263-.263l4.967-2.129z" fill="#efefef" fill-rule="nonzero"/>
  </g>
</svg>