<svg width="24" height="24" viewBox="0 0 24 24" fill="none" xmlns="http://www.w3.org/2000/svg">
<path d="M15.7812 10.7209C15.5226 10.4629 15.2114 10.2658 14.8696 10.1434C14.5277 10.021 14.1636 9.97644 13.803 10.0127C13.4423 10.049 13.0939 10.1654 12.7823 10.3535C12.4708 10.5417 12.2037 10.797 12 11.1015C11.7963 10.797 11.5292 10.5417 11.2177 10.3535C10.9061 10.1654 10.5577 10.049 10.197 10.0127C9.83637 9.97644 9.47226 10.021 9.13043 10.1434C8.7886 10.2658 8.4774 10.4629 8.21882 10.7209C7.99118 10.9483 7.81039 11.2194 7.68697 11.5184C7.56356 11.8175 7.5 12.1385 7.5 12.4628C7.5 12.7871 7.56356 13.1081 7.68697 13.4072C7.81039 13.7063 7.99118 13.9774 8.21882 14.2047L12 18.0005L15.7812 14.2047C16.0088 13.9774 16.1896 13.7063 16.313 13.4072C16.4364 13.1081 16.5 12.7871 16.5 12.4628C16.5 12.1385 16.4364 11.8175 16.313 11.5184C16.1896 11.2194 16.0088 10.9483 15.7812 10.7209Z" stroke="#393D3F" stroke-miterlimit="10" stroke-linecap="round" stroke-linejoin="round"/>
<path d="M1 10.9999L11.3668 2.51803C11.7351 2.21664 12.2649 2.21664 12.6332 2.51803L23 10.9999M4.00029 8.99994V20.9999C4.00029 21.5522 4.44801 21.9999 5.00029 21.9999H19.0003C19.5526 21.9999 20.0003 21.5522 20.0003 20.9999V8.99994" stroke="#393D3F" stroke-miterlimit="10" stroke-linecap="round" stroke-linejoin="round"/>
</svg>
