<svg viewBox="0 0 19 21" xmlns="http://www.w3.org/2000/svg" fill-rule="evenodd" clip-rule="evenodd" stroke-linecap="round" stroke-linejoin="round" stroke-miterlimit="10">
  <path d="M14.5 11.5c0-.552-.448-1-1-1h-8c-.552 0-1 .448-1 1v4c0 .552.448 1 1 1h8c.552 0 1-.448 1-1v-4z" fill="#efefef"/>
  <path d="M5.333 16.5c-.46 0-.833-.448-.833-1v-4c0-.552.373-1 .833-1h8.334c.46 0 .833.448.833 1v4" fill="none" stroke="#767570"/>
  <path d="M16.7 20.5H2.3c-.477 0-.935-.211-1.273-.586C.69 19.539.5 19.03.5 18.5v-16c0-.53.19-1.039.527-1.414C1.365.711 1.823.5 2.3.5h11.255c.283 0 .553.12.743.331l3.945 4.384c.166.183.257.422.257.669V18.5c0 .53-.19 1.039-.527 1.414-.338.375-.796.586-1.273.586zm-4.2-16v2" fill="none" stroke="#767570"/>
</svg>