<svg viewBox="0 0 23 21" xmlns="http://www.w3.org/2000/svg" fill-rule="evenodd" clip-rule="evenodd" stroke-linecap="round" stroke-linejoin="round" stroke-miterlimit="10">
  <g stroke="#79b3ff">
    <path d="M15.281 8.92901c-.258-.258-.57-.455-.911-.577-.342-.123-.706-.167-1.067-.131-.361.036-.709.153-1.021.341-.311.188-.578.443-.782.748-.204-.305-.471-.56-.782-.748-.312-.188-.66-.305-1.021-.341-.361-.036-.725.008-1.067.131-.341.122-.653.319-.911.577-.228.227-.409.499-.532.798-.123.299-.187.62-.187.944 0 .324.064.645.187.944.123.299.304.571.532.798l3.781 3.796 3.781-3.796c.228-.227.409-.499.532-.798.123-.299.187-.62.187-.944 0-.324-.064-.645-.187-.944-.123-.299-.304-.57-.532-.798z" fill="#feefc3" fill-rule="nonzero"/>
    <path d="M.5 9.20801l10.367-8.482c.368-.301.898-.301 1.266 0l10.367 8.482m-19-2v12c0 .552.448 1 1 1h14c.553 0 1-.448 1-1v-12" fill="none"/>
  </g>
</svg>