<svg viewBox="0 0 32 32" fill="none" xmlns="http://www.w3.org/2000/svg">
  <path d="M19.7812 14.7212c-.2586-.258-.5698-.4552-.9116-.5775-.3419-.1224-.706-.167-1.0666-.1307-.3607.0363-.7091.1526-1.0207.3408-.3115.1881-.5786.4435-.7823.748-.2037-.3045-.4708-.5599-.7823-.748-.3116-.1882-.66-.3045-1.0207-.3408-.3606-.0363-.7247.0083-1.0666.1307-.3418.1223-.653.3195-.9116.5775-.2276.2273-.4084.4984-.5318.7975-.1234.299-.187.6201-.187.9444 0 .3242.0636.6453.187.9443.1234.2991.3042.5702.5318.7975L16 22.0007l3.7812-3.7958c.2276-.2273.4084-.4984.5318-.7975.1234-.299.187-.6201.187-.9443 0-.3243-.0636-.6454-.187-.9444-.1234-.2991-.3042-.5702-.5318-.7975z" fill="#EFEFEF" stroke="#767570" stroke-miterlimit="10" stroke-linecap="round" stroke-linejoin="round"/>
  <path d="M5 14.9999l10.3668-8.48187c.3683-.30139.8981-.30139 1.2664 0L27 14.9999m-18.99971-2v12c0 .5523.44772 1 1 1H23.0003c.5523 0 1-.4477 1-1v-12" stroke="#767570" stroke-miterlimit="10" stroke-linecap="round" stroke-linejoin="round"/>
</svg>