<svg width="9" height="10" viewBox="0 0 9 10" fill="none" xmlns="http://www.w3.org/2000/svg">
<path d="M6.818 4.96C7.38733 5.08133 7.84467 5.366 8.19 5.814C8.53533 6.25267 8.708 6.75667 8.708 7.326C8.708 8.14733 8.41867 8.80067 7.84 9.286C7.27067 9.762 6.47267 10 5.446 10H0.868V0.172H5.292C6.29067 0.172 7.07 0.400666 7.63 0.857999C8.19933 1.31533 8.484 1.936 8.484 2.72C8.484 3.29867 8.33 3.77933 8.022 4.162C7.72333 4.54467 7.322 4.81067 6.818 4.96ZM3.262 4.148H4.83C5.222 4.148 5.52067 4.064 5.726 3.896C5.94067 3.71867 6.048 3.462 6.048 3.126C6.048 2.79 5.94067 2.53333 5.726 2.356C5.52067 2.17867 5.222 2.09 4.83 2.09H3.262V4.148ZM5.026 8.068C5.42733 8.068 5.73533 7.97933 5.95 7.802C6.174 7.61533 6.286 7.34933 6.286 7.004C6.286 6.65867 6.16933 6.388 5.936 6.192C5.712 5.996 5.39933 5.898 4.998 5.898H3.262V8.068H5.026Z" fill="currentColor"/>
</svg>
