<svg fill="none" height="16" viewBox="0 0 16 16" width="16" xmlns="http://www.w3.org/2000/svg"><g fill="#fff"><path d="m7.33399 4.66659h1.33333v1.33333h-1.33333z"/><path d="m7.33399 7.33325h1.33333v4.00005h-1.33333z"/><path clip-rule="evenodd" d="m1.33398 7.99992c0-3.68 2.98666-6.66667 6.66667-6.66667 3.68005 0 6.66665 2.98667 6.66665 6.66667 0 3.67998-2.9866 6.66668-6.66665 6.66668-3.68001 0-6.66667-2.9867-6.66667-6.66668zm1.33334 0c0 2.93998 2.39331 5.33338 5.33333 5.33338 2.94005 0 5.33335-2.3934 5.33335-5.33338 0-2.94-2.3933-5.33333-5.33335-5.33333-2.94002 0-5.33333 2.39333-5.33333 5.33333z" fill-rule="evenodd"/></g></svg>