<svg fill="none" height="28" viewBox="0 0 28 28" width="28" xmlns="http://www.w3.org/2000/svg"><g fill="currentColor"><path clip-rule="evenodd" d="m6.1938 10.2417-1.95027 1.9503c-.32505.325-.32505.8501 0 1.1751l1.52521 1.5253 3.12544-3.1255-1.52521-1.5252c-.15836-.1584-.36672-.2417-.58342-.2417-.21669 0-.42506.075-.59175.2417zm12.8101 11.6323v3.1254h-3.1254l-9.21801-9.2179 3.12544-3.1255zm-2.4337 1.4629h.7668v-.7668l-7.55107-7.5511-.76678.7668z" fill-rule="evenodd"/><path d="m16.1581 6.52566.8419-2.52566.8419 2.52566c.0995.2986.3338.53292.6324.63245l2.5257.84189-2.6295 1.31476c-.2372.11861-.4176.32659-.5015.5782l-.869 2.60704-.869-2.60704c-.0839-.25161-.2643-.45959-.5015-.5782l-2.6295-1.31476 2.5257-.84189c.2986-.09953.5329-.33385.6324-.63245z"/><path d="m22.2917 4.58803.2083-.58803.2083.58803c.1049.29641.3432.52617.6432.6203l.6485.20343-.7475.35175c-.2416.1137-.4277.31928-.5168.57098l-.2357.66551-.2357-.66551c-.0891-.2517-.2752-.45728-.5168-.57098l-.7475-.35175.6485-.20343c.3-.09413.5383-.32389.6432-.6203z"/><path d="m20.6667 11.941.3333-.941.3333.941c.1049.2964.3432.5261.6432.6203l1.0235.3211-1.1225.5282c-.2416.1137-.4277.3193-.5168.5709l-.3607 1.0185-.3607-1.0185c-.0891-.2516-.2752-.4572-.5168-.5709l-1.1225-.5282 1.0235-.3211c.3-.0942.5383-.3239.6432-.6203z"/></g></svg>
