<svg viewBox="0 0 28 28" fill="none" xmlns="http://www.w3.org/2000/svg">
<path fill-rule="evenodd" clip-rule="evenodd" d="M13 6H6V13H4V6C4 4.9 4.9 4 6 4H13V6ZM8 20L12 15L14.97 18.71L17 16L20 20H8ZM19 10.5C19 9.67 18.33 9 17.5 9C16.67 9 16 9.67 16 10.5C16 11.33 16.67 12 17.5 12C18.33 12 19 11.33 19 10.5ZM15 4H22C23.1 4 24 4.9 24 6V13H22V6H15V4ZM22 22H15V24H22C23.1 24 24 23.1 24 22V15H22V22ZM4 15H6V22H13V24H6C4.9 24 4 23.1 4 22V15Z" fill="currentColor"/>
<rect x="5" y="5" width="18" height="18" stroke="currentColor" stroke-width="2"/>
</svg>