<svg viewBox="0 0 28 28" fill="none" xmlns="http://www.w3.org/2000/svg">
<g>
<path fill-rule="evenodd" clip-rule="evenodd" d="M13.8333 8C10.6133 8 8 10.6133 8 13.8333C8 17.0533 10.6133 19.6667 13.8333 19.6667C17.0533 19.6667 19.6667 17.0533 19.6667 13.8333C19.6667 10.6133 17.0533 8 13.8333 8ZM13.25 10.9167V13.25H10.9167V14.4167H13.25V16.75H14.4167V14.4167H16.75V13.25H14.4167V10.9167H13.25ZM9.16667 13.8333C9.16667 16.4058 11.2608 18.5 13.8333 18.5C16.4058 18.5 18.5 16.4058 18.5 13.8333C18.5 11.2608 16.4058 9.16667 13.8333 9.16667C11.2608 9.16667 9.16667 11.2608 9.16667 13.8333Z" fill="currentColor"/>
</g>
</svg>
