<svg width="8" height="21" viewBox="0 0 8 21" fill="none" xmlns="http://www.w3.org/2000/svg">
<path d="M6.16 5.2H7.98V11.528C7.98 12.1627 7.896 12.7087 7.728 13.166C7.56 13.6233 7.32667 14.0013 7.028 14.3C6.72933 14.5987 6.36533 14.818 5.936 14.958C5.50667 15.098 5.03533 15.168 4.522 15.168C2.03933 15.168 0.798 14.034 0.798 11.766V5.2H2.716V11.388C2.716 11.7707 2.74867 12.0973 2.814 12.368C2.88867 12.6293 3.00067 12.844 3.15 13.012C3.29933 13.1707 3.486 13.2873 3.71 13.362C3.934 13.4273 4.19533 13.46 4.494 13.46C5.082 13.46 5.50667 13.2967 5.768 12.97C6.02933 12.6433 6.16 12.116 6.16 11.388V5.2Z" fill="currentColor"/>
<path d="M1 17L8.00006 16.9963" stroke="currentColor"/>
</svg>
