<svg xmlns="http://www.w3.org/2000/svg" fill="none" viewBox="0 0 52 52"><path fill="currentColor" fill-rule="evenodd" d="M39.6506 22.3597C38.3877 15.9526 32.7606 11.1426 26.0006 11.1426C20.6334 11.1426 15.972 14.1883 13.6506 18.6454C8.06056 19.2397 3.71484 23.9754 3.71484 29.714C3.71484 35.8612 8.71056 40.8569 14.8577 40.8569H39.0006C44.1263 40.8569 48.2863 36.6969 48.2863 31.5711C48.2863 26.6683 44.4791 22.694 39.6506 22.3597ZM39.0006 37.1426H14.8577C10.7534 37.1426 7.42913 33.8183 7.42913 29.714C7.42913 25.9069 10.2706 22.7311 14.0406 22.3412L16.0277 22.1369L16.9563 20.3726C18.7206 16.974 22.1748 14.8569 26.0006 14.8569C30.8663 14.8569 35.0634 18.3111 36.0106 23.084L36.5677 25.8697L39.4091 26.074C42.3063 26.2597 44.572 28.6926 44.572 31.5711C44.572 34.6354 42.0648 37.1426 39.0006 37.1426ZM23.3077 27.8569H18.572L26.0006 20.4283L33.4291 27.8569H28.6934V33.4283H23.3077V27.8569Z" clip-rule="evenodd"/></svg>