<svg viewBox="0 0 16 16" xmlns="http://www.w3.org/2000/svg" fill-rule="evenodd" clip-rule="evenodd" stroke-linejoin="round" stroke-miterlimit="2">
  <path d="M1.5 0C.672 0 0 .672 0 1.5v13c0 .828.672 1.5 1.5 1.5h13c.828 0 1.5-.672 1.5-1.5v-13c0-.828-.672-1.5-1.5-1.5h-13zM1 1.5c0-.276.224-.5.5-.5h13c.276 0 .5.224.5.5v13c0 .276-.224.5-.5.5h-13c-.276 0-.5-.224-.5-.5v-13zm3.121 6.323c-.18-.209-.156-.525.054-.705l3.499-3.001c.187-.16.464-.16.651 0l3.499 3.001c.21.18.234.496.055.705-.18.21-.496.234-.705.055L8.499 5.584V11.5c0 .276-.224.5-.5.5s-.5-.224-.5-.5V5.585L4.825 7.878c-.209.179-.525.155-.705-.055z" fill="currentColor" />
</svg>
