<svg xmlns="http://www.w3.org/2000/svg" fill="none" viewBox="0 0 28 28"><path fill="currentColor" d="M11.9985 16.0903H8.41846L7.66943 18.2422H6L9.49121 9H10.9321L14.4297 18.2422H12.7539L11.9985 16.0903ZM8.86914 14.7954H11.5479L10.2085 10.9614L8.86914 14.7954Z"/><path fill="currentColor" d="M19.438 18.2422C19.3703 18.111 19.311 17.8973 19.2603 17.6011C18.7694 18.1131 18.1685 18.3691 17.4575 18.3691C16.7677 18.3691 16.2049 18.1724 15.769 17.7788C15.3332 17.3853 15.1152 16.8986 15.1152 16.3188C15.1152 15.5868 15.3861 15.026 15.9277 14.6367C16.4736 14.2432 17.2523 14.0464 18.2637 14.0464H19.2095V13.5957C19.2095 13.2402 19.11 12.9567 18.9111 12.7451C18.7122 12.5293 18.4097 12.4214 18.0034 12.4214C17.6522 12.4214 17.3644 12.5103 17.1401 12.688C16.9159 12.8615 16.8037 13.0837 16.8037 13.3545H15.2612C15.2612 12.9779 15.3861 12.6266 15.6357 12.3008C15.8854 11.9707 16.224 11.7126 16.6514 11.5264C17.083 11.3402 17.5633 11.2471 18.0923 11.2471C18.8963 11.2471 19.5374 11.4502 20.0156 11.8564C20.4938 12.2585 20.7393 12.8255 20.752 13.5576V16.6553C20.752 17.2731 20.8387 17.7661 21.0122 18.1343V18.2422H19.438ZM17.7432 17.1313C18.0479 17.1313 18.3335 17.0573 18.6001 16.9092C18.8709 16.7611 19.0741 16.5622 19.2095 16.3125V15.0176H18.3779C17.8066 15.0176 17.3771 15.117 17.0894 15.3159C16.8016 15.5148 16.6577 15.7962 16.6577 16.1602C16.6577 16.4564 16.755 16.6934 16.9497 16.8711C17.1486 17.0446 17.4131 17.1313 17.7432 17.1313Z"/></svg>