<svg viewBox="0 0 32 32" fill="none" xmlns="http://www.w3.org/2000/svg">
  <path fill-rule="evenodd" clip-rule="evenodd" d="M10.1464 13.3535c-.19522-.1952-.19521-.5118.0001-.7071l5.5002-5.49996c.1953-.19525.5118-.19525.7071 0l5.5003 5.49996c.1952.1953.1952.5119 0 .7071-.1953.1953-.5118.1953-.7071.0001L16.5 8.7068v14.5864l4.647-4.6468c.1953-.1952.5118-.1952.7071.0001.1952.1952.1952.5118 0 .7071l-5.5003 5.5c-.1953.1952-.5118.1952-.7071 0l-5.5002-5.5c-.19531-.1953-.19532-.5119-.0001-.7071.1953-.1953.5119-.1953.7071-.0001L15.5 23.2927V8.70733l-4.6465 4.64627c-.1952.1952-.5118.1952-.7071-.0001z" fill="currentColor"/>
</svg>
